<svg width="60" height="60" viewBox="0 0 60 60" fill="none" xmlns="http://www.w3.org/2000/svg">
<g clip-path="url(#clip0_59_1019)">
<path d="M59.9326 52.5505C59.9326 56.6629 56.5618 59.9663 52.5169 59.9663H7.41573C3.30337 59.9663 0 56.5955 0 52.5505V7.44942C0 3.33706 3.37079 0.0336914 7.41573 0.0336914H52.5169C56.6292 0.0336914 59.9326 3.40448 59.9326 7.44942V52.5505Z" fill="url(#paint0_linear_59_1019)"/>
<path d="M43.0112 15.4045L33.0337 24.236L24.2022 29.0225L25.9551 50.1911L35.6629 59.8989H52.5168C56.6292 59.8989 59.9326 56.5281 59.9326 52.4832V51.4719V32.3259L43.0112 15.4045Z" fill="url(#paint1_linear_59_1019)" fill-opacity="0.1"/>
<path d="M27.1686 50.9326C29.1236 51.2023 29.3933 45.2023 29.2584 42.8427C29.1236 40.4158 29.5281 33.4045 31.6854 33.4045C33.7753 33.4045 34.2472 36.8427 34.382 39.4045C34.5169 41.9663 34.5169 50.9326 36.9438 50.9326C39.3708 50.9326 39.6405 46.1461 40.382 43.854C41.2584 41.3596 41.5955 37.9888 41.5955 36.5057C41.5955 35.0225 43.2135 31.7192 44.1573 30.0338C45.0337 28.4158 46.382 24.7753 45.7753 21.472C45.1686 18.1686 43.5506 14.2585 40.382 14.1236C37.2135 13.9888 35.2584 15.6068 32.427 15.6068C29.5955 15.6068 25.9551 12.7079 22.9888 14.1236C19.9551 15.472 16.8539 19.6517 18.3371 25.9888C19.8202 32.2585 21.7079 32.7304 22.1798 35.5618C22.6517 38.3933 23.3259 42.3708 24.2023 45.0675C25.0787 47.7641 24.9438 50.663 27.1686 50.9326Z" fill="url(#paint2_linear_59_1019)"/>
<path d="M27.1685 49.8539C24.9438 49.5842 25.0787 46.6854 24.1348 43.9887C23.2584 41.2921 22.5843 37.382 22.1124 34.4831C21.6405 31.6517 19.8202 31.1798 18.2697 24.9101C18.0674 23.9663 17.9326 23.1573 17.9326 22.2809C17.8652 23.427 18 24.6404 18.2697 25.9887C19.7528 32.2584 21.6405 32.7303 22.1124 35.5618C22.5843 38.3932 23.2584 42.3708 24.1348 45.0674C25.0112 47.764 24.8764 50.5955 27.1685 50.9326C28.9214 51.2022 29.3259 46.146 29.3259 43.5168C29.2584 46.2135 28.7191 50.0562 27.1685 49.8539Z" fill="#C0DDE4"/>
<path d="M44.1573 29.0224C43.2809 30.6404 41.5955 33.9437 41.5955 35.4943C41.5955 36.9774 41.2584 40.3482 40.382 42.8426C39.6405 45.1348 39.3034 49.9213 36.9438 49.9213C34.5169 49.9213 34.5169 40.8876 34.382 38.3932C34.2472 35.8314 33.7753 32.3932 31.6854 32.3932C29.7304 32.3932 29.191 38.6628 29.2584 41.3595C29.3259 38.3258 29.9326 33.4718 31.6854 33.4718C33.7753 33.4718 34.2472 36.91 34.382 39.4718C34.5169 42.0336 34.5169 50.9999 36.9438 50.9999C39.3708 50.9999 39.6405 46.2134 40.382 43.9213C41.2584 41.4269 41.5955 38.0561 41.5955 36.5729C41.5955 35.0898 43.2135 31.7864 44.1573 30.101C44.9663 28.6179 46.1124 25.6516 45.9101 22.6853C45.7753 25.2471 44.8315 27.7415 44.1573 29.0224Z" fill="#C0DDE4"/>
<path d="M22.9888 15.1349C26.0225 13.7865 29.5955 16.618 32.427 16.618C35.2584 16.618 37.2135 15 40.382 15.1349C43.5506 15.2697 45.1686 19.1798 45.7753 22.4832C45.8427 22.8877 45.9101 23.2921 45.9101 23.6966C45.9101 22.9551 45.9101 22.2135 45.7753 21.5393C45.1686 18.236 43.5506 14.3259 40.382 14.191C37.2135 14.0562 35.2584 15.6742 32.427 15.6742C29.5955 15.6742 25.9551 12.7753 22.9888 14.191C20.427 15.3371 17.7978 18.573 18 23.3596C18.1348 19.045 20.6292 16.2135 22.9888 15.1349Z" fill="white"/>
</g>
<defs>
<linearGradient id="paint0_linear_59_1019" x1="29.71" y1="0.400096" x2="30.2388" y2="59.6208" gradientUnits="userSpaceOnUse">
<stop stop-color="#98B7C8"/>
<stop offset="0.3125" stop-color="#91B2CF"/>
<stop offset="0.649038" stop-color="#82A9DA"/>
<stop offset="1" stop-color="#82A9DA"/>
</linearGradient>
<linearGradient id="paint1_linear_59_1019" x1="35.2737" y1="29.4227" x2="63.0476" y2="52.4714" gradientUnits="userSpaceOnUse">
<stop/>
<stop offset="1" stop-opacity="0.6"/>
</linearGradient>
<linearGradient id="paint2_linear_59_1019" x1="31.933" y1="50.9389" x2="31.933" y2="13.799" gradientUnits="userSpaceOnUse">
<stop stop-color="#B9EAFA"/>
<stop offset="1" stop-color="#F5F9FA"/>
</linearGradient>
<clipPath id="clip0_59_1019">
<rect width="60" height="60" rx="16" fill="white"/>
</clipPath>
</defs>
</svg>
