<svg width="60" height="60" viewBox="0 0 60 60" fill="none" xmlns="http://www.w3.org/2000/svg">
<g clip-path="url(#clip0_59_1004)">
<path d="M59.9325 52.5167C59.9325 56.6291 56.5617 59.9325 52.5168 59.9325H7.41571C3.30336 59.9325 0 56.5617 0 52.5167V7.41571C0 3.30336 3.37077 0 7.41571 0H52.5168C56.6291 0 59.9325 3.37078 59.9325 7.41571V52.5167Z" fill="url(#paint0_linear_59_1004)"/>
<path d="M53.3258 25.8203L42.8089 33.5056L40.7865 30.2023L39.1011 28.5169L33.5056 30.0674L31.5505 31.0787L29.3258 28.854L22.1124 30L20.4944 28.382L15.9775 29.3933L15.1011 28.045L13.3483 26.2922L10.9888 31.7528L7.41576 33.6405L33.7753 60H52.4494C56.5617 60 59.8651 56.6292 59.8651 52.5842V51.5056V32.427L53.3258 25.8203Z" fill="url(#paint1_linear_59_1004)" fill-opacity="0.1"/>
<path d="M51.1011 29.4606C51.0337 29.528 44.3595 33.7078 31.2135 33.7078H31.1461H31.0787C18 33.7078 11.2585 29.528 11.1911 29.4606L10.854 30C10.9214 30.0674 17.7304 34.3146 31.0112 34.3146H31.0787H31.1461C44.427 34.3146 51.2359 30.0674 51.3033 30L51.1011 29.4606Z" fill="#299FBB"/>
<path d="M10.9888 25.1461C14.0899 25.1461 15.236 29.1236 15.1012 31.8876C14.9663 34.6517 13.7529 33.9101 10.9888 33.9101C8.22478 33.9101 7.0113 34.6517 6.87647 31.8876C6.80906 29.1236 7.8877 25.1461 10.9888 25.1461Z" fill="url(#paint2_linear_59_1004)"/>
<path d="M11.0562 25.7528C13.8877 25.7528 15.0338 29.0562 15.1686 31.6854C15.236 28.9888 14.0899 25.1461 11.0562 25.1461C7.95512 25.1461 6.80905 29.1236 6.94388 31.8202C6.94388 29.191 8.15737 25.7528 11.0562 25.7528Z" fill="white"/>
<path d="M15.1012 31.1461C15.1012 31.2135 15.1012 31.2135 15.1012 31.2809C14.9663 34.0449 13.7528 33.3034 10.9888 33.3034C8.22476 33.3034 7.01128 34.0449 6.87645 31.2809C6.87645 31.2135 6.87645 31.2135 6.87645 31.1461C6.87645 31.3483 6.87645 31.618 6.87645 31.8202C7.01128 34.5842 8.22476 33.8427 10.9888 33.8427C13.7528 33.8427 14.9663 34.5842 15.1012 31.8202C15.1012 31.618 15.1012 31.4157 15.1012 31.1461Z" fill="#C0DDE4"/>
<path d="M17.7303 26.8989C21.0337 26.8989 22.2472 31.1461 22.1123 34.0449C21.9775 36.9438 20.6292 36.2022 17.7303 36.2022C14.8315 36.2022 13.4831 37.0112 13.3483 34.0449C13.2135 31.1461 14.3595 26.8989 17.7303 26.8989Z" fill="url(#paint3_linear_59_1004)"/>
<path d="M17.7303 27.5056C20.764 27.5056 21.9775 31.0112 22.1123 33.8427C22.1798 30.9438 20.9663 26.8989 17.7303 26.8989C14.427 26.8989 13.2135 31.0786 13.3483 34.0449C13.3483 31.2135 14.6292 27.5056 17.7303 27.5056Z" fill="white"/>
<path d="M22.1124 33.3707C22.1124 33.4381 22.1124 33.5055 22.1124 33.5055C21.9776 36.4044 20.6292 35.6628 17.7304 35.6628C14.8315 35.6628 13.4832 36.4718 13.3484 33.5055C13.3484 33.4381 13.3484 33.4381 13.3484 33.3707C13.3484 33.6403 13.3484 33.8426 13.3484 34.1122C13.4832 37.0111 14.8315 36.2695 17.7304 36.2695C20.6292 36.2695 21.9776 37.0785 22.1124 34.1122C22.1124 33.8426 22.1124 33.6403 22.1124 33.3707Z" fill="#C0DDE4"/>
<path d="M51.2358 25.1461C48.1347 25.1461 46.9887 29.1236 47.1235 31.8876C47.2583 34.6517 48.4718 33.9101 51.2358 33.9101C53.9999 33.9101 55.2134 34.6517 55.3482 31.8876C55.483 29.1236 54.337 25.1461 51.2358 25.1461Z" fill="url(#paint4_linear_59_1004)"/>
<path d="M51.2358 25.7528C54.0673 25.7528 55.2134 29.0562 55.3482 31.6854C55.4156 28.9888 54.2695 25.1461 51.2358 25.1461C48.1347 25.1461 46.9887 29.1236 47.1235 31.8202C47.1909 29.191 48.337 25.7528 51.2358 25.7528Z" fill="white"/>
<path d="M55.3483 31.1461C55.3483 31.2135 55.3483 31.2135 55.3483 31.2809C55.2134 34.0449 53.9999 33.3034 51.2359 33.3034C48.4719 33.3034 47.2584 34.0449 47.1236 31.2809C47.1236 31.2135 47.1236 31.2135 47.1236 31.1461C47.1236 31.4157 47.1236 31.618 47.1236 31.8202C47.2584 34.5842 48.4719 33.8427 51.2359 33.8427C53.9999 33.8427 55.2134 34.5842 55.3483 31.8202C55.3483 31.618 55.3483 31.4157 55.3483 31.1461Z" fill="#C0DDE4"/>
<path d="M44.5618 26.8989C41.2584 26.8989 40.0449 31.1461 40.1797 34.0449C40.3146 36.9438 41.6629 36.2022 44.5618 36.2022C47.4606 36.2022 48.8089 37.0112 48.9438 34.0449C49.0786 31.1461 47.8651 26.8989 44.5618 26.8989Z" fill="url(#paint5_linear_59_1004)"/>
<path d="M44.5618 27.5056C47.5955 27.5056 48.8089 31.0112 48.9438 33.8427C49.0112 30.9438 47.7977 26.8989 44.5618 26.8989C41.2584 26.8989 40.0449 31.0786 40.1797 34.0449C40.2472 31.2135 41.4606 27.5056 44.5618 27.5056Z" fill="white"/>
<path d="M48.9438 33.3707C48.9438 33.4381 48.9438 33.5055 48.9438 33.5055C48.8089 36.4044 47.4606 35.6628 44.5617 35.6628C41.6629 35.6628 40.3146 36.4718 40.1797 33.5055C40.1797 33.4381 40.1797 33.4381 40.1797 33.3707C40.1797 33.6403 40.1797 33.8426 40.1797 34.1122C40.3146 37.0111 41.6629 36.2695 44.5617 36.2695C47.4606 36.2695 48.8089 37.0785 48.9438 34.1122C48.9438 33.8426 48.9438 33.6403 48.9438 33.3707Z" fill="#C0DDE4"/>
<path d="M26.1573 27.2359C22.1797 27.2359 20.6966 32.3595 20.8988 35.8651C21.0337 39.3707 22.6517 38.764 26.1573 38.764C29.6629 38.764 31.2809 39.3707 31.4157 35.8651C31.6179 32.3595 30.2022 27.2359 26.1573 27.2359Z" fill="url(#paint6_linear_59_1004)"/>
<path d="M36.0674 27.2359C32.0899 27.2359 30.6067 32.3595 30.809 35.8651C30.9438 39.3707 32.5618 38.764 36.0674 38.764C39.573 38.764 41.191 39.3707 41.3258 35.8651C41.5281 32.3595 40.1123 27.2359 36.0674 27.2359Z" fill="url(#paint7_linear_59_1004)"/>
<path d="M26.1572 38.2246C22.6516 38.2246 21.0337 38.8314 20.8988 35.3257C20.8988 35.2583 20.8988 35.1235 20.8988 35.0561C20.8988 35.3257 20.8988 35.5954 20.8988 35.8651C21.0337 39.3707 22.6516 38.7639 26.1572 38.7639C28.9213 38.7639 30.4718 39.1684 31.146 37.6179C31.0786 37.483 31.0786 37.4156 31.0112 37.2808C30.337 38.5617 28.7864 38.2246 26.1572 38.2246Z" fill="#C0DDE4"/>
<path d="M41.3932 35.3257C41.2584 38.8314 39.6404 38.2246 36.1348 38.2246C33.573 38.2246 32.0225 38.5617 31.2809 37.3482C31.2135 37.483 31.2135 37.5505 31.1461 37.6853C31.7528 39.1684 33.3708 38.8313 36.1348 38.8313C39.6404 38.8313 41.2584 39.4381 41.3932 35.9325C41.3932 35.6628 41.3932 35.3932 41.3932 35.0561C41.3932 35.1235 41.3932 35.1909 41.3932 35.3257Z" fill="#C0DDE4"/>
<path d="M31.146 37.0785C31.0786 37.146 31.0786 37.2808 31.0112 37.3482C31.0786 37.483 31.0786 37.5504 31.146 37.6853C31.2134 37.5504 31.2134 37.483 31.2808 37.3482C31.2134 37.2134 31.146 37.146 31.146 37.0785Z" fill="#C0DDE4"/>
<path d="M26.1573 27.2359C22.2472 27.2359 20.7641 32.2247 20.8989 35.7303C20.9663 32.2921 22.4495 27.8427 26.1573 27.8427C28.8539 27.8427 30.4045 30.2022 31.0112 32.764C31.0112 32.6292 31.0787 32.5617 31.0787 32.4269C30.5393 29.7303 28.9888 27.2359 26.1573 27.2359Z" fill="white"/>
<path d="M36.0673 27.2359C33.2358 27.2359 31.7527 29.7303 31.0786 32.4943C31.0786 32.6292 31.146 32.6966 31.146 32.8314C31.8201 30.2022 33.3033 27.9101 36.0673 27.9101C39.7077 27.9101 41.2583 32.1573 41.3257 35.5954C41.4605 32.0898 39.9774 27.2359 36.0673 27.2359Z" fill="white"/>
<path d="M31.0786 32.764C31.0786 32.8314 31.146 32.9663 31.146 33.0337C31.146 32.9663 31.2134 32.8314 31.2134 32.764C31.2134 32.6292 31.146 32.5618 31.146 32.4269C31.0786 32.5618 31.0786 32.6966 31.0786 32.764Z" fill="white"/>
<path d="M31.0786 32.764C31.0786 32.8314 31.146 32.9663 31.146 33.0337C31.146 32.9663 31.2134 32.8314 31.2134 32.764C31.2134 32.6292 31.146 32.5618 31.146 32.4269C31.0786 32.5618 31.0786 32.6966 31.0786 32.764Z" fill="white"/>
<path d="M51.1011 29.4606C51.0337 29.528 44.3595 33.7078 31.2135 33.7078H31.1461H31.0787C18 33.7078 11.2585 29.528 11.1911 29.4606L10.854 30C10.9214 30.0674 17.7304 34.3146 31.0112 34.3146H31.0787H31.1461C44.427 34.3146 51.2359 30.0674 51.3033 30L51.1011 29.4606Z" fill="#299FBB"/>
<path d="M31.2135 34.1799H31.1461H31.0787C18.2697 34.1799 11.4607 30.2023 10.9214 29.9327L10.854 30.0001C10.9214 30.0675 17.7304 34.3147 31.0112 34.3147H31.0787H31.1461C44.427 34.3147 51.2359 30.0675 51.3033 30.0001L51.2359 29.9327C50.8314 30.2023 44.0225 34.1799 31.2135 34.1799Z" fill="#C0DDE4"/>
<path d="M50.9664 29.6629L51.236 30.0674C51.3034 30 51.4383 30 51.4383 29.9326L51.1012 29.3933C51.0338 29.4607 44.3596 33.6404 31.2136 33.6404H31.1462V33.8427C44.2248 33.8427 50.8989 29.7303 50.9664 29.6629Z" fill="#299FBB"/>
<path d="M11.0563 29.6629C11.1237 29.7303 17.7978 33.9101 30.9439 33.9101H31.0113H31.0787V33.7078H31.0113C17.9327 33.7078 11.1911 29.528 11.1237 29.4606L10.7866 30L11.0563 29.6629Z" fill="#299FBB"/>
<path d="M37.5505 34.382C37.5505 34.9213 37.0786 35.3932 36.5393 35.3932H35.7303C35.191 35.3932 34.719 34.9213 34.719 34.382V33.6404C34.719 33.1011 35.191 32.6292 35.7303 32.6292H36.5393C37.0786 32.6292 37.5505 33.1011 37.5505 33.6404V34.382Z" fill="url(#paint8_linear_59_1004)"/>
<path d="M45.7078 32.4269C45.7078 32.8988 45.3707 33.2359 44.8988 33.2359H44.2247C43.7528 33.2359 43.4157 32.8988 43.4157 32.4269V31.8202C43.4157 31.3482 43.7528 31.0112 44.2247 31.0112H44.8988C45.3707 31.0112 45.7078 31.3482 45.7078 31.8202V32.4269Z" fill="url(#paint9_linear_59_1004)"/>
<path d="M52.2471 30C52.2471 30.4045 51.91 30.7415 51.5055 30.7415H50.9662C50.5617 30.7415 50.2246 30.4045 50.2246 30V29.4606C50.2246 29.0561 50.5617 28.7191 50.9662 28.7191H51.5729C51.9774 28.7191 52.3145 29.0561 52.3145 29.4606V30H52.2471Z" fill="url(#paint10_linear_59_1004)"/>
<path d="M16.5168 32.4269C16.5168 32.8988 16.8539 33.2359 17.3258 33.2359H18C18.4719 33.2359 18.8089 32.8988 18.8089 32.4269V31.8202C18.8089 31.3482 18.4719 31.0112 18 31.0112H17.3258C16.8539 31.0112 16.5168 31.3482 16.5168 31.8202V32.4269Z" fill="url(#paint11_linear_59_1004)"/>
<path d="M9.97758 30C9.97758 30.4045 10.3147 30.7415 10.7192 30.7415H11.3259C11.7304 30.7415 12.0675 30.4045 12.0675 30V29.4606C12.0675 29.0561 11.7304 28.7191 11.3259 28.7191H10.7192C10.3147 28.7191 9.97758 29.0561 9.97758 29.4606V30Z" fill="url(#paint12_linear_59_1004)"/>
<path d="M36.4719 32.5618H35.6629C35.1236 32.5618 34.6517 33.0337 34.6517 33.5731V33.9775C34.6517 33.4382 35.1236 32.9663 35.6629 32.9663H36.4719C37.0112 32.9663 37.4831 33.4382 37.4831 33.9775V34.3146V33.5731C37.5505 33.0337 37.0786 32.5618 36.4719 32.5618Z" fill="#299FBB"/>
<path d="M24.7416 34.382C24.7416 34.9213 25.2136 35.3932 25.7529 35.3932H26.5619C27.1012 35.3932 27.5731 34.9213 27.5731 34.382V33.6404C27.5731 33.1011 27.1012 32.6292 26.5619 32.6292H25.7529C25.2136 32.6292 24.7416 33.1011 24.7416 33.6404V34.382Z" fill="url(#paint13_linear_59_1004)"/>
<path d="M25.7529 32.5618H26.5619C27.1012 32.5618 27.5731 33.0337 27.5731 33.5731V33.9775C27.5731 33.4382 27.1012 32.9663 26.5619 32.9663H25.7529C25.2136 32.9663 24.7416 33.4382 24.7416 33.9775V34.3146V33.5731C24.7416 33.0337 25.2136 32.5618 25.7529 32.5618Z" fill="#299FBB"/>
<path d="M44.8988 31.0112H44.2247C43.7528 31.0112 43.4157 31.3482 43.4157 31.8202V32.2247C43.4157 31.7527 43.7528 31.4157 44.2247 31.4157H44.8988C45.3707 31.4157 45.7078 31.7527 45.7078 32.2247V32.4269V31.8202C45.7078 31.4157 45.3707 31.0112 44.8988 31.0112Z" fill="#299FBB"/>
<path d="M51.5055 28.7191H50.9662C50.5617 28.7191 50.2246 29.0561 50.2246 29.4606V29.8651C50.2246 29.4606 50.5617 29.1236 50.9662 29.1236H51.5729C51.9774 29.1236 52.3145 29.4606 52.3145 29.8651V30V29.4606C52.2471 29.0561 51.91 28.7191 51.5055 28.7191Z" fill="#299FBB"/>
<path d="M18 31.0112H17.3258C16.8539 31.0112 16.5168 31.3482 16.5168 31.8202V32.2247C16.5168 31.7527 16.8539 31.4157 17.3258 31.4157H18C18.4719 31.4157 18.8089 31.7527 18.8089 32.2247V32.4269V31.8202C18.8764 31.4157 18.4719 31.0112 18 31.0112Z" fill="#299FBB"/>
<path d="M11.3259 28.7191H10.7192C10.3147 28.7191 9.97758 29.0561 9.97758 29.4606V29.8651C9.97758 29.4606 10.3147 29.1236 10.7192 29.1236H11.3259C11.7304 29.1236 12.0675 29.4606 12.0675 29.8651V30V29.4606C12.0001 29.0561 11.7304 28.7191 11.3259 28.7191Z" fill="#299FBB"/>
<path d="M36.4719 34.9887H35.6629C35.1236 34.9887 34.6517 34.5168 34.6517 33.9775V34.382C34.6517 34.9213 35.1236 35.3932 35.6629 35.3932H36.4719C37.0112 35.3932 37.4831 34.9213 37.4831 34.382V33.9775C37.5505 34.5168 37.0786 34.9887 36.4719 34.9887Z" fill="#C0DDE4"/>
<path d="M44.8988 32.8989H44.2247C43.7528 32.8989 43.4157 32.5618 43.4157 32.0899V32.4944C43.4157 32.9663 43.7528 33.3034 44.2247 33.3034H44.8988C45.3707 33.3034 45.7078 32.9663 45.7078 32.4944V32.0899C45.7078 32.4944 45.3707 32.8989 44.8988 32.8989Z" fill="#C0DDE4"/>
<path d="M51.5055 30.3371H50.9662C50.5617 30.3371 50.2246 30 50.2246 29.5955V30C50.2246 30.4045 50.5617 30.7416 50.9662 30.7416H51.5729C51.9774 30.7416 52.3145 30.4045 52.3145 30V29.5955C52.2471 30 51.91 30.3371 51.5055 30.3371Z" fill="#C0DDE4"/>
<path d="M26.5619 34.9887H25.7529C25.2136 34.9887 24.7416 34.5168 24.7416 33.9775V34.382C24.7416 34.9213 25.2136 35.3932 25.7529 35.3932H26.5619C27.1012 35.3932 27.5731 34.9213 27.5731 34.382V33.9775C27.6405 34.5168 27.1686 34.9887 26.5619 34.9887Z" fill="#C0DDE4"/>
<path d="M18 32.8989H17.3258C16.8539 32.8989 16.5168 32.5618 16.5168 32.0899V32.4944C16.5168 32.9663 16.8539 33.3034 17.3258 33.3034H18C18.4719 33.3034 18.8089 32.9663 18.8089 32.4944V32.0899C18.8764 32.4944 18.4719 32.8989 18 32.8989Z" fill="#C0DDE4"/>
<path d="M11.3259 30.3371H10.7192C10.3147 30.3371 9.97758 30 9.97758 29.5955V30C9.97758 30.4045 10.3147 30.7416 10.7192 30.7416H11.3259C11.7304 30.7416 12.0675 30.4045 12.0675 30V29.5955C12.0001 30 11.7304 30.3371 11.3259 30.3371Z" fill="#C0DDE4"/>
</g>
<defs>
<linearGradient id="paint0_linear_59_1004" x1="29.6768" y1="0.350224" x2="30.2056" y2="59.5704" gradientUnits="userSpaceOnUse">
<stop stop-color="#6D9CEC"/>
<stop offset="0.3133" stop-color="#5286DC"/>
<stop offset="0.7481" stop-color="#78A0DC"/>
<stop offset="1" stop-color="#7EA6DF"/>
</linearGradient>
<linearGradient id="paint1_linear_59_1004" x1="23.6678" y1="36.5888" x2="43.2558" y2="67.6515" gradientUnits="userSpaceOnUse">
<stop/>
<stop offset="1" stop-opacity="0.6"/>
</linearGradient>
<linearGradient id="paint2_linear_59_1004" x1="11.0202" y1="33.9423" x2="11.0202" y2="25.1448" gradientUnits="userSpaceOnUse">
<stop stop-color="#CEEFFA"/>
<stop offset="0.0907692" stop-color="#D7F1FA"/>
<stop offset="0.3251" stop-color="#E8F6FA"/>
<stop offset="0.5811" stop-color="#F2F8FA"/>
<stop offset="0.897" stop-color="#F5F9FA"/>
</linearGradient>
<linearGradient id="paint3_linear_59_1004" x1="17.6982" y1="36.3199" x2="17.6982" y2="26.9254" gradientUnits="userSpaceOnUse">
<stop stop-color="#CEEFFA"/>
<stop offset="0.0907692" stop-color="#D7F1FA"/>
<stop offset="0.3251" stop-color="#E8F6FA"/>
<stop offset="0.5811" stop-color="#F2F8FA"/>
<stop offset="0.897" stop-color="#F5F9FA"/>
</linearGradient>
<linearGradient id="paint4_linear_59_1004" x1="51.2424" y1="33.9423" x2="51.2424" y2="25.1448" gradientUnits="userSpaceOnUse">
<stop stop-color="#CEEFFA"/>
<stop offset="0.0907692" stop-color="#D7F1FA"/>
<stop offset="0.3251" stop-color="#E8F6FA"/>
<stop offset="0.5811" stop-color="#F2F8FA"/>
<stop offset="0.897" stop-color="#F5F9FA"/>
</linearGradient>
<linearGradient id="paint5_linear_59_1004" x1="44.5644" y1="36.3199" x2="44.5644" y2="26.9254" gradientUnits="userSpaceOnUse">
<stop stop-color="#CEEFFA"/>
<stop offset="0.0907692" stop-color="#D7F1FA"/>
<stop offset="0.3251" stop-color="#E8F6FA"/>
<stop offset="0.5811" stop-color="#F2F8FA"/>
<stop offset="0.897" stop-color="#F5F9FA"/>
</linearGradient>
<linearGradient id="paint6_linear_59_1004" x1="26.1736" y1="38.8187" x2="26.1736" y2="27.2449" gradientUnits="userSpaceOnUse">
<stop stop-color="#CEEFFA"/>
<stop offset="0.0907692" stop-color="#D7F1FA"/>
<stop offset="0.3251" stop-color="#E8F6FA"/>
<stop offset="0.5811" stop-color="#F2F8FA"/>
<stop offset="0.897" stop-color="#F5F9FA"/>
</linearGradient>
<linearGradient id="paint7_linear_59_1004" x1="36.0889" y1="38.8187" x2="36.0889" y2="27.2449" gradientUnits="userSpaceOnUse">
<stop stop-color="#CEEFFA"/>
<stop offset="0.0907692" stop-color="#D7F1FA"/>
<stop offset="0.3251" stop-color="#E8F6FA"/>
<stop offset="0.5811" stop-color="#F2F8FA"/>
<stop offset="0.897" stop-color="#F5F9FA"/>
</linearGradient>
<linearGradient id="paint8_linear_59_1004" x1="36.0765" y1="32.6165" x2="36.1009" y2="35.3608" gradientUnits="userSpaceOnUse">
<stop stop-color="#65CFE5"/>
<stop offset="0.010029" stop-color="#64CEE4"/>
<stop offset="0.2403" stop-color="#4AB9D2"/>
<stop offset="0.4781" stop-color="#38ABC5"/>
<stop offset="0.726" stop-color="#2DA2BE"/>
<stop offset="1" stop-color="#299FBB"/>
</linearGradient>
<linearGradient id="paint9_linear_59_1004" x1="44.5549" y1="31.0439" x2="44.5746" y2="33.251" gradientUnits="userSpaceOnUse">
<stop stop-color="#65CFE5"/>
<stop offset="0.010029" stop-color="#64CEE4"/>
<stop offset="0.2403" stop-color="#4AB9D2"/>
<stop offset="0.4781" stop-color="#38ABC5"/>
<stop offset="0.726" stop-color="#2DA2BE"/>
<stop offset="1" stop-color="#299FBB"/>
</linearGradient>
<linearGradient id="paint10_linear_59_1004" x1="51.2338" y1="28.7569" x2="51.251" y2="30.6958" gradientUnits="userSpaceOnUse">
<stop stop-color="#65CFE5"/>
<stop offset="0.010029" stop-color="#64CEE4"/>
<stop offset="0.2403" stop-color="#4AB9D2"/>
<stop offset="0.4781" stop-color="#38ABC5"/>
<stop offset="0.726" stop-color="#2DA2BE"/>
<stop offset="1" stop-color="#299FBB"/>
</linearGradient>
<linearGradient id="paint11_linear_59_1004" x1="17.7077" y1="31.0439" x2="17.688" y2="33.251" gradientUnits="userSpaceOnUse">
<stop stop-color="#65CFE5"/>
<stop offset="0.010029" stop-color="#64CEE4"/>
<stop offset="0.2403" stop-color="#4AB9D2"/>
<stop offset="0.4781" stop-color="#38ABC5"/>
<stop offset="0.726" stop-color="#2DA2BE"/>
<stop offset="1" stop-color="#299FBB"/>
</linearGradient>
<linearGradient id="paint12_linear_59_1004" x1="11.0289" y1="28.7569" x2="11.0116" y2="30.6958" gradientUnits="userSpaceOnUse">
<stop stop-color="#65CFE5"/>
<stop offset="0.010029" stop-color="#64CEE4"/>
<stop offset="0.2403" stop-color="#4AB9D2"/>
<stop offset="0.4781" stop-color="#38ABC5"/>
<stop offset="0.726" stop-color="#2DA2BE"/>
<stop offset="1" stop-color="#299FBB"/>
</linearGradient>
<linearGradient id="paint13_linear_59_1004" x1="26.1949" y1="32.6165" x2="26.1705" y2="35.3608" gradientUnits="userSpaceOnUse">
<stop stop-color="#65CFE5"/>
<stop offset="0.010029" stop-color="#64CEE4"/>
<stop offset="0.2403" stop-color="#4AB9D2"/>
<stop offset="0.4781" stop-color="#38ABC5"/>
<stop offset="0.726" stop-color="#2DA2BE"/>
<stop offset="1" stop-color="#299FBB"/>
</linearGradient>
<clipPath id="clip0_59_1004">
<rect width="59.9325" height="60" rx="16" fill="white"/>
</clipPath>
</defs>
</svg>
