<svg width="60" height="60" viewBox="0 0 60 60" fill="none" xmlns="http://www.w3.org/2000/svg">
<g clip-path="url(#clip0_59_1071)">
<path d="M60 52.5759C60 56.6929 56.6254 60 52.5759 60H7.42407C3.30709 60 0 56.6254 0 52.5759V7.42407C0 3.30709 3.37458 0 7.42407 0H52.5759C56.6929 0 60 3.37458 60 7.42407V52.5759Z" fill="url(#paint0_linear_59_1071)"/>
<path d="M41.2373 15.7256L36.3105 18.6277L25.0394 30.0338L24.3644 50.8212L33.6108 60.0001H52.5084C56.6254 60.0001 59.9325 56.6255 59.9325 52.576V51.4961V34.4883L41.2373 15.7256Z" fill="url(#paint1_linear_59_1071)" fill-opacity="0.1"/>
<path d="M25.3094 51.2261C27.2667 51.496 27.5366 45.4893 27.4016 43.1271C27.2667 40.6974 27.6716 33.6783 29.8313 33.6783C31.9911 33.6783 32.396 37.1203 32.531 39.685C32.666 42.2497 32.666 51.2261 35.0957 51.2261C37.5254 51.2261 37.7953 46.4342 38.5377 44.1395C39.4151 41.6423 39.7526 38.2677 39.7526 36.7829C39.7526 35.2981 41.3724 31.991 42.3173 30.3037C43.1947 28.6839 44.5445 25.0393 43.9371 21.7322C43.3296 18.4252 41.7099 14.5107 38.5377 14.3757C35.3656 14.2407 33.4084 15.8605 30.5737 15.8605C27.7391 15.8605 24.0946 12.9583 21.1249 14.3757C18.1553 15.7255 14.9832 19.91 16.468 26.2542C17.9528 32.5309 19.8426 33.0034 20.315 35.838C20.7875 38.6726 21.4624 42.6546 22.3398 45.3543C23.2172 48.054 23.0822 50.9561 25.3094 51.2261Z" fill="url(#paint2_linear_59_1071)"/>
<path d="M25.3094 50.1462C23.0822 49.8762 23.2171 46.9741 22.2723 44.2744C21.3949 41.5747 20.72 37.6602 20.2475 34.7581C19.7751 31.9234 17.9528 31.451 16.4005 25.1743C16.198 24.2294 16.063 23.4195 16.063 22.5421C15.9955 23.6895 16.1305 24.9043 16.4005 26.2542C17.8853 32.5309 19.7751 33.0033 20.2475 35.838C20.72 38.6726 21.3949 42.6546 22.2723 45.3543C23.1497 48.0539 23.0147 50.8886 25.3094 51.226C27.0642 51.496 27.4691 46.4341 27.4691 43.802C27.4016 46.5016 26.8617 50.3486 25.3094 50.1462Z" fill="#C0DDE4"/>
<path d="M42.3172 29.2912C41.4398 30.911 39.7525 34.2181 39.7525 35.7704C39.7525 37.2552 39.4151 40.6298 38.5377 43.127C37.7953 45.4217 37.4578 50.2136 35.0956 50.2136C32.6659 50.2136 32.6659 41.2372 32.5309 38.6725C32.396 36.1079 31.9235 32.6658 29.8313 32.6658C27.874 32.6658 27.3341 38.9425 27.4016 41.6422C27.4691 38.6051 28.0765 33.7457 29.8313 33.7457C31.9235 33.7457 32.396 37.1877 32.5309 39.7524C32.6659 42.3171 32.6659 51.2935 35.0956 51.2935C37.5253 51.2935 37.7953 46.5016 38.5377 44.2069C39.4151 41.7097 39.7525 38.3351 39.7525 36.8503C39.7525 35.3655 41.3723 32.0584 42.3172 30.3711C43.1271 28.8863 44.2745 25.9167 44.072 22.947C43.937 25.5117 42.9921 28.0089 42.3172 29.2912Z" fill="#C0DDE4"/>
<path d="M21.1249 15.3881C24.0945 14.0382 27.7391 16.8729 30.5737 16.8729C33.4084 16.8729 35.3656 15.2531 38.5377 15.3881C41.7098 15.523 43.3296 19.4375 43.937 22.7446C44.0045 23.1496 44.072 23.5545 44.072 23.9595C44.072 23.2171 44.072 22.4747 43.937 21.7998C43.3296 18.4927 41.7098 14.5782 38.5377 14.4432C35.3656 14.3082 33.4084 15.928 30.5737 15.928C27.7391 15.928 24.0945 13.0259 21.1249 14.4432C18.5602 15.5905 15.928 18.8301 16.1305 23.622C16.2655 19.3701 18.7627 16.4679 21.1249 15.3881Z" fill="white"/>
<path d="M43.2622 28.2113V28.1438C43.4646 27.5364 43.6671 26.929 43.8021 26.2541C43.8696 25.9166 43.9371 25.5792 44.0046 25.2417V25.1742C44.0721 24.8368 44.0721 24.4993 44.0721 24.1618V24.0943C44.0721 23.7569 44.0721 23.4195 44.0721 23.0145V22.947V22.8795C44.0721 22.5421 44.0046 22.2046 43.9371 21.8671C43.3297 18.56 41.7099 14.6455 38.5378 14.5106C35.3656 14.3756 33.4084 15.9954 30.5737 15.9954C27.7391 15.9954 24.0946 13.0932 21.1249 14.5106C20.9225 14.5781 20.7875 14.713 20.585 14.7805C20.5175 14.7805 20.45 14.848 20.3825 14.9155C20.2475 14.983 20.18 15.0505 20.0451 15.118C19.9776 15.1855 19.9101 15.253 19.8426 15.253C19.7751 15.3205 19.6401 15.3879 19.5726 15.4554C19.5051 15.5229 19.4376 15.5904 19.3027 15.6579C19.2352 15.7254 19.1677 15.7929 19.1002 15.8604C19.0327 15.9279 18.8977 15.9954 18.8302 16.1304C18.7627 16.1978 18.6952 16.2653 18.6952 16.3328C18.1553 16.8728 17.6829 17.5477 17.2779 18.3576C17.1429 18.56 17.0754 18.7625 17.0079 18.965C16.468 20.2473 16.1305 21.7321 16.198 23.4869C16.198 23.5544 16.198 23.6219 16.198 23.6219C16.198 23.8919 16.198 24.0944 16.2655 24.3643C16.2655 24.4993 16.2655 24.6343 16.333 24.7693C16.333 24.9717 16.4005 25.1067 16.4005 25.3092C16.468 25.6467 16.5355 25.9841 16.603 26.3891C17.6829 30.9785 18.9652 32.4633 19.7751 34.0156C22.3398 34.1506 24.2295 34.2856 24.2295 30.1011C24.2295 26.1191 36.783 26.1191 36.783 30.1011C36.783 33.9481 38.4028 34.1506 40.6975 34.0831C41.2374 32.7333 41.9798 31.3834 42.4523 30.506C42.5198 30.3711 42.6547 30.1686 42.7222 29.9661C42.7222 29.9661 42.7222 29.8986 42.7897 29.8986C42.8572 29.6962 42.9922 29.4937 43.0597 29.2237C43.0597 29.1562 43.0597 29.1562 43.1272 29.0887C43.0597 28.6838 43.1272 28.4813 43.2622 28.2113Z" fill="url(#paint3_linear_59_1071)"/>
<path d="M44.0721 23.4871C44.0721 23.8245 44.0046 24.162 44.0046 24.4994V24.5669C43.9371 24.9044 43.8696 25.2419 43.8021 25.5793C43.6671 26.2542 43.4646 26.8616 43.2621 27.4691V27.5366C43.1947 27.8065 43.0597 28.0765 42.9922 28.279C42.9922 28.3465 42.9922 28.3465 42.9247 28.414C42.8572 28.6164 42.7222 28.8864 42.6547 29.0889C42.6547 29.0889 42.6547 29.1564 42.5872 29.1564C42.5197 29.3588 42.3848 29.5613 42.3173 29.6963C41.8448 30.5737 41.1024 31.991 40.5625 33.2733C38.3353 33.4083 36.648 33.1384 36.648 29.2913C36.648 25.3093 24.0945 25.3093 24.0945 29.2913C24.0945 33.4758 22.2048 33.4083 19.6401 33.2058C18.8302 31.6535 17.5479 30.1687 16.468 25.5793C16.4005 25.2419 16.333 24.9044 16.2655 24.4994C16.2655 24.297 16.198 24.162 16.198 23.9595C16.198 23.8245 16.1305 23.6895 16.1305 23.5546C16.1305 23.3521 16.1305 23.1496 16.063 22.9471C16.063 23.0821 16.063 23.1496 16.063 23.2846C16.063 23.3521 16.063 23.4196 16.063 23.4196C16.063 23.6895 16.0631 23.892 16.1305 24.162C16.1305 24.297 16.1305 24.432 16.198 24.5669C16.198 24.7694 16.2655 24.9044 16.2655 25.1069C16.333 25.4443 16.4005 25.7818 16.468 26.1867C17.5479 30.7762 18.8302 32.261 19.6401 33.8133C22.2048 33.9483 24.0945 34.0832 24.0945 29.8988C24.0945 25.9168 36.648 25.9168 36.648 29.8988C36.648 33.7458 38.2678 33.9483 40.5625 33.8808C41.1024 32.5309 41.8448 31.1811 42.3173 30.3037C42.3848 30.1687 42.5197 29.9663 42.5872 29.7638C42.5872 29.7638 42.5872 29.6963 42.6547 29.6963C42.7222 29.4938 42.8572 29.2914 42.9247 29.0214C42.9247 28.9539 42.9247 28.9539 42.9922 28.8864C43.0597 28.6164 43.1947 28.4139 43.2621 28.144V28.0765C43.4646 27.4691 43.6671 26.8616 43.8021 26.1867C43.8696 25.8493 43.9371 25.5118 44.0046 25.1744V25.1069C44.072 24.7694 44.0721 24.4319 44.0721 24.0945V24.027C44.0721 23.8245 44.0721 23.6221 44.0721 23.4871Z" fill="#C0DDE4"/>
<path d="M16.1305 23.757C16.198 22.2722 16.468 20.9899 16.9404 19.8425C17.0079 19.64 17.1429 19.4376 17.2104 19.2351C17.6153 18.4927 18.0878 17.8178 18.6277 17.2103C18.6952 17.1428 18.7627 17.0753 18.7627 17.0078C18.8302 16.9404 18.9652 16.8054 19.0327 16.7379C19.1001 16.6704 19.1676 16.6029 19.2351 16.5354C19.3026 16.4679 19.3701 16.4004 19.5051 16.3329C19.5726 16.2654 19.7076 16.198 19.7751 16.1305C19.8426 16.063 19.91 15.9955 19.9775 15.9955C20.1125 15.928 20.18 15.8605 20.315 15.793C20.3825 15.7255 20.45 15.7255 20.5175 15.658C20.7199 15.5905 20.8549 15.4555 21.0574 15.3881C24.027 14.0382 27.6716 16.8729 30.5062 16.8729C33.3409 16.8729 35.2981 15.2531 38.4702 15.3881C41.6423 15.523 43.2621 19.4375 43.8696 22.7446C43.937 23.0821 43.937 23.4195 44.0045 23.757V23.8245V23.892C44.0045 23.9595 44.0045 23.9595 44.0045 24.027C44.0045 23.6895 44.0045 23.3521 44.0045 22.9471V22.8796V22.8121C44.0045 22.4747 43.937 22.1372 43.8696 21.7998C43.2621 18.4927 41.6423 14.5782 38.4702 14.4432C35.2981 14.3082 33.3409 15.928 30.5062 15.928C27.6716 15.928 24.027 13.0259 21.0574 14.4432C20.8549 14.5107 20.7199 14.6456 20.5175 14.7131C20.45 14.7131 20.3825 14.7806 20.315 14.8481C20.18 14.9156 20.1125 14.9831 19.9775 15.0506C19.91 15.1181 19.8426 15.1856 19.7751 15.1856C19.7076 15.2531 19.5726 15.3206 19.5051 15.3881C19.4376 15.4555 19.3701 15.523 19.2351 15.5905C19.1676 15.658 19.1001 15.7255 19.0327 15.793C18.9652 15.8605 18.8302 15.928 18.7627 16.063C18.6952 16.1305 18.6277 16.198 18.6277 16.2655C18.0878 16.8054 17.6153 17.4803 17.2104 18.2902C17.0754 18.4927 17.0079 18.6951 16.9404 18.8976C16.4005 20.18 16.063 21.6648 16.1305 23.4195C16.1305 23.487 16.1305 23.5545 16.1305 23.5545C16.1305 23.622 16.1305 23.6895 16.1305 23.757Z" fill="#299FBB"/>
</g>
<defs>
<linearGradient id="paint0_linear_59_1071" x1="29.7102" y1="0.350619" x2="30.2396" y2="59.6376" gradientUnits="userSpaceOnUse">
<stop stop-color="#6D9CEC"/>
<stop offset="0.3133" stop-color="#5286DC"/>
<stop offset="0.7481" stop-color="#78A0DC"/>
<stop offset="1" stop-color="#7EA6DF"/>
</linearGradient>
<linearGradient id="paint1_linear_59_1071" x1="35.3856" y1="29.6745" x2="63.0243" y2="52.6202" gradientUnits="userSpaceOnUse">
<stop/>
<stop offset="1" stop-opacity="0.6"/>
</linearGradient>
<linearGradient id="paint2_linear_59_1071" x1="30.0898" y1="51.2355" x2="30.0898" y2="14.0704" gradientUnits="userSpaceOnUse">
<stop stop-color="#B9EAFA"/>
<stop offset="1" stop-color="#F5F9FA"/>
</linearGradient>
<linearGradient id="paint3_linear_59_1071" x1="30.0937" y1="33.986" x2="30.0937" y2="14.0703" gradientUnits="userSpaceOnUse">
<stop stop-color="#299FBB"/>
<stop offset="0.1867" stop-color="#3CAEC8"/>
<stop offset="0.4805" stop-color="#52C0D8"/>
<stop offset="0.758" stop-color="#60CBE2"/>
<stop offset="1" stop-color="#65CFE5"/>
</linearGradient>
<clipPath id="clip0_59_1071">
<rect width="60" height="60" rx="16" fill="white"/>
</clipPath>
</defs>
</svg>
