<svg width="60" height="60" viewBox="0 0 60 60" fill="none" xmlns="http://www.w3.org/2000/svg">
<g clip-path="url(#clip0_59_1052)">
<path d="M60 52.5759C60 56.6929 56.6254 60 52.5759 60H7.42407C3.30709 60 0 56.6254 0 52.5759V7.42407C0 3.30709 3.37458 0 7.42407 0H52.5759C56.6929 0 60 3.37458 60 7.42407V52.5759Z" fill="url(#paint0_linear_59_1052)"/>
<path d="M60 51.5635V25.6468L52.036 17.6828L51.3611 17.5478L41.6423 7.82898L42.4522 14.9831L41.9122 16.1979L33.8132 17.4803L26.7941 23.622L9.5163 42.0472L27.469 60H52.5759C56.6929 60 60 56.6254 60 52.5759V51.5635Z" fill="url(#paint1_linear_59_1052)" fill-opacity="0.1"/>
<path d="M33.3409 17.0078C33.6784 16.6704 34.4208 16.3329 34.8932 16.2654L41.17 15.793C41.6424 15.7255 42.0473 15.3205 42.0473 14.7806L41.6424 8.09893C41.6424 7.62649 41.6424 7.559 41.7099 8.09893L43.0597 15.9279C43.1272 16.4004 42.7897 16.8728 42.3173 16.9403L36.1756 17.4803C35.7031 17.5477 34.9607 17.8852 34.6233 18.2227L32.4635 20.3824C32.1261 20.7199 31.5187 20.7199 31.1812 20.3824C30.8437 20.0449 30.8437 19.505 31.1812 19.1001L33.3409 17.0078Z" fill="url(#paint2_linear_59_1052)"/>
<path d="M21.5974 49.6064L45.8944 25.3094L44.4095 23.7571L20.0451 48.054L21.5974 49.6064Z" fill="url(#paint3_linear_59_1052)"/>
<path d="M20.8549 52.1035C21.6648 52.1035 22.5422 51.7661 23.1497 51.1586L40.9674 33.3409C42.2498 32.0585 42.2498 30.0338 40.9674 28.7514C39.6851 27.4691 37.6603 27.4691 36.378 28.7514L18.5602 46.5692C17.2779 47.8515 17.2779 49.9438 18.5602 51.1586C19.1677 51.7661 19.9776 52.1035 20.8549 52.1035Z" fill="url(#paint4_linear_59_1052)"/>
<path d="M40.9674 29.3589C39.6851 28.0765 37.6603 28.0765 36.378 29.3589L18.5602 47.1766C18.0203 47.7166 17.6828 48.459 17.6153 49.2014C17.5478 48.2565 17.8178 47.3116 18.5602 46.5692L36.378 28.7514C37.6603 27.4691 39.6851 27.4691 40.9674 28.7514C41.7098 29.4938 41.9798 30.4387 41.9123 31.3836C41.7773 30.6412 41.5073 29.8988 40.9674 29.3589Z" fill="#4D4D4D"/>
<path d="M18.5602 50.1463C19.1676 50.7537 20.045 51.0912 20.8549 51.0912C21.6648 51.0912 22.5422 50.7537 23.1496 50.1463L40.9674 32.3285C41.4398 31.8561 41.7773 31.1811 41.8448 30.5062C41.9798 31.5186 41.7098 32.531 40.9674 33.3409L23.1496 51.1587C22.5422 51.7661 21.6648 52.1035 20.8549 52.1035C20.045 52.1035 19.1676 51.7661 18.5602 51.1587C17.8178 50.4162 17.4803 49.3364 17.6828 48.324C17.7503 48.9989 18.0203 49.6063 18.5602 50.1463Z" fill="#D1D1D1"/>
<g opacity="0.15">
<path d="M45.557 18.2902C47.1768 16.6704 49.8089 16.6704 51.4287 18.2902C53.0485 19.91 53.0485 22.5421 51.4287 24.1619C49.8089 25.7817 47.1768 25.7817 45.557 24.1619C43.9372 22.5421 43.9372 19.91 45.557 18.2902Z" fill="white"/>
</g>
<path d="M44.9494 17.6828C46.9067 15.7255 50.0788 15.7255 52.0361 17.6828C53.9933 19.64 53.9933 22.8121 52.0361 24.7694C50.0788 26.7267 46.9067 26.7267 44.9494 24.7694C42.9922 22.8121 42.9922 19.64 44.9494 17.6828ZM45.8269 18.5602C44.4095 19.9775 44.4095 22.3397 45.8269 23.8245C47.3117 25.2418 49.6064 25.3093 51.0912 23.8245C52.5085 22.4072 52.5085 20.045 51.0912 18.5602C49.6739 17.1429 47.3117 17.1429 45.8269 18.5602Z" fill="#E80000"/>
<path d="M51.8337 17.8853C49.9439 15.9955 46.8393 15.928 44.8821 17.8178C44.8821 17.7503 44.9496 17.7503 44.9496 17.6828C46.9068 15.7255 50.0789 15.7255 52.0362 17.6828C53.9934 19.64 53.9934 22.8121 52.0362 24.7694C51.9687 24.8369 51.9687 24.8369 51.9012 24.8369C53.791 22.8796 53.7235 19.775 51.8337 17.8853Z" fill="#D92929"/>
<path d="M45.6244 24.027C44.2071 22.6097 44.2071 20.2475 45.6244 18.7627C45.6244 18.6952 45.6919 18.6952 45.7594 18.6952C44.4096 20.18 44.4096 22.4072 45.8269 23.8246C47.2442 25.2419 49.5389 25.2419 50.9562 23.892C50.9562 23.9595 50.8887 23.9595 50.8887 24.027C49.4714 25.5118 47.1092 25.5118 45.6244 24.027Z" fill="#D92929"/>
<path d="M51.4286 18.2227C52.8459 19.64 52.9134 22.0022 51.4286 23.487C51.3611 23.5545 51.2936 23.622 51.2936 23.622C52.576 22.1372 52.5085 19.91 51.1586 18.5601C49.7413 17.1428 47.5141 17.1428 46.0968 18.4252C46.1643 18.3577 46.1643 18.2902 46.2318 18.2902C47.6491 16.8053 50.0113 16.8054 51.4286 18.2227Z" fill="#E4CDC0"/>
<path d="M45.2869 24.432C47.1767 26.3217 50.2138 26.3892 52.2386 24.567C52.1711 24.6345 52.1711 24.7019 52.1036 24.7019C50.1463 26.6592 46.9742 26.6592 45.017 24.7019C43.0597 22.7447 43.0597 19.5726 45.017 17.6153C45.0844 17.5478 45.1519 17.5478 45.1519 17.4803C43.3297 19.4376 43.3297 22.5422 45.2869 24.432Z" fill="#E4CDC0"/>
<path d="M11.8112 43.0597C12.6211 43.0597 13.4984 42.7222 14.1059 42.1148L31.9236 24.297C33.206 23.0147 33.206 20.9899 31.9236 19.7076C30.6413 18.4253 28.6166 18.4253 27.3342 19.7076L9.51644 37.5254C8.2341 38.8077 8.2341 40.9 9.51644 42.1148C10.1239 42.7222 10.9338 43.0597 11.8112 43.0597Z" fill="url(#paint5_linear_59_1052)"/>
<path d="M31.9237 20.315C30.6413 19.0327 28.6166 19.0327 27.3342 20.315L9.51647 38.1328C8.97653 38.6727 8.63907 39.4151 8.57158 40.1576C8.50409 39.2127 8.77406 38.2678 9.51647 37.5254L27.3342 19.7076C28.6166 18.4253 30.6413 18.4253 31.9237 19.7076C32.6661 20.45 32.936 21.3949 32.8685 22.3398C32.7336 21.5974 32.4636 20.855 31.9237 20.315Z" fill="#4D4D4D"/>
<path d="M9.51656 41.1024C10.124 41.7099 11.0014 42.0473 11.8113 42.0473C12.6212 42.0473 13.4986 41.7099 14.106 41.1024L31.9238 23.2847C32.3962 22.8122 32.7337 22.1373 32.8011 21.4624C32.9361 22.4748 32.6662 23.4871 31.9238 24.297L14.106 42.1148C13.4986 42.7222 12.6212 43.0597 11.8113 43.0597C11.0014 43.0597 10.124 42.7222 9.51656 42.1148C8.77415 41.3724 8.43669 40.2925 8.63917 39.2802C8.70666 39.9551 8.97663 40.5625 9.51656 41.1024Z" fill="#D1D1D1"/>
</g>
<defs>
<linearGradient id="paint0_linear_59_1052" x1="29.7434" y1="0.366817" x2="30.2728" y2="59.6541" gradientUnits="userSpaceOnUse">
<stop stop-color="#98B7C8"/>
<stop offset="0.3125" stop-color="#91B2CF"/>
<stop offset="0.649038" stop-color="#82A9DA"/>
<stop offset="1" stop-color="#82A9DA"/>
</linearGradient>
<linearGradient id="paint1_linear_59_1052" x1="25.1593" y1="24.2657" x2="58.2929" y2="57.3993" gradientUnits="userSpaceOnUse">
<stop/>
<stop offset="1" stop-opacity="0.6"/>
</linearGradient>
<linearGradient id="paint2_linear_59_1052" x1="36.9824" y1="20.6958" x2="36.9824" y2="7.79949" gradientUnits="userSpaceOnUse">
<stop stop-color="#424242"/>
<stop offset="0.0598671" stop-color="#484848"/>
<stop offset="0.4714" stop-color="#707070"/>
<stop offset="0.799" stop-color="#888888"/>
<stop offset="1" stop-color="#919191"/>
</linearGradient>
<linearGradient id="paint3_linear_59_1052" x1="45.9169" y1="36.6891" x2="20.0697" y2="36.6891" gradientUnits="userSpaceOnUse">
<stop stop-color="#424242"/>
<stop offset="0.0598671" stop-color="#484848"/>
<stop offset="0.4714" stop-color="#707070"/>
<stop offset="0.799" stop-color="#888888"/>
<stop offset="1" stop-color="#919191"/>
</linearGradient>
<linearGradient id="paint4_linear_59_1052" x1="29.7334" y1="52.1068" x2="29.7334" y2="27.7926" gradientUnits="userSpaceOnUse">
<stop stop-color="#424242"/>
<stop offset="0.0598671" stop-color="#484848"/>
<stop offset="0.4714" stop-color="#707070"/>
<stop offset="0.799" stop-color="#888888"/>
<stop offset="1" stop-color="#919191"/>
</linearGradient>
<linearGradient id="paint5_linear_59_1052" x1="20.6893" y1="43.0627" x2="20.6893" y2="18.749" gradientUnits="userSpaceOnUse">
<stop stop-color="#424242"/>
<stop offset="0.0598671" stop-color="#484848"/>
<stop offset="0.4714" stop-color="#707070"/>
<stop offset="0.799" stop-color="#888888"/>
<stop offset="1" stop-color="#919191"/>
</linearGradient>
<clipPath id="clip0_59_1052">
<rect width="60" height="60" rx="16" fill="white"/>
</clipPath>
</defs>
</svg>
