<svg width="60" height="60" viewBox="0 0 60 60" fill="none" xmlns="http://www.w3.org/2000/svg">
<g clip-path="url(#clip0_59_1004)">
<path d="M59.9326 52.5168C59.9326 56.6292 56.5618 59.9326 52.5169 59.9326H7.41576C3.3034 59.9326 3.05176e-05 56.5618 3.05176e-05 52.5168V7.41573C3.05176e-05 3.30337 3.37081 0 7.41576 0H52.5169C56.6292 0 59.9326 3.37079 59.9326 7.41573V52.5168Z" fill="url(#paint0_linear_59_1004)"/>
<path d="M53.3259 25.8203L42.809 33.5057L40.7865 30.2023L39.1011 28.5169L33.5056 30.0675L31.5506 31.0787L29.3259 28.854L22.1124 30.0001L20.4944 28.3821L15.9775 29.3933L15.1011 28.045L13.3483 26.2922L10.9888 31.7529L7.41574 33.6405L33.7753 60.0001H52.4495C56.5618 60.0001 59.8652 56.6293 59.8652 52.5844V51.5057V32.427L53.3259 25.8203Z" fill="url(#paint1_linear_59_1004)" fill-opacity="0.1"/>
<path d="M51.1012 29.4607C51.0337 29.5281 44.3596 33.7079 31.2135 33.7079H31.1461H31.0787C18 33.7079 11.2585 29.5281 11.1911 29.4607L10.854 30C10.9214 30.0674 17.7304 34.3146 31.0113 34.3146H31.0787H31.1461C44.427 34.3146 51.236 30.0674 51.3034 30L51.1012 29.4607Z" fill="#299FBB"/>
<path d="M10.9888 25.1461C14.0899 25.1461 15.236 29.1236 15.1012 31.8877C14.9663 34.6517 13.7529 33.9102 10.9888 33.9102C8.22477 33.9102 7.01129 34.6517 6.87646 31.8877C6.80904 29.1236 7.88769 25.1461 10.9888 25.1461Z" fill="url(#paint2_linear_59_1004)"/>
<path d="M11.0562 25.7529C13.8877 25.7529 15.0338 29.0562 15.1686 31.6854C15.236 28.9888 14.0899 25.1461 11.0562 25.1461C7.95511 25.1461 6.80904 29.1236 6.94387 31.8203C6.94387 29.1911 8.15735 25.7529 11.0562 25.7529Z" fill="white"/>
<path d="M15.1012 31.1461C15.1012 31.2135 15.1012 31.2135 15.1012 31.2809C14.9663 34.045 13.7528 33.3034 10.9888 33.3034C8.22474 33.3034 7.01127 34.045 6.87643 31.2809C6.87643 31.2135 6.87643 31.2135 6.87643 31.1461C6.87643 31.3484 6.87643 31.618 6.87643 31.8203C7.01127 34.5843 8.22474 33.8427 10.9888 33.8427C13.7528 33.8427 14.9663 34.5843 15.1012 31.8203C15.1012 31.618 15.1012 31.4158 15.1012 31.1461Z" fill="#C0DDE4"/>
<path d="M17.7303 26.8989C21.0337 26.8989 22.2472 31.1461 22.1124 34.045C21.9775 36.9439 20.6292 36.2023 17.7303 36.2023C14.8315 36.2023 13.4831 37.0113 13.3483 34.045C13.2135 31.1461 14.3595 26.8989 17.7303 26.8989Z" fill="url(#paint3_linear_59_1004)"/>
<path d="M17.7303 27.5057C20.764 27.5057 21.9775 31.0113 22.1124 33.8427C22.1798 30.9439 20.9663 26.8989 17.7303 26.8989C14.427 26.8989 13.2135 31.0787 13.3483 34.045C13.3483 31.2135 14.6292 27.5057 17.7303 27.5057Z" fill="white"/>
<path d="M22.1124 33.3707C22.1124 33.4381 22.1124 33.5056 22.1124 33.5056C21.9775 36.4044 20.6292 35.6629 17.7304 35.6629C14.8315 35.6629 13.4832 36.4718 13.3483 33.5056C13.3483 33.4381 13.3483 33.4381 13.3483 33.3707C13.3483 33.6404 13.3483 33.8426 13.3483 34.1123C13.4832 37.0112 14.8315 36.2696 17.7304 36.2696C20.6292 36.2696 21.9775 37.0786 22.1124 34.1123C22.1124 33.8426 22.1124 33.6404 22.1124 33.3707Z" fill="#C0DDE4"/>
<path d="M51.236 25.1461C48.1348 25.1461 46.9888 29.1236 47.1236 31.8877C47.2584 34.6517 48.4719 33.9102 51.236 33.9102C54 33.9102 55.2135 34.6517 55.3483 31.8877C55.4832 29.1236 54.3371 25.1461 51.236 25.1461Z" fill="url(#paint4_linear_59_1004)"/>
<path d="M51.236 25.7529C54.0674 25.7529 55.2135 29.0562 55.3483 31.6854C55.4157 28.9888 54.2697 25.1461 51.236 25.1461C48.1348 25.1461 46.9888 29.1236 47.1236 31.8203C47.191 29.1911 48.3371 25.7529 51.236 25.7529Z" fill="white"/>
<path d="M55.3483 31.1461C55.3483 31.2135 55.3483 31.2135 55.3483 31.2809C55.2135 34.045 54 33.3034 51.2359 33.3034C48.4719 33.3034 47.2584 34.045 47.1236 31.2809C47.1236 31.2135 47.1236 31.2135 47.1236 31.1461C47.1236 31.4158 47.1236 31.618 47.1236 31.8203C47.2584 34.5843 48.4719 33.8427 51.2359 33.8427C54 33.8427 55.2135 34.5843 55.3483 31.8203C55.3483 31.618 55.3483 31.4158 55.3483 31.1461Z" fill="#C0DDE4"/>
<path d="M44.5618 26.8989C41.2585 26.8989 40.045 31.1461 40.1798 34.045C40.3147 36.9439 41.663 36.2023 44.5618 36.2023C47.4607 36.2023 48.809 37.0113 48.9439 34.045C49.0787 31.1461 47.8652 26.8989 44.5618 26.8989Z" fill="url(#paint5_linear_59_1004)"/>
<path d="M44.5618 27.5057C47.5956 27.5057 48.809 31.0113 48.9439 33.8427C49.0113 30.9439 47.7978 26.8989 44.5618 26.8989C41.2585 26.8989 40.045 31.0787 40.1798 34.045C40.2472 31.2135 41.4607 27.5057 44.5618 27.5057Z" fill="white"/>
<path d="M48.9439 33.3707C48.9439 33.4381 48.9439 33.5056 48.9439 33.5056C48.8091 36.4044 47.4607 35.6629 44.5619 35.6629C41.663 35.6629 40.3147 36.4718 40.1798 33.5056C40.1798 33.4381 40.1798 33.4381 40.1798 33.3707C40.1798 33.6404 40.1798 33.8426 40.1798 34.1123C40.3147 37.0112 41.663 36.2696 44.5619 36.2696C47.4607 36.2696 48.8091 37.0786 48.9439 34.1123C48.9439 33.8426 48.9439 33.6404 48.9439 33.3707Z" fill="#C0DDE4"/>
<path d="M26.1573 27.236C22.1798 27.236 20.6966 32.3596 20.8989 35.8652C21.0337 39.3708 22.6517 38.7641 26.1573 38.7641C29.6629 38.7641 31.2809 39.3708 31.4157 35.8652C31.618 32.3596 30.2022 27.236 26.1573 27.236Z" fill="url(#paint6_linear_59_1004)"/>
<path d="M36.0675 27.236C32.0899 27.236 30.6068 32.3596 30.809 35.8652C30.9439 39.3708 32.5618 38.7641 36.0675 38.7641C39.5731 38.7641 41.1911 39.3708 41.3259 35.8652C41.5281 32.3596 40.1124 27.236 36.0675 27.236Z" fill="url(#paint7_linear_59_1004)"/>
<path d="M26.1573 38.2247C22.6517 38.2247 21.0337 38.8314 20.8989 35.3258C20.8989 35.2584 20.8989 35.1236 20.8989 35.0562C20.8989 35.3258 20.8989 35.5955 20.8989 35.8651C21.0337 39.3708 22.6517 38.764 26.1573 38.764C28.9213 38.764 30.4719 39.1685 31.1461 37.618C31.0786 37.4831 31.0786 37.4157 31.0112 37.2809C30.3371 38.5618 28.7865 38.2247 26.1573 38.2247Z" fill="#C0DDE4"/>
<path d="M41.3932 35.3258C41.2584 38.8314 39.6404 38.2247 36.1348 38.2247C33.573 38.2247 32.0225 38.5618 31.2809 37.3483C31.2135 37.4831 31.2135 37.5505 31.1461 37.6854C31.7528 39.1685 33.3708 38.8314 36.1348 38.8314C39.6404 38.8314 41.2584 39.4382 41.3932 35.9326C41.3932 35.6629 41.3932 35.3932 41.3932 35.0562C41.3932 35.1236 41.3932 35.191 41.3932 35.3258Z" fill="#C0DDE4"/>
<path d="M31.146 37.0786C31.0786 37.146 31.0786 37.2809 31.0112 37.3483C31.0786 37.4831 31.0786 37.5505 31.146 37.6854C31.2135 37.5505 31.2135 37.4831 31.2809 37.3483C31.2135 37.2134 31.146 37.146 31.146 37.0786Z" fill="#C0DDE4"/>
<path d="M26.1574 27.236C22.2472 27.236 20.7641 32.2247 20.8989 35.7303C20.9663 32.2921 22.4495 27.8427 26.1574 27.8427C28.854 27.8427 30.4046 30.2023 31.0113 32.764C31.0113 32.6292 31.0787 32.5618 31.0787 32.427C30.5394 29.7303 28.9888 27.236 26.1574 27.236Z" fill="white"/>
<path d="M36.0674 27.236C33.236 27.236 31.7528 29.7303 31.0787 32.4944C31.0787 32.6292 31.1461 32.6966 31.1461 32.8315C31.8203 30.2023 33.3034 27.9101 36.0674 27.9101C39.7079 27.9101 41.2584 32.1573 41.3259 35.5955C41.4607 32.0899 39.9775 27.236 36.0674 27.236Z" fill="white"/>
<path d="M31.0787 32.7641C31.0787 32.8315 31.1461 32.9663 31.1461 33.0337C31.1461 32.9663 31.2135 32.8315 31.2135 32.7641C31.2135 32.6292 31.1461 32.5618 31.1461 32.427C31.0787 32.5618 31.0787 32.6967 31.0787 32.7641Z" fill="white"/>
<path d="M31.0787 32.7641C31.0787 32.8315 31.1461 32.9663 31.1461 33.0337C31.1461 32.9663 31.2135 32.8315 31.2135 32.7641C31.2135 32.6292 31.1461 32.5618 31.1461 32.427C31.0787 32.5618 31.0787 32.6967 31.0787 32.7641Z" fill="white"/>
<path d="M51.1011 29.4607C51.0337 29.5281 44.3596 33.7079 31.2135 33.7079H31.1461H31.0787C18 33.7079 11.2584 29.5281 11.191 29.4607L10.8539 30C10.9214 30.0674 17.7303 34.3146 31.0112 34.3146H31.0787H31.1461C44.427 34.3146 51.236 30.0674 51.3034 30L51.1011 29.4607Z" fill="#299FBB"/>
<path d="M31.2135 34.1799H31.1461H31.0787C18.2697 34.1799 11.4607 30.2024 10.9214 29.9327L10.8539 30.0002C10.9214 30.0676 17.7303 34.3148 31.0112 34.3148H31.0787H31.1461C44.427 34.3148 51.236 30.0676 51.3034 30.0002L51.236 29.9327C50.8315 30.2024 44.0225 34.1799 31.2135 34.1799Z" fill="#C0DDE4"/>
<path d="M50.9663 29.663L51.236 30.0675C51.3034 30.0001 51.4382 30.0001 51.4382 29.9326L51.1012 29.3933C51.0338 29.4607 44.3596 33.6405 31.2135 33.6405H31.1461V33.8428C44.2248 33.8428 50.8989 29.7304 50.9663 29.663Z" fill="#299FBB"/>
<path d="M11.0562 29.6629C11.1236 29.7304 17.7978 33.9101 30.9438 33.9101H31.0112H31.0787V33.7079H31.0112C17.9326 33.7079 11.191 29.5281 11.1236 29.4607L10.7865 30L11.0562 29.6629Z" fill="#299FBB"/>
<path d="M37.5506 34.3821C37.5506 34.9214 37.0786 35.3933 36.5393 35.3933H35.7303C35.191 35.3933 34.7191 34.9214 34.7191 34.3821V33.6405C34.7191 33.1012 35.191 32.6293 35.7303 32.6293H36.5393C37.0786 32.6293 37.5506 33.1012 37.5506 33.6405V34.3821Z" fill="url(#paint8_linear_59_1004)"/>
<path d="M45.7079 32.427C45.7079 32.8989 45.3708 33.236 44.8989 33.236H44.2247C43.7528 33.236 43.4157 32.8989 43.4157 32.427V31.8202C43.4157 31.3483 43.7528 31.0112 44.2247 31.0112H44.8989C45.3708 31.0112 45.7079 31.3483 45.7079 31.8202V32.427Z" fill="url(#paint9_linear_59_1004)"/>
<path d="M52.2472 30C52.2472 30.4045 51.9101 30.7416 51.5056 30.7416H50.9663C50.5618 30.7416 50.2247 30.4045 50.2247 30V29.4607C50.2247 29.0562 50.5618 28.7191 50.9663 28.7191H51.573C51.9775 28.7191 52.3146 29.0562 52.3146 29.4607V30H52.2472Z" fill="url(#paint10_linear_59_1004)"/>
<path d="M16.5168 32.427C16.5168 32.8989 16.8539 33.236 17.3258 33.236H18C18.4719 33.236 18.809 32.8989 18.809 32.427V31.8202C18.809 31.3483 18.4719 31.0112 18 31.0112H17.3258C16.8539 31.0112 16.5168 31.3483 16.5168 31.8202V32.427Z" fill="url(#paint11_linear_59_1004)"/>
<path d="M9.97754 30C9.97754 30.4045 10.3146 30.7416 10.7191 30.7416H11.3259C11.7303 30.7416 12.0674 30.4045 12.0674 30V29.4607C12.0674 29.0562 11.7303 28.7191 11.3259 28.7191H10.7191C10.3146 28.7191 9.97754 29.0562 9.97754 29.4607V30Z" fill="url(#paint12_linear_59_1004)"/>
<path d="M36.4719 32.5619H35.6629C35.1236 32.5619 34.6517 33.0338 34.6517 33.5731V33.9776C34.6517 33.4383 35.1236 32.9664 35.6629 32.9664H36.4719C37.0112 32.9664 37.4831 33.4383 37.4831 33.9776V34.3147V33.5731C37.5505 33.0338 37.0786 32.5619 36.4719 32.5619Z" fill="#299FBB"/>
<path d="M24.7416 34.3821C24.7416 34.9214 25.2135 35.3933 25.7528 35.3933H26.5618C27.1012 35.3933 27.5731 34.9214 27.5731 34.3821V33.6405C27.5731 33.1012 27.1012 32.6293 26.5618 32.6293H25.7528C25.2135 32.6293 24.7416 33.1012 24.7416 33.6405V34.3821Z" fill="url(#paint13_linear_59_1004)"/>
<path d="M25.7528 32.5619H26.5618C27.1012 32.5619 27.5731 33.0338 27.5731 33.5731V33.9776C27.5731 33.4383 27.1012 32.9664 26.5618 32.9664H25.7528C25.2135 32.9664 24.7416 33.4383 24.7416 33.9776V34.3147V33.5731C24.7416 33.0338 25.2135 32.5619 25.7528 32.5619Z" fill="#299FBB"/>
<path d="M44.8989 31.0112H44.2247C43.7528 31.0112 43.4157 31.3483 43.4157 31.8202V32.2247C43.4157 31.7528 43.7528 31.4157 44.2247 31.4157H44.8989C45.3708 31.4157 45.7079 31.7528 45.7079 32.2247V32.427V31.8202C45.7079 31.4157 45.3708 31.0112 44.8989 31.0112Z" fill="#299FBB"/>
<path d="M51.5056 28.7191H50.9663C50.5618 28.7191 50.2247 29.0562 50.2247 29.4607V29.8652C50.2247 29.4607 50.5618 29.1236 50.9663 29.1236H51.573C51.9775 29.1236 52.3146 29.4607 52.3146 29.8652V30V29.4607C52.2472 29.0562 51.9101 28.7191 51.5056 28.7191Z" fill="#299FBB"/>
<path d="M18 31.0112H17.3258C16.8539 31.0112 16.5168 31.3483 16.5168 31.8202V32.2247C16.5168 31.7528 16.8539 31.4157 17.3258 31.4157H18C18.4719 31.4157 18.809 31.7528 18.809 32.2247V32.427V31.8202C18.8764 31.4157 18.4719 31.0112 18 31.0112Z" fill="#299FBB"/>
<path d="M11.3259 28.7191H10.7191C10.3146 28.7191 9.97754 29.0562 9.97754 29.4607V29.8652C9.97754 29.4607 10.3146 29.1236 10.7191 29.1236H11.3259C11.7303 29.1236 12.0674 29.4607 12.0674 29.8652V30V29.4607C12 29.0562 11.7303 28.7191 11.3259 28.7191Z" fill="#299FBB"/>
<path d="M36.4719 34.9888H35.6629C35.1236 34.9888 34.6517 34.5169 34.6517 33.9775V34.382C34.6517 34.9214 35.1236 35.3933 35.6629 35.3933H36.4719C37.0112 35.3933 37.4831 34.9214 37.4831 34.382V33.9775C37.5505 34.5169 37.0786 34.9888 36.4719 34.9888Z" fill="#C0DDE4"/>
<path d="M44.8989 32.899H44.2247C43.7528 32.899 43.4157 32.5619 43.4157 32.09V32.4945C43.4157 32.9664 43.7528 33.3035 44.2247 33.3035H44.8989C45.3708 33.3035 45.7079 32.9664 45.7079 32.4945V32.09C45.7079 32.4945 45.3708 32.899 44.8989 32.899Z" fill="#C0DDE4"/>
<path d="M51.5056 30.3372H50.9663C50.5618 30.3372 50.2247 30.0001 50.2247 29.5956V30.0001C50.2247 30.4046 50.5618 30.7416 50.9663 30.7416H51.573C51.9775 30.7416 52.3146 30.4046 52.3146 30.0001V29.5956C52.2472 30.0001 51.9101 30.3372 51.5056 30.3372Z" fill="#C0DDE4"/>
<path d="M26.5618 34.9888H25.7528C25.2135 34.9888 24.7416 34.5169 24.7416 33.9775V34.382C24.7416 34.9214 25.2135 35.3933 25.7528 35.3933H26.5618C27.1012 35.3933 27.5731 34.9214 27.5731 34.382V33.9775C27.6405 34.5169 27.1686 34.9888 26.5618 34.9888Z" fill="#C0DDE4"/>
<path d="M18 32.899H17.3258C16.8539 32.899 16.5168 32.5619 16.5168 32.09V32.4945C16.5168 32.9664 16.8539 33.3035 17.3258 33.3035H18C18.4719 33.3035 18.809 32.9664 18.809 32.4945V32.09C18.8764 32.4945 18.4719 32.899 18 32.899Z" fill="#C0DDE4"/>
<path d="M11.3259 30.3372H10.7191C10.3146 30.3372 9.97754 30.0001 9.97754 29.5956V30.0001C9.97754 30.4046 10.3146 30.7416 10.7191 30.7416H11.3259C11.7303 30.7416 12.0674 30.4046 12.0674 30.0001V29.5956C12 30.0001 11.7303 30.3372 11.3259 30.3372Z" fill="#C0DDE4"/>
</g>
<defs>
<linearGradient id="paint0_linear_59_1004" x1="29.6768" y1="0.350225" x2="30.2057" y2="59.5706" gradientUnits="userSpaceOnUse">
<stop stop-color="#6D9CEC"/>
<stop offset="0.3133" stop-color="#5286DC"/>
<stop offset="0.7481" stop-color="#78A0DC"/>
<stop offset="1" stop-color="#7EA6DF"/>
</linearGradient>
<linearGradient id="paint1_linear_59_1004" x1="23.6678" y1="36.5888" x2="43.2559" y2="67.6516" gradientUnits="userSpaceOnUse">
<stop/>
<stop offset="1" stop-opacity="0.6"/>
</linearGradient>
<linearGradient id="paint2_linear_59_1004" x1="11.0202" y1="33.9423" x2="11.0202" y2="25.1448" gradientUnits="userSpaceOnUse">
<stop stop-color="#CEEFFA"/>
<stop offset="0.0907692" stop-color="#D7F1FA"/>
<stop offset="0.3251" stop-color="#E8F6FA"/>
<stop offset="0.5811" stop-color="#F2F8FA"/>
<stop offset="0.897" stop-color="#F5F9FA"/>
</linearGradient>
<linearGradient id="paint3_linear_59_1004" x1="17.6982" y1="36.3199" x2="17.6982" y2="26.9254" gradientUnits="userSpaceOnUse">
<stop stop-color="#CEEFFA"/>
<stop offset="0.0907692" stop-color="#D7F1FA"/>
<stop offset="0.3251" stop-color="#E8F6FA"/>
<stop offset="0.5811" stop-color="#F2F8FA"/>
<stop offset="0.897" stop-color="#F5F9FA"/>
</linearGradient>
<linearGradient id="paint4_linear_59_1004" x1="51.2426" y1="33.9423" x2="51.2426" y2="25.1448" gradientUnits="userSpaceOnUse">
<stop stop-color="#CEEFFA"/>
<stop offset="0.0907692" stop-color="#D7F1FA"/>
<stop offset="0.3251" stop-color="#E8F6FA"/>
<stop offset="0.5811" stop-color="#F2F8FA"/>
<stop offset="0.897" stop-color="#F5F9FA"/>
</linearGradient>
<linearGradient id="paint5_linear_59_1004" x1="44.5645" y1="36.3199" x2="44.5645" y2="26.9254" gradientUnits="userSpaceOnUse">
<stop stop-color="#CEEFFA"/>
<stop offset="0.0907692" stop-color="#D7F1FA"/>
<stop offset="0.3251" stop-color="#E8F6FA"/>
<stop offset="0.5811" stop-color="#F2F8FA"/>
<stop offset="0.897" stop-color="#F5F9FA"/>
</linearGradient>
<linearGradient id="paint6_linear_59_1004" x1="26.1737" y1="38.8187" x2="26.1737" y2="27.245" gradientUnits="userSpaceOnUse">
<stop stop-color="#CEEFFA"/>
<stop offset="0.0907692" stop-color="#D7F1FA"/>
<stop offset="0.3251" stop-color="#E8F6FA"/>
<stop offset="0.5811" stop-color="#F2F8FA"/>
<stop offset="0.897" stop-color="#F5F9FA"/>
</linearGradient>
<linearGradient id="paint7_linear_59_1004" x1="36.089" y1="38.8187" x2="36.089" y2="27.245" gradientUnits="userSpaceOnUse">
<stop stop-color="#CEEFFA"/>
<stop offset="0.0907692" stop-color="#D7F1FA"/>
<stop offset="0.3251" stop-color="#E8F6FA"/>
<stop offset="0.5811" stop-color="#F2F8FA"/>
<stop offset="0.897" stop-color="#F5F9FA"/>
</linearGradient>
<linearGradient id="paint8_linear_59_1004" x1="36.0765" y1="32.6165" x2="36.101" y2="35.3608" gradientUnits="userSpaceOnUse">
<stop stop-color="#65CFE5"/>
<stop offset="0.010029" stop-color="#64CEE4"/>
<stop offset="0.2403" stop-color="#4AB9D2"/>
<stop offset="0.4781" stop-color="#38ABC5"/>
<stop offset="0.726" stop-color="#2DA2BE"/>
<stop offset="1" stop-color="#299FBB"/>
</linearGradient>
<linearGradient id="paint9_linear_59_1004" x1="44.5549" y1="31.044" x2="44.5746" y2="33.2511" gradientUnits="userSpaceOnUse">
<stop stop-color="#65CFE5"/>
<stop offset="0.010029" stop-color="#64CEE4"/>
<stop offset="0.2403" stop-color="#4AB9D2"/>
<stop offset="0.4781" stop-color="#38ABC5"/>
<stop offset="0.726" stop-color="#2DA2BE"/>
<stop offset="1" stop-color="#299FBB"/>
</linearGradient>
<linearGradient id="paint10_linear_59_1004" x1="51.2338" y1="28.757" x2="51.2511" y2="30.6958" gradientUnits="userSpaceOnUse">
<stop stop-color="#65CFE5"/>
<stop offset="0.010029" stop-color="#64CEE4"/>
<stop offset="0.2403" stop-color="#4AB9D2"/>
<stop offset="0.4781" stop-color="#38ABC5"/>
<stop offset="0.726" stop-color="#2DA2BE"/>
<stop offset="1" stop-color="#299FBB"/>
</linearGradient>
<linearGradient id="paint11_linear_59_1004" x1="17.7077" y1="31.044" x2="17.688" y2="33.2511" gradientUnits="userSpaceOnUse">
<stop stop-color="#65CFE5"/>
<stop offset="0.010029" stop-color="#64CEE4"/>
<stop offset="0.2403" stop-color="#4AB9D2"/>
<stop offset="0.4781" stop-color="#38ABC5"/>
<stop offset="0.726" stop-color="#2DA2BE"/>
<stop offset="1" stop-color="#299FBB"/>
</linearGradient>
<linearGradient id="paint12_linear_59_1004" x1="11.0288" y1="28.757" x2="11.0116" y2="30.6958" gradientUnits="userSpaceOnUse">
<stop stop-color="#65CFE5"/>
<stop offset="0.010029" stop-color="#64CEE4"/>
<stop offset="0.2403" stop-color="#4AB9D2"/>
<stop offset="0.4781" stop-color="#38ABC5"/>
<stop offset="0.726" stop-color="#2DA2BE"/>
<stop offset="1" stop-color="#299FBB"/>
</linearGradient>
<linearGradient id="paint13_linear_59_1004" x1="26.1949" y1="32.6165" x2="26.1704" y2="35.3608" gradientUnits="userSpaceOnUse">
<stop stop-color="#65CFE5"/>
<stop offset="0.010029" stop-color="#64CEE4"/>
<stop offset="0.2403" stop-color="#4AB9D2"/>
<stop offset="0.4781" stop-color="#38ABC5"/>
<stop offset="0.726" stop-color="#2DA2BE"/>
<stop offset="1" stop-color="#299FBB"/>
</linearGradient>
<clipPath id="clip0_59_1004">
<rect width="59.9326" height="60.0001" rx="16" fill="white"/>
</clipPath>
</defs>
</svg>
