<svg width="60" height="60" viewBox="0 0 60 60" fill="none" xmlns="http://www.w3.org/2000/svg">
<g clip-path="url(#clip0_59_946)">
<path d="M60 52.5759C60 56.6929 56.6254 60 52.5759 60H7.42407C3.30709 60 0 56.6254 0 52.5759V7.42407C0 3.30709 3.37458 0 7.42407 0H52.5759C56.6929 0 60 3.37458 60 7.42407V52.5759Z" fill="url(#paint0_linear_59_946)"/>
<path d="M60 52.576V51.4961V39.4152L37.0529 16.468L24.0945 25.5794L19.5051 29.9663V48.0541L31.3836 59.9326H52.576C56.6254 60.0001 60 56.6255 60 52.576Z" fill="url(#paint1_linear_59_946)" fill-opacity="0.1"/>
<path d="M20.18 48.3916C21.8673 48.594 22.2048 43.3297 22.0698 41.2375C21.9348 39.0778 22.3398 32.8685 24.162 32.8685C26.0518 32.8685 26.3892 35.9056 26.5242 38.2004C26.6592 40.4276 26.6592 48.4591 28.7515 48.4591C30.8437 48.4591 31.1137 44.2746 31.7886 42.2499C32.531 40.0226 32.8684 37.053 32.8684 35.7707C32.8684 34.4208 34.3533 31.5187 35.0957 30.0339C35.9056 28.5491 37.1204 25.377 36.5805 22.4748C36.0405 19.5727 34.5557 16.1306 31.7886 15.9956C29.0214 15.8606 27.2666 17.3454 24.7694 17.3454C22.2723 17.3454 19.0327 14.7808 16.4005 15.9956C13.7683 17.2105 10.9337 20.9225 12.2835 26.5243C13.6333 32.1261 15.2531 32.4636 15.6581 35.0282C16.063 37.5254 16.6705 41.035 17.4804 43.3972C18.2903 45.5569 18.2228 48.1216 20.18 48.3916Z" fill="url(#paint2_linear_59_946)"/>
<path d="M20.1801 47.3791C18.1553 47.1091 18.2903 44.6119 17.5479 42.1822C16.738 39.82 16.1306 36.3105 15.7256 33.8133C15.3207 31.3161 13.7009 30.9112 12.351 25.3094C12.1486 24.4995 12.0811 23.7571 12.0136 23.0146C11.9461 24.027 12.0811 25.1069 12.351 26.2542C13.7009 31.856 15.3207 32.1935 15.7256 34.7582C16.1306 37.2554 16.738 40.7649 17.5479 43.1271C18.3578 45.4893 18.2228 48.054 20.1801 48.324C21.7324 48.5265 22.1373 44.072 22.0698 41.7098C22.0023 44.207 21.5299 47.5816 20.1801 47.3791Z" fill="#C0DDE4"/>
<path d="M35.1632 28.954C34.3533 30.4388 32.9359 33.3409 32.9359 34.6907C32.9359 36.0406 32.5985 38.9427 31.8561 41.1699C31.1812 43.1947 30.9112 47.3792 28.819 47.3792C26.7267 47.3792 26.7267 39.4152 26.5917 37.1204C26.4568 34.8932 26.0518 31.7886 24.2295 31.7886C22.4748 31.7886 22.0023 37.3229 22.0698 39.7526C22.1373 37.053 22.6772 32.7335 24.2295 32.7335C26.1193 32.7335 26.4568 35.7706 26.5917 38.0653C26.7267 40.2925 26.7267 48.3241 28.819 48.3241C30.9112 48.3241 31.1812 44.1396 31.8561 42.1148C32.5985 39.8876 32.9359 36.918 32.9359 35.6356C32.9359 34.2858 34.4208 31.3837 35.1632 29.8988C35.8381 28.6165 36.8505 25.9843 36.7155 23.3522C36.648 25.6469 35.8381 27.8066 35.1632 28.954Z" fill="#C0DDE4"/>
<path d="M16.468 16.6705C19.1002 15.4556 22.3398 18.0203 24.8369 18.0203C27.3341 18.0203 29.0889 16.5355 31.8561 16.6705C34.6232 16.8055 36.108 20.2475 36.648 23.1497C36.7155 23.4871 36.783 23.8921 36.783 24.2295C36.783 23.5546 36.783 22.9472 36.648 22.2723C36.108 19.3702 34.6232 15.9281 31.8561 15.7931C29.0889 15.6581 27.3341 17.1429 24.8369 17.1429C22.3398 17.1429 19.1002 14.5783 16.468 15.7931C14.2408 16.8055 11.8786 19.6401 12.0136 23.8921C12.216 20.1801 14.3758 17.6154 16.468 16.6705Z" fill="white"/>
<path d="M20.18 48.3916C21.8673 48.594 22.2048 43.3297 22.0698 41.2375C21.9348 39.0778 22.3398 32.8685 24.162 32.8685C26.0518 32.8685 26.3892 35.9056 26.5242 38.2004C26.6592 40.4276 26.6592 48.4591 28.7515 48.4591C30.8437 48.4591 31.1137 44.2746 31.7886 42.2499C32.531 40.0226 32.8684 37.053 32.8684 35.7707C32.8684 34.4208 34.3533 31.5187 35.0957 30.0339C35.9056 28.5491 37.1204 25.377 36.5805 22.4748C36.0405 19.5727 34.5557 16.1306 31.7886 15.9956C29.0214 15.8606 27.2666 17.3454 24.7694 17.3454C22.2723 17.3454 19.0327 14.7808 16.4005 15.9956C13.7683 17.2105 10.9337 20.9225 12.2835 26.5243C13.6333 32.1261 15.2531 32.4636 15.6581 35.0282C16.063 37.5254 16.6705 41.035 17.4804 43.3972C18.2903 45.5569 18.2228 48.1216 20.18 48.3916Z" fill="url(#paint3_linear_59_946)"/>
<path d="M20.1801 47.3791C18.1553 47.1091 18.2903 44.6119 17.5479 42.1822C16.738 39.82 16.1306 36.3105 15.7256 33.8133C15.3207 31.3161 13.7009 30.9112 12.351 25.3094C12.1486 24.4995 12.0811 23.7571 12.0136 23.0146C11.9461 24.027 12.0811 25.1069 12.351 26.2542C13.7009 31.856 15.3207 32.1935 15.7256 34.7582C16.1306 37.2554 16.738 40.7649 17.5479 43.1271C18.3578 45.4893 18.2228 48.054 20.1801 48.324C21.7324 48.5265 22.1373 44.072 22.0698 41.7098C22.0023 44.207 21.5299 47.5816 20.1801 47.3791Z" fill="#C0DDE4"/>
<path d="M35.1632 28.954C34.3533 30.4388 32.9359 33.3409 32.9359 34.6907C32.9359 36.0406 32.5985 38.9427 31.8561 41.1699C31.1812 43.1947 30.9112 47.3792 28.819 47.3792C26.7267 47.3792 26.7267 39.4152 26.5917 37.1204C26.4568 34.8932 26.0518 31.7886 24.2295 31.7886C22.4748 31.7886 22.0023 37.3229 22.0698 39.7526C22.1373 37.053 22.6772 32.7335 24.2295 32.7335C26.1193 32.7335 26.4568 35.7706 26.5917 38.0653C26.7267 40.2925 26.7267 48.3241 28.819 48.3241C30.9112 48.3241 31.1812 44.1396 31.8561 42.1148C32.5985 39.8876 32.9359 36.918 32.9359 35.6356C32.9359 34.2858 34.4208 31.3837 35.1632 29.8988C35.8381 28.6165 36.8505 25.9843 36.7155 23.3522C36.648 25.6469 35.8381 27.8066 35.1632 28.954Z" fill="#C0DDE4"/>
<path d="M16.468 16.6705C19.1002 15.4556 22.3398 18.0203 24.8369 18.0203C27.3341 18.0203 29.0889 16.5355 31.8561 16.6705C34.6232 16.8055 36.108 20.2475 36.648 23.1497C36.7155 23.4871 36.783 23.8921 36.783 24.2295C36.783 23.5546 36.783 22.9472 36.648 22.2723C36.108 19.3702 34.6232 15.9281 31.8561 15.7931C29.0889 15.6581 27.3341 17.1429 24.8369 17.1429C22.3398 17.1429 19.1002 14.5783 16.468 15.7931C14.2408 16.8055 11.8786 19.6401 12.0136 23.8921C12.216 20.1801 14.3758 17.6154 16.468 16.6705Z" fill="white"/>
<path d="M32.8009 25.5793C32.531 25.9843 32.126 26.1868 31.6536 26.2543C31.4511 26.2543 31.1811 26.2543 30.9787 26.1868C30.8437 26.1868 30.7087 26.1868 30.5737 26.1868C30.5737 25.9843 30.5737 25.7143 30.6412 25.5119C30.7087 25.1744 30.9112 24.9719 31.1811 24.702C31.4511 24.432 31.5861 24.0945 31.5861 23.7571C31.5861 23.4196 31.5861 23.0822 31.4511 22.7447C31.5186 23.0822 31.5186 23.4196 31.4511 23.7571C31.3836 24.0945 31.2486 24.432 31.0462 24.567C30.7762 24.7694 30.5062 25.0394 30.3712 25.3769C30.2363 25.6468 30.2362 25.9168 30.1688 26.1868C29.8988 26.2543 29.6288 26.3217 29.3589 26.4567C29.4264 26.2543 29.4938 25.9843 29.5613 25.7818C29.6963 25.2419 29.6288 24.702 29.4264 24.162C29.2914 23.7571 29.2914 23.2846 29.3589 22.8797C29.4264 22.6772 29.4938 22.4747 29.5613 22.2723C29.6963 22.0698 29.7638 21.7998 29.7638 21.5973C29.8988 20.6525 29.8988 19.7076 29.8313 18.7627C29.8313 19.7076 29.7638 20.6525 29.4938 21.5299C29.4264 21.7323 29.3589 22.0023 29.2239 22.1373C29.0889 22.3397 28.9539 22.6097 28.8864 22.8122C28.8189 23.0147 28.8189 23.2171 28.8189 23.4196C28.7514 23.3521 28.7514 23.2846 28.684 23.2171C28.4815 23.0147 28.3465 22.7447 28.2115 22.5422C27.6041 21.5973 27.1317 20.5175 26.7267 19.4376C26.9967 20.585 27.4016 21.6648 27.9415 22.7447C28.0765 23.0147 28.279 23.2846 28.414 23.4871C28.6165 23.6896 28.7514 23.9595 28.8864 24.162C28.8864 24.2295 28.8864 24.2295 28.9539 24.297C29.1564 24.7695 29.1564 25.2419 29.0889 25.7143C29.0214 26.2543 28.8189 26.7942 28.6165 27.3341C28.414 27.9416 28.414 28.549 28.549 29.1564C28.6165 29.3589 28.6165 29.5614 28.684 29.7638C28.279 29.5614 27.9415 29.2914 27.6716 28.8864C27.5366 28.684 27.4016 28.414 27.3341 28.144C27.2666 27.8741 27.2666 27.6041 27.1991 27.3341C27.1316 26.7942 27.1316 26.1868 26.9292 25.6468C26.7942 25.1069 26.4567 24.567 26.0518 24.2295C26.4567 24.6345 26.7267 25.1744 26.8617 25.7143C26.9967 26.2543 26.9967 26.8617 26.9967 27.4016C26.9967 27.6716 26.9967 27.9416 27.0642 28.279C27.1317 28.549 27.2666 28.819 27.4016 29.0889C27.7391 29.5614 28.2115 29.9663 28.7515 30.2363C29.0214 31.0462 29.3589 31.7886 29.7638 32.4635C29.2914 31.3836 28.9539 30.3037 28.7515 29.1564C28.684 28.6165 28.6839 28.009 28.8864 27.5366C28.9539 27.4016 28.9539 27.2666 29.0214 27.1316C29.3589 26.8617 29.7638 26.5917 30.1688 26.5242C30.3712 26.4567 30.6412 26.4567 30.8437 26.4567C31.0461 26.4567 31.3161 26.5242 31.5861 26.4567C32.126 26.3892 32.5985 26.1193 32.8009 25.6468C33.0709 25.2419 33.1384 24.702 33.1384 24.2295C33.1384 24.7694 33.0034 25.2419 32.8009 25.5793Z" fill="url(#paint4_linear_59_946)"/>
<path d="M52.5084 46.9066L34.4882 28.8864L35.6355 27.8065L53.5883 45.7593L52.5084 46.9066Z" fill="url(#paint5_linear_59_946)"/>
<path d="M53.0484 48.7288C52.441 48.7288 51.8336 48.5264 51.3612 48.0539L38.2003 34.8931C37.2554 33.9482 37.2554 32.3959 38.2003 31.5185C39.1452 30.5736 40.6975 30.5736 41.6424 31.5185L54.8032 44.6793C55.7481 45.6242 55.7481 47.1765 54.8032 48.1214C54.2633 48.4589 53.6559 48.7288 53.0484 48.7288Z" fill="url(#paint6_linear_59_946)"/>
<path d="M38.2002 31.9235C39.1451 30.9786 40.6974 30.9786 41.6423 31.9235L54.8032 45.0844C55.2081 45.4893 55.4106 46.0293 55.4781 46.5692C55.5456 45.8943 55.3431 45.1519 54.8032 44.6119L41.6423 31.4511C40.6974 30.5062 39.1451 30.5062 38.2002 31.4511C37.6603 31.991 37.4578 32.6659 37.5253 33.4083C37.5928 32.8684 37.7953 32.3285 38.2002 31.9235Z" fill="#4D4D4D"/>
<path d="M54.7357 47.2441C54.2633 47.7165 53.6559 47.919 53.0484 47.919C52.441 47.919 51.8336 47.7165 51.3611 47.2441L38.2003 34.0832C37.7953 33.6783 37.5929 33.2733 37.5254 32.7334C37.3904 33.4758 37.6603 34.2182 38.2003 34.8256L51.3611 47.9865C51.8336 48.4589 52.441 48.6614 53.0484 48.6614C53.6559 48.6614 54.2633 48.4589 54.7357 47.9865C55.2756 47.4466 55.5456 46.6367 55.4106 45.8943C55.3431 46.4342 55.1407 46.9066 54.7357 47.2441Z" fill="#D1D1D1"/>
<g opacity="0.36">
<path d="M29.6963 29.9662C25.4443 29.9662 21.9348 26.5241 21.9348 22.2046C21.9348 17.9527 25.3769 14.4431 29.6963 14.4431C33.9483 14.4431 37.4578 17.8852 37.4578 22.2046C37.4578 26.5241 33.9483 29.9662 29.6963 29.9662Z" fill="white"/>
</g>
<mask id="mask0_59_946" style="mask-type:luminance" maskUnits="userSpaceOnUse" x="20" y="13" width="19" height="19">
<path d="M29.6963 31.0461C24.8369 31.0461 20.9224 27.0641 20.9224 22.2722C20.9224 17.4128 24.9044 13.4983 29.6963 13.4983C34.5557 13.4983 38.4702 17.4803 38.4702 22.2722C38.5377 27.1316 34.5557 31.0461 29.6963 31.0461Z" fill="white"/>
</mask>
<g mask="url(#mask0_59_946)">
<path d="M15.8605 54.9382C18.2902 55.2757 18.6952 47.7166 18.4927 44.6795C18.2902 41.6424 18.8977 32.7335 21.5298 32.7335C24.162 32.7335 24.7694 37.1205 24.9719 40.3601C25.1744 43.5997 25.1744 55.0057 28.2115 55.0057C31.2486 55.0057 31.5861 48.999 32.5984 46.0968C33.6783 42.9247 34.1508 38.6728 34.1508 36.783C34.1508 34.8933 36.243 30.7088 37.3904 28.6165C38.5377 26.5243 40.225 21.9349 39.4826 17.8179C38.7402 13.6334 36.6479 8.70653 32.6659 8.50406C28.6839 8.30158 26.1868 10.3938 22.6097 10.3938C18.9652 10.3938 14.4432 6.74928 10.6637 8.50406C6.88416 10.2588 2.90217 15.5232 4.79194 23.5547C6.6817 31.5187 9.04389 32.0586 9.65132 35.7031C10.1912 39.2802 11.0687 44.2746 12.216 47.7166C13.2284 50.9562 13.0259 54.5333 15.8605 54.9382Z" fill="url(#paint7_linear_59_946)"/>
<path d="M37.3228 27.1317C36.1755 29.224 34.0832 33.4084 34.0832 35.2982C34.0832 37.188 33.6108 41.44 32.5309 44.6121C31.586 47.5142 31.1811 53.5209 28.144 53.5209C25.1068 53.5209 25.1068 42.1149 24.9044 38.8753C24.7019 35.6357 24.162 31.2487 21.4623 31.2487C18.9651 31.2487 18.2902 39.2127 18.4252 42.6548C18.4927 38.8078 19.3026 32.666 21.4623 32.666C24.0945 32.666 24.7019 37.053 24.9044 40.2926C25.1068 43.5322 25.1068 54.9383 28.144 54.9383C31.1811 54.9383 31.5185 48.9315 32.5309 46.0294C33.6108 42.8573 34.0832 38.6053 34.0832 36.7155C34.0832 34.8258 36.1755 30.6413 37.3228 28.549C38.3352 26.7268 39.7525 22.9473 39.55 19.1677C39.4151 22.4073 38.2002 25.5119 37.3228 27.1317Z" fill="#C0DDE4"/>
<path d="M10.5287 9.58376C14.3083 7.82898 18.8977 11.4735 22.4747 11.4735C26.0518 11.4735 28.549 9.38129 32.531 9.58376C36.513 9.78624 38.6052 14.7131 39.3476 18.8976C39.4151 19.3701 39.4826 19.91 39.5501 20.4499C39.6176 19.505 39.5501 18.6276 39.3476 17.6828C38.6052 13.4983 36.513 8.5714 32.531 8.36892C28.549 8.16645 26.0518 10.2587 22.4747 10.2587C18.8302 10.2587 14.3083 6.61414 10.5287 8.36892C7.28914 9.85374 3.91454 13.9032 4.18451 19.9775C4.38698 14.5782 7.5591 10.9336 10.5287 9.58376Z" fill="white"/>
<path d="M15.8605 54.9382C18.2902 55.2757 18.6952 47.7166 18.4927 44.6795C18.2902 41.6424 18.8977 32.7335 21.5298 32.7335C24.162 32.7335 24.7694 37.1205 24.9719 40.3601C25.1744 43.5997 25.1744 55.0057 28.2115 55.0057C31.2486 55.0057 31.5861 48.999 32.5984 46.0968C33.6783 42.9247 34.1508 38.6728 34.1508 36.783C34.1508 34.8933 36.243 30.7088 37.3904 28.6165C38.5377 26.5243 40.225 21.9349 39.4826 17.8179C38.7402 13.6334 36.6479 8.70653 32.6659 8.50406C28.6839 8.30158 26.1868 10.3938 22.6097 10.3938C18.9652 10.3938 14.4432 6.74928 10.6637 8.50406C6.88416 10.2588 2.90217 15.5232 4.79194 23.5547C6.6817 31.5187 9.04389 32.0586 9.65132 35.7031C10.1912 39.2802 11.0687 44.2746 12.216 47.7166C13.2284 50.9562 13.0259 54.5333 15.8605 54.9382Z" fill="url(#paint8_linear_59_946)"/>
<path d="M37.3228 27.1317C36.1755 29.224 34.0832 33.4084 34.0832 35.2982C34.0832 37.188 33.6108 41.44 32.5309 44.6121C31.586 47.5142 31.1811 53.5209 28.144 53.5209C25.1068 53.5209 25.1068 42.1149 24.9044 38.8753C24.7019 35.6357 24.162 31.2487 21.4623 31.2487C18.9651 31.2487 18.2902 39.2127 18.4252 42.6548C18.4927 38.8078 19.3026 32.666 21.4623 32.666C24.0945 32.666 24.7019 37.053 24.9044 40.2926C25.1068 43.5322 25.1068 54.9383 28.144 54.9383C31.1811 54.9383 31.5185 48.9315 32.5309 46.0294C33.6108 42.8573 34.0832 38.6053 34.0832 36.7155C34.0832 34.8258 36.1755 30.6413 37.3228 28.549C38.3352 26.7268 39.7525 22.9473 39.55 19.1677C39.4151 22.4073 38.2002 25.5119 37.3228 27.1317Z" fill="#C0DDE4"/>
<path d="M10.5287 9.58376C14.3083 7.82898 18.8977 11.4735 22.4747 11.4735C26.0518 11.4735 28.549 9.38129 32.531 9.58376C36.513 9.78624 38.6052 14.7131 39.3476 18.8976C39.4151 19.3701 39.4826 19.91 39.5501 20.4499C39.6176 19.505 39.5501 18.6276 39.3476 17.6828C38.6052 13.4983 36.513 8.5714 32.531 8.36892C28.549 8.16645 26.0518 10.2587 22.4747 10.2587C18.8302 10.2587 14.3083 6.61414 10.5287 8.36892C7.28914 9.85374 3.91454 13.9032 4.18451 19.9775C4.38698 14.5782 7.5591 10.9336 10.5287 9.58376Z" fill="white"/>
<path d="M33.8808 22.3397C33.5433 22.8796 32.8684 23.2845 32.1935 23.2845C31.856 23.2845 31.5186 23.217 31.1811 23.217C30.9786 23.217 30.7762 23.217 30.5737 23.217C30.5737 22.8796 30.5737 22.5421 30.7087 22.2722C30.8437 21.8672 31.1136 21.4623 31.4511 21.1923C31.8561 20.7873 31.991 20.3149 31.991 19.775C31.991 19.3025 31.9235 18.7626 31.7886 18.3576C31.8561 18.8301 31.9235 19.3025 31.7886 19.775C31.7211 20.2474 31.5186 20.7199 31.1811 20.9898C30.7762 21.2598 30.3712 21.6647 30.2362 22.1372C30.1013 22.5421 29.9663 22.8796 29.9663 23.352C29.5613 23.4195 29.1564 23.5545 28.7514 23.757C28.8189 23.4195 28.9539 23.082 29.0214 22.7446C29.1564 22.0022 29.0889 21.1923 28.8189 20.4499C28.6839 19.8425 28.6165 19.1675 28.6839 18.5601C28.7514 18.2227 28.8189 17.9527 29.0214 17.6827C29.2239 17.3453 29.2914 17.0078 29.3589 16.6703C29.5613 15.3205 29.5613 13.9707 29.4938 12.6208C29.4263 13.9707 29.3589 15.3205 29.0889 16.6029C29.0214 16.9403 28.8864 17.2103 28.7514 17.4803C28.549 17.7502 28.414 18.0877 28.279 18.4251C28.2115 18.6951 28.2115 18.9651 28.144 19.3025C28.0765 19.235 28.009 19.1 27.9415 19.0325C27.6716 18.6951 27.4691 18.4251 27.1991 18.0202C26.3217 16.6703 25.6468 15.1181 25.0394 13.5657C25.3769 15.1855 25.9843 16.8053 26.7942 18.2902C26.9966 18.6276 27.2666 19.0325 27.5366 19.37C27.8065 19.7075 28.009 20.0449 28.144 20.3824C28.144 20.4499 28.2115 20.5174 28.2115 20.5174C28.4815 21.1923 28.549 21.8672 28.414 22.6096C28.279 23.4195 28.009 24.1619 27.7391 24.9718C27.4016 25.7817 27.4691 26.7266 27.6041 27.5365C27.6716 27.8065 27.7391 28.1439 27.8065 28.4139C27.2666 28.1439 26.7267 27.739 26.3892 27.199C26.1868 26.8616 25.9843 26.5241 25.9168 26.1192C25.8493 25.7817 25.7818 25.3093 25.7818 24.9043C25.7143 24.0944 25.6468 23.2845 25.4443 22.4746C25.2419 21.6647 24.7694 20.9223 24.162 20.3824C24.7694 20.9223 25.1069 21.6647 25.3094 22.4746C25.5118 23.2845 25.5118 24.0944 25.5118 24.9043C25.5118 25.3093 25.5118 25.7142 25.5793 26.1192C25.6468 26.5241 25.8493 26.9291 26.0518 27.2665C26.5242 28.0089 27.1991 28.5489 28.009 28.8863C28.3465 30.0337 28.8864 31.0461 29.4264 32.0584C28.7514 30.5061 28.2115 28.9538 28.009 27.334C27.9415 26.5241 27.9415 25.7142 28.2115 24.9718C28.279 24.7693 28.3465 24.6343 28.414 24.4319C28.8189 24.0269 29.4264 23.6895 30.1013 23.5545C30.4387 23.487 30.7762 23.4195 31.0462 23.4195C31.3836 23.4195 31.7211 23.487 32.126 23.4195C32.8684 23.352 33.5433 22.8796 33.8808 22.2722C34.2182 21.6647 34.3532 20.9223 34.3532 20.2474C34.4207 21.1248 34.2182 21.7997 33.8808 22.3397Z" fill="url(#paint9_linear_59_946)"/>
</g>
<path d="M29.6963 31.5861C24.5669 31.5861 20.3824 27.4016 20.3824 22.2722C20.3824 17.1429 24.5669 12.9584 29.6963 12.9584C34.8257 12.9584 39.0101 17.1429 39.0101 22.2722C39.0776 27.4016 34.8257 31.5861 29.6963 31.5861ZM29.6963 15.3206C25.8493 15.3206 22.7447 18.4252 22.7447 22.2722C22.7447 26.1192 25.8493 29.2238 29.6963 29.2238C33.5433 29.2238 36.6479 26.1192 36.6479 22.2722C36.6479 18.4252 33.5433 15.3206 29.6963 15.3206Z" fill="#E80000"/>
<path d="M29.6963 13.4308C34.7582 13.4308 38.8751 17.4803 39.0101 22.4747C39.0101 22.4072 39.0101 22.2722 39.0101 22.2047C39.0101 17.0753 34.8257 12.8909 29.6963 12.8909C24.5669 12.8909 20.3824 17.0753 20.3824 22.2047C20.3824 22.2722 20.3824 22.4072 20.3824 22.4747C20.5174 17.4803 24.6344 13.4308 29.6963 13.4308Z" fill="#D92929"/>
<path d="M29.6963 29.6962C33.5433 29.6962 36.6479 26.5916 36.6479 22.7446C36.6479 22.6771 36.6479 22.5421 36.6479 22.4746C36.5129 26.1866 33.4758 29.1563 29.6963 29.1563C25.9842 29.1563 22.9471 26.1866 22.7446 22.4746C22.7446 22.5421 22.7446 22.6771 22.7446 22.7446C22.7446 26.5916 25.8493 29.6962 29.6963 29.6962Z" fill="#D92929"/>
<path d="M29.6963 14.5107C25.8493 14.5107 22.7446 17.6153 22.7446 21.4624C22.7446 21.5973 22.7446 21.7323 22.7446 21.8673C22.9471 18.2228 25.9842 15.3881 29.6288 15.3881C33.3408 15.3881 36.3105 18.2903 36.5129 21.8673C36.5129 21.7323 36.5129 21.5973 36.5129 21.4624C36.6479 17.6153 33.5433 14.5107 29.6963 14.5107Z" fill="#E4CDC0"/>
<path d="M29.6963 30.7762C24.7019 30.7762 20.5849 26.7942 20.3824 21.8673C20.3824 22.0023 20.3824 22.1373 20.3824 22.2723C20.3824 27.4016 24.5669 31.5861 29.6963 31.5861C34.8256 31.5861 39.0101 27.4016 39.0101 22.2723C39.0101 22.1373 39.0101 22.0023 39.0101 21.8673C38.8076 26.7942 34.6906 30.7762 29.6963 30.7762Z" fill="#E4CDC0"/>
</g>
<defs>
<linearGradient id="paint0_linear_59_946" x1="29.7434" y1="0.366817" x2="30.2728" y2="59.6541" gradientUnits="userSpaceOnUse">
<stop stop-color="#98B7C8"/>
<stop offset="0.3125" stop-color="#91B2CF"/>
<stop offset="0.649038" stop-color="#82A9DA"/>
<stop offset="1" stop-color="#82A9DA"/>
</linearGradient>
<linearGradient id="paint1_linear_59_946" x1="22.6946" y1="26.7584" x2="55.7889" y2="59.8526" gradientUnits="userSpaceOnUse">
<stop/>
<stop offset="1" stop-opacity="0.6"/>
</linearGradient>
<linearGradient id="paint2_linear_59_946" x1="24.3962" y1="48.3651" x2="24.3962" y2="15.4809" gradientUnits="userSpaceOnUse">
<stop stop-color="#B9EAFA"/>
<stop offset="1" stop-color="#F5F9FA"/>
</linearGradient>
<linearGradient id="paint3_linear_59_946" x1="24.3962" y1="48.3651" x2="24.3962" y2="15.4809" gradientUnits="userSpaceOnUse">
<stop stop-color="#B9EAFA"/>
<stop offset="1" stop-color="#F5F9FA"/>
</linearGradient>
<linearGradient id="paint4_linear_59_946" x1="29.6124" y1="32.4623" x2="29.6124" y2="18.7742" gradientUnits="userSpaceOnUse">
<stop stop-color="#919191"/>
<stop offset="0.1276" stop-color="#7D7D7D"/>
<stop offset="0.3304" stop-color="#636363"/>
<stop offset="0.54" stop-color="#515151"/>
<stop offset="0.7585" stop-color="#464646"/>
<stop offset="1" stop-color="#424242"/>
</linearGradient>
<linearGradient id="paint5_linear_59_946" x1="34.5193" y1="37.3284" x2="53.6147" y2="37.3284" gradientUnits="userSpaceOnUse">
<stop stop-color="#424242"/>
<stop offset="0.0598671" stop-color="#484848"/>
<stop offset="0.4714" stop-color="#707070"/>
<stop offset="0.799" stop-color="#888888"/>
<stop offset="1" stop-color="#919191"/>
</linearGradient>
<linearGradient id="paint6_linear_59_946" x1="46.4754" y1="48.7182" x2="46.4754" y2="30.756" gradientUnits="userSpaceOnUse">
<stop stop-color="#424242"/>
<stop offset="0.0598671" stop-color="#484848"/>
<stop offset="0.4714" stop-color="#707070"/>
<stop offset="0.799" stop-color="#888888"/>
<stop offset="1" stop-color="#919191"/>
</linearGradient>
<linearGradient id="paint7_linear_59_946" x1="21.8857" y1="54.9222" x2="21.8857" y2="7.87449" gradientUnits="userSpaceOnUse">
<stop stop-color="#B9EAFA"/>
<stop offset="1" stop-color="#F5F9FA"/>
</linearGradient>
<linearGradient id="paint8_linear_59_946" x1="21.8857" y1="54.9222" x2="21.8857" y2="7.87449" gradientUnits="userSpaceOnUse">
<stop stop-color="#B9EAFA"/>
<stop offset="1" stop-color="#F5F9FA"/>
</linearGradient>
<linearGradient id="paint9_linear_59_946" x1="29.3487" y1="32.1702" x2="29.3487" y2="12.5858" gradientUnits="userSpaceOnUse">
<stop stop-color="#919191"/>
<stop offset="0.1276" stop-color="#7D7D7D"/>
<stop offset="0.3304" stop-color="#636363"/>
<stop offset="0.54" stop-color="#515151"/>
<stop offset="0.7585" stop-color="#464646"/>
<stop offset="1" stop-color="#424242"/>
</linearGradient>
<clipPath id="clip0_59_946">
<rect width="60" height="60" rx="16" fill="white"/>
</clipPath>
</defs>
</svg>
