<svg width="171" height="44" viewBox="0 0 171 44" fill="none" xmlns="http://www.w3.org/2000/svg">
<g clip-path="url(#clip0_59_45)">
<rect width="43.2" height="43.2" rx="21.6" fill="url(#paint0_linear_59_45)"/>
<path d="M37.9516 24.4602C37.9136 24.6879 34.765 24.437 33.114 24.2756C33.0648 24.2707 33.0209 24.304 33.011 24.3525L32.4718 27.0034C32.46 27.0616 32.5023 27.1166 32.5617 27.1186C33.4358 27.1477 35.4294 27.1544 37.2758 26.9697C39.0074 26.7966 40.4801 26.1964 41.1717 25.8306C41.3112 25.7569 41.4413 25.662 41.5236 25.5273C41.6898 25.2553 41.8056 24.8142 41.475 24.3633C40.9441 23.6393 39.5926 24.2668 39.4478 24.2185C39.3548 24.1875 39.3801 23.7394 39.4186 23.3892C39.4356 23.2344 39.4507 23.07 39.3664 22.9391C39.2742 22.7959 39.0939 22.6508 38.7721 22.6261C38.1446 22.5778 37.9998 24.1706 37.9516 24.4602Z" fill="#F8F9FC" stroke="#F8F9FC" stroke-width="0.0965326"/>
<path d="M33.011 24.3175L32.4718 26.9684C32.46 27.0266 32.5029 27.0817 32.5624 27.0836C33.1068 27.1017 34.0847 27.1111 35.1908 27.0711C35.2263 27.0698 35.2584 27.049 35.274 27.017L36.439 24.6292C36.4695 24.5667 36.4262 24.4935 36.3567 24.4901C35.3203 24.4398 34.002 24.3274 33.1151 24.2407C33.0659 24.2358 33.0209 24.269 33.011 24.3175Z" fill="#9BBCEE"/>
<path d="M39.4478 25.3183V24.3049C39.4478 24.2618 39.4764 24.224 39.5178 24.2121L40.0239 24.0675C40.0778 24.0521 40.1338 24.0859 40.1407 24.1414C40.2129 24.7174 39.8554 25.1703 39.5854 25.3899C39.5275 25.437 39.4478 25.3929 39.4478 25.3183Z" fill="#9BBCEE"/>
<path d="M33.011 24.3175L32.4718 26.9684C32.46 27.0266 32.5029 27.0817 32.5624 27.0836C33.1068 27.1017 34.0847 27.1111 35.1908 27.0711C35.2263 27.0698 35.2584 27.049 35.274 27.017L36.439 24.6292C36.4695 24.5667 36.4262 24.4935 36.3567 24.4901C35.3203 24.4398 34.002 24.3274 33.1151 24.2407C33.0659 24.2358 33.0209 24.269 33.011 24.3175Z" stroke="#9BBCEE" stroke-width="0.0965326"/>
<path d="M39.4478 25.3183V24.3049C39.4478 24.2618 39.4764 24.224 39.5178 24.2121L40.0239 24.0675C40.0778 24.0521 40.1338 24.0859 40.1407 24.1414C40.2129 24.7174 39.8554 25.1703 39.5854 25.3899C39.5275 25.437 39.4478 25.3929 39.4478 25.3183Z" stroke="#9BBCEE" stroke-width="0.0965326"/>
<path d="M37.9516 24.4602C37.9136 24.6879 34.765 24.437 33.114 24.2756C33.0648 24.2707 33.0209 24.304 33.011 24.3525L32.4718 27.0034C32.46 27.0616 32.5023 27.1166 32.5617 27.1186C33.4358 27.1477 35.4294 27.1544 37.2758 26.9697C39.0074 26.7966 40.4801 26.1964 41.1717 25.8306C41.3112 25.7569 41.4413 25.662 41.5236 25.5273C41.6898 25.2553 41.8056 24.8142 41.475 24.3633C40.9441 23.6393 39.5926 24.2668 39.4478 24.2185C39.3548 24.1875 39.3801 23.7394 39.4186 23.3892C39.4356 23.2344 39.4507 23.07 39.3664 22.9391C39.2742 22.7959 39.0939 22.6508 38.7721 22.6261C38.1446 22.5778 37.9998 24.1706 37.9516 24.4602Z" stroke="#F8F9FC" stroke-width="0.0965326"/>
<path d="M8.10168 23.8928C8.19694 24.4272 8.29108 24.9264 8.3768 25.3787C8.65264 27.034 9.13943 29.3283 9.73518 31.69L12.2823 30.9824V30.7702C12.1408 30.8126 11.5522 30.5834 10.3295 29.3268C9.10688 28.0702 9.9333 24.8975 10.4993 23.4683L8.10168 23.8928Z" fill="#9BBCEE"/>
<path d="M13.2611 9.62353C15.2564 8.3874 16.8259 8.52475 18.228 8.98673C16.5291 8.12523 12.3587 7.20035 9.26814 10.3928C6.52419 13.2272 7.34759 19.6624 8.10168 23.8928L10.4993 23.4683C9.9333 24.8975 9.10688 28.0702 10.3295 29.3268C11.5522 30.5834 12.1408 30.8126 12.2823 30.7702V30.9824L9.73518 31.69C10.6979 35.5065 11.9451 39.499 13.0465 41.256C14.5724 43.6903 15.0842 44.1002 16.1455 44.3551C16.7907 44.51 17.4191 44.2701 17.7162 44.1002C16.4427 44.1002 13.2163 31.1945 12.4521 27.3738C11.7304 23.7653 11.0087 17.4398 10.9255 14.171C10.8011 12.6904 11.2649 10.8602 13.2611 9.62353Z" fill="#E4F0FE"/>
<path fill-rule="evenodd" clip-rule="evenodd" d="M19.0159 42.7112C19.0385 42.6368 19.0575 42.5743 19.0747 42.5294C19.4993 41.4257 20.17 40.2709 20.8153 40.237C21.1781 40.2179 21.3923 40.3634 21.5306 40.512C21.6892 40.6827 21.8002 40.8977 21.9018 41.1074C22.4221 42.1816 23.2526 43.7685 23.7445 44.1374C24.2305 44.5018 24.8677 44.3503 25.3309 44.1927C25.4356 44.1571 25.5356 44.1103 25.6251 44.0454C26.2773 43.5731 27.4787 42.2357 28.5842 40.0247C29.865 37.4629 33.5488 27.4639 34.4002 22.237C34.6284 20.8361 34.7422 18.4704 34.7422 17.6893C34.7422 17.6292 34.7427 17.5621 34.7434 17.4885C34.7533 16.3666 34.7764 13.7485 32.9143 11.8361C32.8259 11.7453 32.7383 11.655 32.6515 11.5654L32.646 11.5598L32.6449 11.5586C31.0708 9.93546 29.7282 8.55105 27.4379 8.26979C25.5021 8.03205 24.5511 8.73705 23.9143 9.5438L22.728 11.3641L19.9238 9.8826L18.228 8.98673C16.8259 8.52475 15.2564 8.3874 13.2611 9.62353C11.2649 10.8602 10.8011 12.6904 10.9255 14.171C11.0087 17.4398 11.7304 23.7653 12.4521 27.3738C13.2163 31.1945 16.4427 44.1002 17.7162 44.1002C18.5942 44.1002 18.8752 43.1746 19.0159 42.7112Z" fill="#D9D9D9"/>
<path d="M23.9143 9.5438C24.5511 8.73705 25.5021 8.03205 27.4379 8.26979C25.6266 8.04302 21.5879 8.0481 19.9238 9.8826L22.728 11.3641L23.9143 9.5438Z" fill="#E4F0FE"/>
<path d="M18.228 8.98673C16.8259 8.52475 15.2564 8.3874 13.2611 9.62353C11.2649 10.8602 10.8011 12.6904 10.9255 14.171C11.0087 17.4398 11.7304 23.7653 12.4521 27.3738C13.2163 31.1945 16.4427 44.1002 17.7162 44.1002M18.228 8.98673L19.9238 9.8826M18.228 8.98673C16.5291 8.12523 12.3587 7.20035 9.26814 10.3928C6.52419 13.2272 7.34759 19.6624 8.10168 23.8928M17.7162 44.1002C17.4191 44.2701 16.7907 44.51 16.1455 44.3551C15.0842 44.1002 14.5724 43.6903 13.0465 41.256C11.9451 39.499 10.6979 35.5065 9.73518 31.69M17.7162 44.1002C18.5942 44.1002 18.8752 43.1746 19.0159 42.7112C19.0385 42.6368 19.0575 42.5743 19.0747 42.5294C19.4993 41.4257 20.17 40.2709 20.8153 40.237C21.1781 40.2179 21.3923 40.3634 21.5306 40.512M27.4379 8.26979C25.5021 8.03205 24.5511 8.73705 23.9143 9.5438L22.728 11.3641L19.9238 9.8826M27.4379 8.26979C25.6266 8.04302 21.5879 8.0481 19.9238 9.8826M27.4379 8.26979C29.7282 8.55105 31.0708 9.93546 32.6449 11.5586M8.10168 23.8928C8.19694 24.4272 8.29108 24.9264 8.3768 25.3787C8.65264 27.034 9.13943 29.3283 9.73518 31.69M8.10168 23.8928L10.4993 23.4683C9.9333 24.8975 9.10688 28.0702 10.3295 29.3268C11.5522 30.5834 12.1408 30.8126 12.2823 30.7702V30.9824L9.73518 31.69M25.6251 44.0454C26.2773 43.5731 27.4787 42.2357 28.5842 40.0247C29.865 37.4629 33.5488 27.4639 34.4002 22.237C34.6284 20.8361 34.7422 18.4704 34.7422 17.6893C34.7422 17.6292 34.7427 17.5621 34.7434 17.4885C34.7533 16.3666 34.7764 13.7485 32.9143 11.8361C32.8259 11.7453 32.7383 11.655 32.6515 11.5654M25.6251 44.0454C25.5356 44.1103 25.4356 44.1571 25.3309 44.1927M25.6251 44.0454C25.5359 44.11 25.4352 44.1572 25.3309 44.1927M25.3309 44.1927C24.8677 44.3503 24.2305 44.5018 23.7445 44.1374C23.2526 43.7685 22.4221 42.1816 21.9018 41.1074M21.9018 41.1074C21.8002 40.8977 21.6892 40.6827 21.5306 40.512M21.9018 41.1074C21.8002 40.8978 21.6892 40.6826 21.5306 40.512M32.6449 11.5586L32.646 11.5598M32.6449 11.5586C32.6453 11.559 32.6456 11.5594 32.646 11.5598M32.646 11.5598L32.6515 11.5654M32.646 11.5598C32.6478 11.5617 32.6497 11.5636 32.6515 11.5654" stroke="#E4F0FE" stroke-width="0.0849056"/>
<path d="M18.3634 9.01013L22.7371 11.3208L23.9235 9.50051C24.5602 8.69376 25.5112 7.98876 27.447 8.2265C29.8668 8.52367 31.2287 10.0522 32.9234 11.7928C34.9075 13.8306 34.7513 16.6696 34.7513 17.646C34.7513 18.4272 34.6375 20.7928 34.4093 22.1937C33.5579 27.4206 29.8742 37.4196 28.5933 39.9814C27.4878 42.1924 26.2864 43.5298 25.6342 44.0022C25.5447 44.067 25.4447 44.1138 25.34 44.1494C24.8768 44.307 24.2396 44.4585 23.7536 44.0941C23.303 43.7561 22.8396 46.7639 22.412 47.2036C22.2496 47.3706 22.0929 46.9908 21.9342 46.8202C21.796 46.6715 21.5817 46.526 21.219 46.5451C20.5737 46.5791 19.9029 47.7338 19.4784 48.8376C19.3537 49.1618 18.7442 44.0569 17.7254 44.0569C16.4518 44.0569 13.2254 31.1512 12.4612 27.3305C11.7395 23.722 11.0178 17.3965 10.9346 14.1277C10.8102 12.6471 11.274 10.8169 13.2702 9.58023C15.2013 8.3839 16.7335 8.47404 18.1012 8.89987C18.1919 8.92811 18.2794 8.96575 18.3634 9.01013Z" fill="white" stroke="white" stroke-width="0.0849056"/>
<path d="M7.23312 27.1975C7.50759 26.1744 8.62386 25.3637 9.5616 24.8765C10.0842 24.605 10.5348 24.1394 10.7241 23.5818C10.8166 23.3094 10.8522 22.9648 10.6906 22.7267C10.4507 22.3733 9.99177 21.9677 9.2284 21.8484C7.86991 21.6361 6.17186 24.1833 5.36526 25.6692C4.55866 27.155 4.89828 28.9805 5.53507 30.4663C6.17186 31.9522 7.99733 32.589 9.86525 32.8012C10.926 32.9218 11.8071 32.5931 12.3658 32.2555C12.7217 32.0404 12.9478 31.6223 12.8152 31.2281C12.7822 31.13 12.7346 31.0519 12.6671 31.0182C12.4124 30.8909 12.4124 30.8484 10.4595 31.0182C8.89721 31.1541 7.85574 30.3107 7.53029 29.872C7.27557 29.5607 6.85953 28.5899 7.23312 27.1975Z" fill="#F8F9FC" stroke="#F8F9FC" stroke-width="0.0849056"/>
<circle cx="18.2186" cy="20.287" r="2.37735" fill="white" stroke="#ECEBEA" stroke-width="0.0849056"/>
<circle cx="18.216" cy="20.2687" r="1.95283" fill="#5EB8DD" stroke="#5EB8DD" stroke-width="0.0849056"/>
<circle cx="18.2144" cy="20.2681" r="1.35849" fill="#221D1F" stroke="#221D1F" stroke-width="0.0849056"/>
<circle cx="18.855" cy="19.7339" r="0.636791" fill="#FDFDFD" stroke="#FDFDFD" stroke-width="0.0849056"/>
<circle cx="24.3397" cy="20.287" r="2.37735" fill="white" stroke="#ECEBEA" stroke-width="0.0849056"/>
<circle cx="24.3371" cy="20.2687" r="1.95283" fill="#5EB8DD" stroke="#5EB8DD" stroke-width="0.0849056"/>
<circle cx="24.3472" cy="20.2681" r="1.35849" fill="#221D1F" stroke="#221D1F" stroke-width="0.0849056"/>
<circle cx="24.9761" cy="19.7339" r="0.636791" fill="#FDFDFD" stroke="#FDFDFD" stroke-width="0.0849056"/>
<path d="M20.5116 24.9473L18.6587 24.3201C18.4778 24.2589 18.2795 24.3405 18.1941 24.5113C18.1533 24.5929 18.1418 24.6866 18.1699 24.7735C18.4178 25.5401 19.2795 26.8454 21.1026 26.8454C22.8898 26.8454 23.7531 25.5909 24.0199 24.8193C24.0598 24.7037 24.0421 24.5782 23.9842 24.4705C23.8661 24.2513 23.6025 24.1552 23.3711 24.247L21.6824 24.9172C21.3081 25.0657 20.8931 25.0764 20.5116 24.9473Z" fill="#656565" stroke="#656565" stroke-width="0.0849056"/>
<path fill-rule="evenodd" clip-rule="evenodd" d="M20.5119 24.9473C20.8931 25.0764 21.3079 25.0658 21.6821 24.9173C21.3079 25.0657 20.8932 25.0763 20.5119 24.9473ZM18.1945 24.5105C18.1534 24.5927 18.1419 24.6872 18.1702 24.7746C18.4067 25.5047 19.1994 26.722 20.8478 26.8366C20.7346 26.7546 20.4148 26.5652 20.0412 26.4633C19.6676 26.3614 18.6544 25.119 18.1945 24.5105ZM23.9731 24.9439C23.9904 24.9012 24.006 24.8596 24.0199 24.8193C24.0199 24.8191 24.02 24.819 24.02 24.8188C24.0061 24.8593 23.9904 24.9011 23.9731 24.9439Z" fill="#5D5D5D"/>
<path d="M18.1945 24.5105C18.6544 25.119 19.6676 26.3614 20.0412 26.4633C20.4148 26.5652 20.7346 26.7546 20.8478 26.8366M18.1945 24.5105C18.1534 24.5927 18.1419 24.6872 18.1702 24.7746M18.1945 24.5105C18.2797 24.3401 18.4775 24.2588 18.6578 24.3198M18.1945 24.5105C18.1535 24.5926 18.1419 24.6872 18.1702 24.7746M18.1945 24.5105C18.2797 24.3401 18.4775 24.2588 18.6578 24.3198M20.8478 26.8366C20.9306 26.8424 21.0155 26.8454 21.1026 26.8454C22.7964 26.8454 23.6604 25.7186 23.9731 24.9439M20.8478 26.8366C19.1994 26.722 18.4067 25.5047 18.1702 24.7746M18.6578 24.3198L20.5116 24.9473C20.5117 24.9473 20.5118 24.9473 20.5119 24.9473M21.6824 24.9172L23.3711 24.247M21.6824 24.9172L21.6821 24.9173M21.6824 24.9172C21.6823 24.9172 21.6822 24.9173 21.6821 24.9173M23.3711 24.247C23.6025 24.1552 23.8661 24.2513 23.9842 24.4705M23.3711 24.247C23.6025 24.1552 23.8661 24.2513 23.9842 24.4705M23.9842 24.4705C24.042 24.578 24.0598 24.7034 24.02 24.8188M23.9842 24.4705C24.0418 24.5776 24.0598 24.7039 24.02 24.8188M24.0199 24.8193C24.006 24.8596 23.9904 24.9012 23.9731 24.9439M24.0199 24.8193C24.0199 24.8191 24.02 24.819 24.02 24.8188M24.0199 24.8193L24.02 24.8188M20.5119 24.9473C20.8932 25.0763 21.3079 25.0657 21.6821 24.9173M20.5119 24.9473C20.8931 25.0764 21.3079 25.0658 21.6821 24.9173M23.9731 24.9439C23.9904 24.9011 24.0061 24.8593 24.02 24.8188" stroke="#5D5D5D" stroke-width="0.0849056"/>
<path d="M19.2305 26.2222C19.689 26.5671 20.3023 26.8166 21.0993 26.8166C21.6409 26.8166 22.0976 26.7014 22.4786 26.5194C22.3584 26.3779 21.9144 26.0439 21.0993 25.8402C20.2842 25.6364 19.5138 26.01 19.2305 26.2222Z" fill="#898E94" stroke="#898E94" stroke-width="0.0849056"/>
<path d="M19.877 26.6231C20.2266 26.7667 20.635 26.8546 21.1081 26.8546C21.8421 26.8546 22.4203 26.643 22.8653 26.3401C22.9336 26.2178 22.8062 26.0904 21.8722 25.8782C20.7714 25.628 20.0892 26.2475 19.877 26.6231Z" fill="#A4AAB2" stroke="#A4AAB2" stroke-width="0.0849056"/>
<path d="M20.5116 24.9473L18.6587 24.3201C18.4778 24.2589 18.2795 24.3405 18.1941 24.5113C18.1533 24.5929 18.1418 24.6866 18.1699 24.7735C18.4178 25.5401 19.2795 26.8454 21.1026 26.8454C22.8898 26.8454 23.7531 25.5909 24.0199 24.8193C24.0598 24.7037 24.0421 24.5782 23.9842 24.4705C23.8661 24.2513 23.6025 24.1552 23.3711 24.247L21.6824 24.9172C21.3081 25.0657 20.8931 25.0764 20.5116 24.9473Z" stroke="#656565" stroke-width="0.0849056"/>
<path d="M28.2442 12.5156L28.2454 14.4774C28.2454 14.5351 28.3017 14.5759 28.3565 14.5581L30.2226 13.953L28.3572 14.5603C28.3024 14.5782 28.2809 14.6443 28.3148 14.6909L29.4669 16.2787L28.3129 14.6923C28.279 14.6457 28.2095 14.6457 28.1756 14.6923L27.0215 16.2787L28.1737 14.6909C28.2076 14.6443 28.1861 14.5782 28.1313 14.5603L26.2659 13.953L28.132 14.5581C28.1868 14.5759 28.2431 14.5351 28.2431 14.4774L28.2442 12.5156Z" fill="#E1EFFC"/>
<path d="M30.2986 16.0078L30.2989 16.635L30.8955 16.4415L30.2992 16.6357L30.6675 17.1433L30.2986 16.6361L29.9296 17.1433L30.298 16.6357L29.7016 16.4415L30.2982 16.635L30.2986 16.0078Z" fill="#E1EFFC"/>
<path d="M30.2986 12.0313L30.2989 12.6584L30.8955 12.465L30.2992 12.6591L30.6675 13.1667L30.2986 12.6595L29.9296 13.1667L30.298 12.6591L29.7016 12.465L30.2982 12.6584L30.2986 12.0313Z" fill="#E1EFFC"/>
</g>
<path d="M56.6 29.1V14.7H68.05V29.1H65.96V16.67H58.69V29.1H56.6ZM70.6505 29.1V14.7H79.8505V16.67H72.7405V20.71H78.6505V22.68H72.7405V27.13H79.8505V29.1H70.6505ZM82.0447 29.1V14.7H87.8647C88.0047 14.7 88.178 14.7067 88.3847 14.72C88.5913 14.7267 88.788 14.7467 88.9747 14.78C89.7747 14.9067 90.4413 15.18 90.9747 15.6C91.5147 16.02 91.918 16.55 92.1847 17.19C92.4513 17.83 92.5847 18.5367 92.5847 19.31C92.5847 20.09 92.4513 20.8 92.1847 21.44C91.918 22.08 91.5147 22.61 90.9747 23.03C90.4413 23.45 89.7747 23.7233 88.9747 23.85C88.788 23.8767 88.588 23.8967 88.3747 23.91C88.168 23.9233 87.998 23.93 87.8647 23.93H84.1347V29.1H82.0447ZM84.1347 21.95H87.7847C87.918 21.95 88.0647 21.9433 88.2247 21.93C88.3913 21.9167 88.548 21.8933 88.6947 21.86C89.1213 21.76 89.4647 21.5767 89.7247 21.31C89.9847 21.0367 90.1713 20.7233 90.2847 20.37C90.398 20.0167 90.4547 19.6633 90.4547 19.31C90.4547 18.9567 90.398 18.6067 90.2847 18.26C90.1713 17.9067 89.9847 17.5967 89.7247 17.33C89.4647 17.0567 89.1213 16.87 88.6947 16.77C88.548 16.73 88.3913 16.7033 88.2247 16.69C88.0647 16.6767 87.918 16.67 87.7847 16.67H84.1347V21.95ZM99.2264 29.1V27.09C98.4864 27.2167 97.7764 27.1867 97.0964 27C96.423 26.8133 95.8197 26.48 95.2864 26C94.7597 25.52 94.343 24.9 94.0364 24.14C93.7297 23.38 93.5764 22.4933 93.5764 21.48C93.5764 20.46 93.7297 19.57 94.0364 18.81C94.343 18.0433 94.7597 17.4167 95.2864 16.93C95.8197 16.4433 96.423 16.1033 97.0964 15.91C97.7764 15.71 98.4864 15.6733 99.2264 15.8V14.7H101.306V15.8C102.046 15.6733 102.753 15.71 103.426 15.91C104.106 16.1033 104.71 16.4433 105.236 16.93C105.77 17.4167 106.19 18.0433 106.496 18.81C106.81 19.57 106.966 20.46 106.966 21.48C106.966 22.4933 106.81 23.38 106.496 24.14C106.19 24.9 105.77 25.52 105.236 26C104.71 26.48 104.106 26.8133 103.426 27C102.753 27.1867 102.046 27.2167 101.306 27.09V29.1H99.2264ZM99.2264 25.15V17.71C98.6264 17.6167 98.103 17.6567 97.6564 17.83C97.2164 18.0033 96.853 18.2733 96.5664 18.64C96.2797 19 96.0664 19.4267 95.9264 19.92C95.7864 20.4067 95.7164 20.9267 95.7164 21.48C95.7164 22.0267 95.7864 22.5433 95.9264 23.03C96.0664 23.51 96.2797 23.9267 96.5664 24.28C96.853 24.6267 97.2164 24.88 97.6564 25.04C98.103 25.2 98.6264 25.2367 99.2264 25.15ZM101.306 25.15C101.906 25.2367 102.426 25.2 102.866 25.04C103.306 24.88 103.67 24.6267 103.956 24.28C104.25 23.9333 104.466 23.5233 104.606 23.05C104.753 22.57 104.826 22.0633 104.826 21.53C104.826 20.9967 104.753 20.4833 104.606 19.99C104.466 19.4967 104.25 19.0633 103.956 18.69C103.67 18.31 103.306 18.03 102.866 17.85C102.426 17.6633 101.906 17.6167 101.306 17.71V25.15ZM108.759 29.1V14.7H117.959V16.67H110.849V20.71H116.759V22.68H110.849V27.13H117.959V29.1H108.759ZM120.153 29.1V14.7H122.243V21.42L128.273 14.7H130.873L124.503 21.73L131.343 29.1H128.663L122.243 22.22V29.1H120.153ZM136.133 29.1V16.67H131.343V14.7H143.013V16.67H138.223V29.1H136.133ZM146.476 29.1L148.296 25.37L143.276 14.7H145.626L149.386 23.15L153.246 14.7H155.476L148.736 29.1H146.476ZM162.045 29.4C160.605 29.4 159.378 29.0867 158.365 28.46C157.352 27.8267 156.575 26.9467 156.035 25.82C155.502 24.6933 155.235 23.3867 155.235 21.9C155.235 20.4133 155.502 19.1067 156.035 17.98C156.575 16.8533 157.352 15.9767 158.365 15.35C159.378 14.7167 160.605 14.4 162.045 14.4C163.705 14.4 165.078 14.82 166.165 15.66C167.258 16.5 168.018 17.63 168.445 19.05L166.325 19.62C166.045 18.6133 165.545 17.8233 164.825 17.25C164.112 16.6767 163.185 16.39 162.045 16.39C161.025 16.39 160.175 16.62 159.495 17.08C158.815 17.54 158.302 18.1833 157.955 19.01C157.615 19.8367 157.445 20.8 157.445 21.9C157.438 23 157.605 23.9633 157.945 24.79C158.292 25.6167 158.805 26.26 159.485 26.72C160.172 27.18 161.025 27.41 162.045 27.41C163.185 27.41 164.112 27.1233 164.825 26.55C165.545 25.97 166.045 25.18 166.325 24.18L168.445 24.75C168.018 26.17 167.258 27.3 166.165 28.14C165.078 28.98 163.705 29.4 162.045 29.4Z" fill="black"/>
<defs>
<linearGradient id="paint0_linear_59_45" x1="0" y1="21.6" x2="43.2" y2="21.6" gradientUnits="userSpaceOnUse">
<stop stop-color="#8FA892"/>
<stop offset="1" stop-color="#A5C3DB"/>
</linearGradient>
<clipPath id="clip0_59_45">
<rect width="43.2" height="43.2" rx="21.6" fill="white"/>
</clipPath>
</defs>
</svg>
