<svg width="53" height="53" viewBox="0 0 53 53" fill="none" xmlns="http://www.w3.org/2000/svg">
<rect width="53" height="53" rx="26.5" fill="#2787F5"/>
<path fill-rule="evenodd" clip-rule="evenodd" d="M41.9645 18.8688C42.1884 18.1682 41.9645 17.6533 40.8985 17.6533H37.3736C36.4773 17.6533 36.0641 18.0981 35.84 18.5885C35.84 18.5885 34.0475 22.6871 31.5081 25.3495C30.6866 26.1201 30.3131 26.3654 29.8649 26.3654C29.6409 26.3654 29.3166 26.1201 29.3166 25.4196V18.8688C29.3166 18.028 29.0565 17.6533 28.3095 17.6533H22.7704C22.2103 17.6533 21.8734 18.0435 21.8734 18.4134C21.8734 19.2104 23.1431 19.3942 23.2739 21.6362V26.5055C23.2739 27.5731 23.0684 27.7667 22.6203 27.7667C21.4253 27.7667 18.5185 23.6497 16.7946 18.9388C16.4567 18.0232 16.1179 17.6533 15.217 17.6533H11.6921C10.685 17.6533 10.4835 18.0981 10.4835 18.5885C10.4835 19.4643 11.6785 23.8081 16.0477 29.5532C18.9605 33.4766 23.0644 35.6034 26.7988 35.6034C29.0394 35.6034 29.3166 35.1311 29.3166 34.3174V31.3521C29.3166 30.4073 29.5289 30.2188 30.2384 30.2188C30.7612 30.2188 31.6575 30.464 33.7488 32.3557C36.1388 34.5977 36.5328 35.6034 37.8771 35.6034H41.402C42.4092 35.6034 42.9127 35.1311 42.6222 34.1989C42.3043 33.2698 41.1633 31.9218 39.6491 30.3239C38.8275 29.4131 37.5952 28.4323 37.2217 27.9417C36.6989 27.3113 36.8483 27.0309 37.2217 26.4705C37.2217 26.4705 41.5163 20.7955 41.9645 18.8688Z" fill="white"/>
</svg>
