<svg width="20" height="24" viewBox="0 0 20 24" fill="none" xmlns="http://www.w3.org/2000/svg">
<path d="M9.86972 0C12.4874 0 14.9979 0.960237 16.8489 2.66884C18.6999 4.37745 19.7404 6.69461 19.7404 9.11096C19.7403 14.6982 12.5598 21.8012 10.4478 23.7695C10.1181 24.0769 9.62235 24.0769 9.29259 23.7695C7.18076 21.8014 9.88615e-05 14.6984 0 9.11096C3.90043e-08 6.69477 1.03974 4.37742 2.89051 2.66884C4.74142 0.960301 7.25214 8.88167e-05 9.86972 0ZM9.86972 5.31424C8.86313 5.31433 7.89805 5.71479 7.18623 6.4265C6.47431 7.13842 6.07397 8.10415 6.07397 9.11096C6.07403 10.1177 6.47436 11.0835 7.18623 11.7954C7.89803 12.507 8.86323 12.9066 9.86972 12.9067C10.8764 12.9067 11.8423 12.5072 12.5542 11.7954C13.2661 11.0835 13.6664 10.1177 13.6664 9.11096C13.6664 8.10415 13.2661 7.13842 12.5542 6.4265C11.8423 5.71462 10.8765 5.31424 9.86972 5.31424Z" fill="url(#paint0_linear_59_1773)"/>
<defs>
<linearGradient id="paint0_linear_59_1773" x1="-7.89812" y1="34.9091" x2="22.6716" y2="32.6132" gradientUnits="userSpaceOnUse">
<stop stop-color="#568EFF"/>
<stop offset="1" stop-color="#9EBAC3"/>
</linearGradient>
</defs>
</svg>
