<svg width="40" height="40" viewBox="0 0 40 40" fill="none" xmlns="http://www.w3.org/2000/svg">
<rect width="40" height="40" rx="20" fill="#98B7C6"/>
<path d="M16.8308 12.7213C16.6053 12.1764 16.0106 11.8864 15.4422 12.0417L12.8642 12.7448C12.3545 12.8854 12 13.3483 12 13.8756C12 21.1233 17.8767 27 25.1244 27C25.6517 27 26.1146 26.6455 26.2552 26.1358L26.9583 23.5578C27.1136 22.9894 26.8236 22.3947 26.2787 22.1692L23.4663 20.9973C22.9888 20.7981 22.4351 20.9358 22.1099 21.3372L20.9264 22.7814C18.864 21.8059 17.1941 20.136 16.2186 18.0736L17.6628 16.893C18.0642 16.5649 18.2019 16.0142 18.0027 15.5366L16.8308 12.7243V12.7213Z" fill="white"/>
</svg>
