<svg width="13" height="16" viewBox="0 0 13 16" fill="none" xmlns="http://www.w3.org/2000/svg">
<path d="M6.5 0C8.22391 4.37133e-08 9.87769 0.632594 11.0967 1.75781C12.3154 2.88299 13 4.40891 13 6C13 9.52113 8.66985 13.9564 7.07812 15.4678C6.75121 15.7782 6.24879 15.7782 5.92188 15.4678C4.33015 13.9564 0 9.52113 0 6C3.85087e-08 4.40891 0.684639 2.88299 1.90332 1.75781C3.12231 0.632594 4.77609 0 6.5 0ZM6.5 3.5C5.83696 3.5 5.20126 3.76358 4.73242 4.23242C4.26358 4.70126 4 5.33696 4 6C4 6.66304 4.26358 7.29874 4.73242 7.76758C5.20126 8.23642 5.83696 8.5 6.5 8.5C7.16304 8.5 7.79874 8.23642 8.26758 7.76758C8.73642 7.29874 9 6.66304 9 6C9 5.33696 8.73642 4.70126 8.26758 4.23242C7.79874 3.76358 7.16304 3.5 6.5 3.5Z" fill="white"/>
</svg>
