<svg width="40" height="40" viewBox="0 0 40 40" fill="none" xmlns="http://www.w3.org/2000/svg">
<rect width="40" height="40" rx="20" fill="#98B7C6"/>
<path d="M29 24.6667V16.6667C29 16.6667 20.81 22.3111 20.0135 22.604C19.2305 22.3244 11 16.6667 11 16.6667V24.6667C11 25.7778 11.2385 26 12.35 26H27.65C28.788 26 29 25.8049 29 24.6667ZM28.9869 15.0982C28.9869 14.2889 28.748 14 27.65 14H12.35C11.2205 14 11 14.3467 11 15.1556L11.0135 15.28C11.0135 15.28 19.1446 20.8089 20.0135 21.1111C20.9315 20.76 29 15.1556 29 15.1556L28.9869 15.0982Z" fill="white"/>
</svg>
