<svg width="44" height="44" viewBox="0 0 44 44" fill="none" xmlns="http://www.w3.org/2000/svg">
<g clip-path="url(#clip0_59_46)">
<rect width="44" height="44" rx="21.6" fill="url(#paint0_linear_59_46)"/>
<path d="M38.6544 24.9132C38.6157 25.1451 35.4088 24.8895 33.7273 24.7251C33.6771 24.7202 33.6324 24.7541 33.6224 24.8035L33.0732 27.5034C33.0611 27.5628 33.1042 27.6188 33.1647 27.6208C34.055 27.6504 36.0855 27.6572 37.9661 27.4692C39.7297 27.2928 41.2297 26.6815 41.9341 26.309C42.0763 26.2338 42.2087 26.1372 42.2925 26C42.4618 25.723 42.5798 25.2737 42.2431 24.8145C41.7023 24.0771 40.3258 24.7162 40.1784 24.667C40.0836 24.6355 40.1093 24.1791 40.1486 23.8223C40.1659 23.6647 40.1813 23.4973 40.0954 23.3639C40.0015 23.218 39.8179 23.0703 39.4901 23.0451C38.851 22.9959 38.7035 24.6182 38.6544 24.9132Z" fill="#F8F9FC" stroke="#F8F9FC" stroke-width="0.0965326"/>
<path d="M33.6224 24.7679L33.0732 27.4678C33.0611 27.5271 33.1048 27.5832 33.1654 27.5852C33.7199 27.6036 34.7159 27.6132 35.8425 27.5724C35.8787 27.5711 35.9113 27.5499 35.9272 27.5173L37.1138 25.0853C37.1449 25.0217 37.1007 24.947 37.03 24.9436C35.9744 24.8924 34.6316 24.7779 33.7284 24.6896C33.6782 24.6847 33.6324 24.7185 33.6224 24.7679Z" fill="#9BBCEE"/>
<path d="M40.1783 25.7871V24.755C40.1783 24.7111 40.2074 24.6726 40.2497 24.6605L40.7651 24.5132C40.82 24.4976 40.877 24.5319 40.8841 24.5885C40.9576 25.1751 40.5935 25.6365 40.3185 25.8601C40.2595 25.908 40.1783 25.8632 40.1783 25.7871Z" fill="#9BBCEE"/>
<path d="M33.6224 24.7679L33.0732 27.4678C33.0611 27.5271 33.1048 27.5832 33.1654 27.5852C33.7199 27.6036 34.7159 27.6132 35.8425 27.5724C35.8787 27.5711 35.9113 27.5499 35.9272 27.5173L37.1138 25.0853C37.1449 25.0217 37.1007 24.947 37.03 24.9436C35.9744 24.8924 34.6316 24.7779 33.7284 24.6896C33.6782 24.6847 33.6324 24.7185 33.6224 24.7679Z" stroke="#9BBCEE" stroke-width="0.0965326"/>
<path d="M40.1783 25.7871V24.755C40.1783 24.7111 40.2074 24.6726 40.2497 24.6605L40.7651 24.5132C40.82 24.4976 40.877 24.5319 40.8841 24.5885C40.9576 25.1751 40.5935 25.6365 40.3185 25.8601C40.2595 25.908 40.1783 25.8632 40.1783 25.7871Z" stroke="#9BBCEE" stroke-width="0.0965326"/>
<path d="M38.6544 24.9132C38.6157 25.1451 35.4088 24.8895 33.7273 24.7251C33.6771 24.7202 33.6324 24.7541 33.6224 24.8035L33.0732 27.5034C33.0611 27.5628 33.1042 27.6188 33.1647 27.6208C34.055 27.6504 36.0855 27.6572 37.9661 27.4692C39.7297 27.2928 41.2297 26.6815 41.9341 26.309C42.0763 26.2338 42.2087 26.1372 42.2925 26C42.4618 25.723 42.5798 25.2737 42.2431 24.8145C41.7023 24.0771 40.3258 24.7162 40.1784 24.667C40.0836 24.6355 40.1093 24.1791 40.1486 23.8223C40.1659 23.6647 40.1813 23.4973 40.0954 23.3639C40.0015 23.218 39.8179 23.0703 39.4901 23.0451C38.851 22.9959 38.7035 24.6182 38.6544 24.9132Z" stroke="#F8F9FC" stroke-width="0.0965326"/>
<path d="M8.2517 24.3353C8.34872 24.8795 8.44461 25.388 8.53191 25.8486C8.81287 27.5346 9.30867 29.8714 9.91545 32.2769L12.5098 31.5562V31.34C12.3657 31.3832 11.7661 31.1497 10.5208 29.8699C9.27552 28.59 10.1172 25.3586 10.6938 23.9029L8.2517 24.3353Z" fill="#9BBCEE"/>
<path d="M13.5066 9.80174C15.5389 8.54272 17.1375 8.68262 18.5656 9.15315C16.8352 8.2757 12.5876 7.33369 9.43977 10.5853C6.645 13.4722 7.48364 20.0266 8.2517 24.3353L10.6938 23.9029C10.1172 25.3586 9.27552 28.59 10.5208 29.8699C11.7661 31.1497 12.3657 31.3832 12.5098 31.34V31.5562L9.91545 32.2769C10.896 36.164 12.1663 40.2304 13.2881 42.02C14.8423 44.4994 15.3635 44.9168 16.4445 45.1764C17.1016 45.3342 17.7417 45.09 18.0443 44.9168C16.7471 44.9168 13.461 31.7722 12.6827 27.8807C11.9476 24.2054 11.2126 17.7628 11.1278 14.4334C11.0011 12.9254 11.4735 11.0613 13.5066 9.80174Z" fill="#E4F0FE"/>
<path fill-rule="evenodd" clip-rule="evenodd" d="M19.3681 43.5021C19.3911 43.4263 19.4104 43.3627 19.428 43.317C19.8603 42.1928 20.5435 41.0167 21.2008 40.9821C21.5702 40.9627 21.7885 41.1108 21.9293 41.2623C22.0908 41.436 22.2039 41.6551 22.3073 41.8687C22.8374 42.9628 23.6832 44.579 24.1842 44.9548C24.6792 45.3259 25.3282 45.1716 25.8 45.0111C25.9066 44.9748 26.0085 44.9271 26.0996 44.8611C26.7639 44.38 27.9875 43.0178 29.1135 40.7659C30.4181 38.1567 34.17 27.9725 35.0372 22.6488C35.2696 21.2219 35.3855 18.8125 35.3855 18.0169C35.3855 17.9557 35.3861 17.8873 35.3868 17.8124C35.3969 16.6696 35.4204 14.0031 33.5239 12.0553C33.4338 11.9628 33.3446 11.8708 33.2561 11.7796L33.2506 11.7739L33.2494 11.7727C31.6462 10.1194 30.2788 8.70941 27.946 8.42293C25.9743 8.1808 25.0058 8.89885 24.3572 9.72054L23.1489 11.5745L20.2927 10.0656L18.5656 9.15315C17.1375 8.68262 15.5389 8.54272 13.5066 9.80174C11.4735 11.0613 11.0011 12.9254 11.1278 14.4334C11.2126 17.7628 11.9476 24.2054 12.6827 27.8807C13.461 31.7722 16.7471 44.9168 18.0443 44.9168C18.9385 44.9168 19.2247 43.9741 19.3681 43.5021Z" fill="#D9D9D9"/>
<path d="M24.3572 9.72054C25.0058 8.89885 25.9743 8.1808 27.946 8.42293C26.1012 8.19196 21.9877 8.19714 20.2927 10.0656L23.1489 11.5745L24.3572 9.72054Z" fill="#E4F0FE"/>
<path d="M18.5656 9.15315C17.1375 8.68262 15.5389 8.54272 13.5066 9.80174C11.4735 11.0613 11.0011 12.9254 11.1278 14.4334C11.2126 17.7628 11.9476 24.2054 12.6827 27.8807C13.461 31.7722 16.7471 44.9169 18.0443 44.9169M18.5656 9.15315L20.2927 10.0656M18.5656 9.15315C16.8352 8.2757 12.5876 7.33369 9.43977 10.5853C6.645 13.4722 7.48364 20.0266 8.2517 24.3353M18.0443 44.9169C17.7417 45.09 17.1016 45.3342 16.4445 45.1764C15.3635 44.9169 14.8423 44.4994 13.2881 42.02C12.1663 40.2304 10.896 36.164 9.91545 32.2769M18.0443 44.9169C18.9385 44.9169 19.2247 43.9741 19.3681 43.5021C19.3911 43.4263 19.4104 43.3627 19.428 43.317C19.8603 42.1928 20.5435 41.0167 21.2008 40.9821C21.5702 40.9627 21.7885 41.1108 21.9293 41.2622M27.946 8.42293C25.9743 8.1808 25.0058 8.89885 24.3572 9.72054L23.1489 11.5745L20.2927 10.0656M27.946 8.42293C26.1012 8.19196 21.9877 8.19714 20.2927 10.0656M27.946 8.42293C30.2788 8.70941 31.6462 10.1194 33.2494 11.7727M8.2517 24.3353C8.34872 24.8795 8.44461 25.388 8.53191 25.8486C8.81287 27.5346 9.30867 29.8714 9.91545 32.2769M8.2517 24.3353L10.6938 23.9029C10.1172 25.3586 9.27552 28.59 10.5208 29.8699C11.7661 31.1497 12.3657 31.3832 12.5098 31.34V31.5562L9.91545 32.2769M26.0996 44.8611C26.7639 44.38 27.9875 43.0178 29.1135 40.7659C30.4181 38.1567 34.17 27.9725 35.0372 22.6488C35.2696 21.2219 35.3855 18.8125 35.3855 18.0169C35.3855 17.9557 35.3861 17.8873 35.3868 17.8124C35.3969 16.6696 35.4204 14.0031 33.5239 12.0553C33.4338 11.9628 33.3446 11.8708 33.2561 11.7796M26.0996 44.8611C26.0085 44.9271 25.9066 44.9748 25.8 45.0111M26.0996 44.8611C26.0088 44.9269 25.9062 44.975 25.8 45.0111M25.8 45.0111C25.3282 45.1716 24.6792 45.3259 24.1842 44.9548C23.6832 44.579 22.8374 42.9628 22.3073 41.8687M22.3073 41.8687C22.2039 41.6551 22.0908 41.436 21.9293 41.2622M22.3073 41.8687C22.2039 41.6551 22.0908 41.436 21.9293 41.2622M33.2494 11.7727L33.2506 11.7739M33.2494 11.7727C33.2498 11.7731 33.2502 11.7735 33.2506 11.7739M33.2506 11.7739L33.2561 11.7796M33.2506 11.7739C33.2524 11.7758 33.2543 11.7777 33.2561 11.7796" stroke="#E4F0FE" stroke-width="0.0849056"/>
<path d="M18.7034 9.17699L23.1582 11.5304L24.3665 9.67645C25.0151 8.85476 25.9836 8.1367 27.9553 8.37884C30.4199 8.68152 31.807 10.2384 33.5331 12.0112C35.554 14.0867 35.3948 16.9783 35.3948 17.9728C35.3948 18.7684 35.2789 21.1778 35.0465 22.6047C34.1793 27.9284 30.4274 38.1126 29.1228 40.7218C27.9968 42.9737 26.7732 44.3359 26.1089 44.817C26.0177 44.883 25.9158 44.9308 25.8093 44.967C25.3374 45.1275 24.6884 45.2819 24.1935 44.9107C23.7345 44.5664 23.2625 47.6299 22.827 48.0778C22.6616 48.2479 22.502 47.861 22.3404 47.6872C22.1996 47.5358 21.9814 47.3876 21.6119 47.4071C20.9547 47.4417 20.2715 48.6178 19.8391 49.742C19.7121 50.0722 19.0913 44.8728 18.0536 44.8728C16.7564 44.8728 13.4703 31.7281 12.692 27.8366C11.9569 24.1613 11.2218 17.7187 11.137 14.3893C11.0104 12.8813 11.4828 11.0172 13.5159 9.75765C15.4828 8.53916 17.0434 8.63097 18.4364 9.06468C18.5288 9.09345 18.6179 9.13178 18.7034 9.17699Z" fill="white" stroke="white" stroke-width="0.0849056"/>
<path d="M7.36706 27.7011C7.64662 26.6591 8.78356 25.8334 9.73867 25.3372C10.2709 25.0606 10.7299 24.5865 10.9227 24.0185C11.0169 23.741 11.0532 23.39 10.8886 23.1476C10.6443 22.7876 10.1768 22.3745 9.3993 22.253C8.01565 22.0368 6.28616 24.6312 5.46462 26.1445C4.64308 27.6579 4.98899 29.5172 5.63757 31.0305C6.28616 32.5439 8.14543 33.1925 10.0479 33.4087C11.1284 33.5314 12.0258 33.1966 12.5948 32.8528C12.9573 32.6338 13.1876 32.2079 13.0525 31.8064C13.0189 31.7065 12.9704 31.627 12.9017 31.5926C12.6423 31.4629 12.6423 31.4197 10.6532 31.5926C9.06198 31.731 8.00121 30.872 7.66974 30.4252C7.4103 30.1081 6.98656 29.1194 7.36706 27.7011Z" fill="#F8F9FC" stroke="#F8F9FC" stroke-width="0.0849056"/>
<circle cx="18.556" cy="20.6627" r="2.42217" fill="white" stroke="#ECEBEA" stroke-width="0.0849056"/>
<circle cx="18.5533" cy="20.6441" r="1.98978" fill="#5EB8DD" stroke="#5EB8DD" stroke-width="0.0849056"/>
<circle cx="18.5517" cy="20.6435" r="1.38443" fill="#221D1F" stroke="#221D1F" stroke-width="0.0849056"/>
<circle cx="19.2042" cy="20.0994" r="0.64937" fill="#FDFDFD" stroke="#FDFDFD" stroke-width="0.0849056"/>
<circle cx="24.7905" cy="20.6627" r="2.42217" fill="white" stroke="#ECEBEA" stroke-width="0.0849056"/>
<circle cx="24.7878" cy="20.6441" r="1.98978" fill="#5EB8DD" stroke="#5EB8DD" stroke-width="0.0849056"/>
<circle cx="24.7981" cy="20.6435" r="1.38443" fill="#221D1F" stroke="#221D1F" stroke-width="0.0849056"/>
<circle cx="25.4386" cy="20.0994" r="0.64937" fill="#FDFDFD" stroke="#FDFDFD" stroke-width="0.0849056"/>
<path d="M20.8915 25.4092L19.0043 24.7705C18.82 24.7081 18.618 24.7913 18.531 24.9652C18.4895 25.0484 18.4778 25.1438 18.5064 25.2322C18.7588 26.0131 19.6365 27.3425 21.4933 27.3425C23.3137 27.3425 24.193 26.0648 24.4647 25.2789C24.5054 25.1612 24.4873 25.0333 24.4283 24.9237C24.3081 24.7004 24.0396 24.6025 23.8039 24.6961L22.0839 25.3786C21.7027 25.5299 21.28 25.5408 20.8915 25.4092Z" fill="#656565" stroke="#656565" stroke-width="0.0849056"/>
<path fill-rule="evenodd" clip-rule="evenodd" d="M20.8917 25.4093C21.28 25.5408 21.7025 25.5299 22.0836 25.3787C21.7025 25.5299 21.2801 25.5407 20.8917 25.4093ZM18.5315 24.9644C18.4896 25.0481 18.4779 25.1443 18.5067 25.2334C18.7476 25.977 19.5549 27.2168 21.2339 27.3336C21.1186 27.2501 20.7929 27.0571 20.4124 26.9534C20.0319 26.8496 18.9999 25.5841 18.5315 24.9644ZM24.4171 25.4059C24.4347 25.3624 24.4505 25.32 24.4647 25.2789C24.4648 25.2787 24.4648 25.2786 24.4649 25.2784C24.4506 25.3196 24.4347 25.3622 24.4171 25.4059Z" fill="#5D5D5D"/>
<path d="M18.5315 24.9644C18.9999 25.5841 20.0319 26.8496 20.4124 26.9534C20.7929 27.0571 21.1186 27.2501 21.2339 27.3336M18.5315 24.9644C18.4896 25.0481 18.4779 25.1443 18.5067 25.2334M18.5315 24.9644C18.6182 24.7909 18.8196 24.708 19.0033 24.7702M18.5315 24.9644C18.4896 25.048 18.4779 25.1444 18.5067 25.2334M18.5315 24.9644C18.6182 24.7909 18.8196 24.708 19.0033 24.7702M21.2339 27.3336C21.3182 27.3395 21.4046 27.3425 21.4933 27.3425C23.2186 27.3425 24.0985 26.1949 24.4171 25.4059M21.2339 27.3336C19.5549 27.2168 18.7476 25.977 18.5067 25.2334M19.0033 24.7702L20.8915 25.4092C20.8916 25.4093 20.8917 25.4093 20.8917 25.4093M22.0839 25.3786L23.8039 24.6961M22.0839 25.3786L22.0836 25.3787M22.0839 25.3786C22.0838 25.3786 22.0837 25.3787 22.0836 25.3787M23.8039 24.6961C24.0396 24.6025 24.3081 24.7004 24.4283 24.9237M23.8039 24.6961C24.0396 24.6025 24.3081 24.7004 24.4283 24.9237M24.4283 24.9237C24.4873 25.0332 24.5053 25.1609 24.4649 25.2784M24.4283 24.9237C24.487 25.0327 24.5053 25.1614 24.4649 25.2784M24.4647 25.2789C24.4505 25.32 24.4347 25.3624 24.4171 25.4059M24.4647 25.2789C24.4648 25.2787 24.4648 25.2786 24.4649 25.2784M24.4647 25.2789L24.4649 25.2784M20.8917 25.4093C21.2801 25.5407 21.7025 25.5299 22.0836 25.3787M20.8917 25.4093C21.28 25.5408 21.7025 25.5299 22.0836 25.3787M24.4171 25.4059C24.4347 25.3622 24.4506 25.3196 24.4649 25.2784" stroke="#5D5D5D" stroke-width="0.0849056"/>
<path d="M19.5866 26.7078C20.0537 27.0591 20.6783 27.3132 21.4901 27.3132C22.0416 27.3132 22.5068 27.1959 22.8948 27.0105C22.7725 26.8664 22.3203 26.5262 21.4901 26.3187C20.6599 26.1111 19.8752 26.4916 19.5866 26.7078Z" fill="#898E94" stroke="#898E94" stroke-width="0.0849056"/>
<path d="M20.245 27.1162C20.6012 27.2624 21.0171 27.3519 21.499 27.3519C22.2466 27.3519 22.8355 27.1364 23.2888 26.8279C23.3582 26.7033 23.2285 26.5736 22.2773 26.3574C21.156 26.1026 20.4612 26.7335 20.245 27.1162Z" fill="#A4AAB2" stroke="#A4AAB2" stroke-width="0.0849056"/>
<path d="M20.8915 25.4092L19.0043 24.7705C18.82 24.7081 18.618 24.7913 18.531 24.9652C18.4895 25.0484 18.4778 25.1438 18.5064 25.2322C18.7588 26.0131 19.6365 27.3425 21.4933 27.3425C23.3137 27.3425 24.193 26.0648 24.4647 25.2789C24.5054 25.1612 24.4873 25.0333 24.4283 24.9237C24.3081 24.7004 24.0396 24.6025 23.8039 24.6961L22.0839 25.3786C21.7027 25.5299 21.28 25.5408 20.8915 25.4092Z" stroke="#656565" stroke-width="0.0849056"/>
<path d="M28.7673 12.7474L28.7685 14.7455C28.7685 14.8042 28.8258 14.8458 28.8816 14.8277L30.7823 14.2114L28.8823 14.83C28.8265 14.8481 28.8046 14.9155 28.8391 14.963L30.0126 16.5802L28.8372 14.9644C28.8027 14.9169 28.7319 14.9169 28.6974 14.9644L27.5219 16.5802L28.6955 14.963C28.7299 14.9155 28.7081 14.8481 28.6522 14.83L26.7523 14.2114L28.653 14.8277C28.7088 14.8458 28.7661 14.8042 28.7661 14.7455L28.7673 12.7474Z" fill="#E1EFFC"/>
<path d="M30.8596 16.3043L30.86 16.943L31.4676 16.746L30.8603 16.9437L31.2354 17.4607L30.8596 16.9442L30.4839 17.4607L30.859 16.9437L30.2517 16.746L30.8593 16.943L30.8596 16.3043Z" fill="#E1EFFC"/>
<path d="M30.8596 12.2541L30.86 12.8928L31.4676 12.6958L30.8603 12.8935L31.2354 13.4105L30.8596 12.894L30.4839 13.4105L30.859 12.8935L30.2517 12.6958L30.8593 12.8928L30.8596 12.2541Z" fill="#E1EFFC"/>
</g>
<defs>
<linearGradient id="paint0_linear_59_46" x1="0" y1="22" x2="44" y2="22" gradientUnits="userSpaceOnUse">
<stop stop-color="#8FA892"/>
<stop offset="1" stop-color="#A5C3DB"/>
</linearGradient>
<clipPath id="clip0_59_46">
<rect width="44" height="44" rx="21.6" fill="white"/>
</clipPath>
</defs>
</svg>
