<svg width="53" height="53" viewBox="0 0 53 53" fill="none" xmlns="http://www.w3.org/2000/svg">
<g clip-path="url(#clip0_59_1857)">
<rect width="53" height="53" rx="26.5" fill="url(#paint0_linear_59_1857)"/>
<path d="M46.5609 30.0091C46.5142 30.2893 42.6263 29.9786 40.6063 29.7806C40.557 29.7758 40.5134 29.8091 40.5036 29.8576L39.833 33.1544C39.8211 33.2127 39.8637 33.2677 39.9232 33.2697C40.982 33.3061 43.4487 33.3162 45.7319 33.0879C47.8968 32.8714 49.7319 32.1108 50.559 31.6651C50.698 31.5902 50.8269 31.4951 50.9143 31.3637C51.1327 31.0351 51.3083 30.4692 50.8837 29.8903C50.2323 29.002 48.5743 29.7718 48.3966 29.7126C48.2778 29.673 48.3163 29.0783 48.3667 28.6422C48.3846 28.4876 48.3983 28.3254 48.3239 28.1887C48.2208 27.9992 47.9968 27.7919 47.5676 27.7589C46.7978 27.6997 46.6202 29.6538 46.5609 30.0091Z" fill="#F8F9FC" stroke="#F8F9FC" stroke-width="0.0965326"/>
<path d="M40.5036 29.8147L39.833 33.1115C39.8211 33.1697 39.864 33.2248 39.9234 33.2268C40.588 33.2496 41.8069 33.2621 43.187 33.2118C43.2225 33.2105 43.2546 33.1897 43.2702 33.1577L44.7199 30.1864C44.7504 30.124 44.707 30.0507 44.6375 30.0474C43.3533 29.9861 41.705 29.8454 40.6074 29.7378C40.5581 29.733 40.5134 29.7662 40.5036 29.8147Z" fill="#9BBCEE"/>
<path d="M48.3966 31.1001V29.8021C48.3966 29.759 48.4252 29.7211 48.4666 29.7093L49.126 29.5209C49.1799 29.5055 49.2358 29.5392 49.2436 29.5946C49.3479 30.3339 48.8732 30.9111 48.5356 31.1734C48.4767 31.2192 48.3966 31.1748 48.3966 31.1001Z" fill="#9BBCEE"/>
<path d="M40.5036 29.8147L39.833 33.1115C39.8211 33.1697 39.864 33.2248 39.9234 33.2268C40.588 33.2496 41.8069 33.2621 43.187 33.2118C43.2225 33.2105 43.2546 33.1897 43.2702 33.1577L44.7199 30.1864C44.7504 30.124 44.707 30.0507 44.6375 30.0474C43.3533 29.9861 41.705 29.8454 40.6074 29.7378C40.5581 29.733 40.5134 29.7662 40.5036 29.8147Z" stroke="#9BBCEE" stroke-width="0.0965326"/>
<path d="M48.3966 31.1001V29.8021C48.3966 29.759 48.4252 29.7211 48.4666 29.7093L49.126 29.5209C49.1799 29.5055 49.2358 29.5392 49.2436 29.5946C49.3479 30.3339 48.8732 30.9111 48.5356 31.1734C48.4767 31.2192 48.3966 31.1748 48.3966 31.1001Z" stroke="#9BBCEE" stroke-width="0.0965326"/>
<path d="M46.5609 30.0091C46.5142 30.2893 42.6263 29.9786 40.6063 29.7806C40.557 29.7758 40.5134 29.8091 40.5036 29.8576L39.833 33.1544C39.8211 33.2127 39.8637 33.2677 39.9232 33.2697C40.982 33.3061 43.4487 33.3162 45.7319 33.0879C47.8968 32.8714 49.7319 32.1108 50.559 31.6651C50.698 31.5902 50.8269 31.4951 50.9143 31.3637C51.1327 31.0351 51.3083 30.4692 50.8837 29.8903C50.2323 29.002 48.5743 29.7718 48.3966 29.7126C48.2778 29.673 48.3163 29.0783 48.3667 28.6422C48.3846 28.4876 48.3983 28.3254 48.3239 28.1887C48.2208 27.9992 47.9968 27.7919 47.5676 27.7589C46.7978 27.6997 46.6202 29.6538 46.5609 30.0091Z" stroke="#F8F9FC" stroke-width="0.0965326"/>
<path d="M9.93949 29.313C10.0564 29.9685 10.1719 30.581 10.277 31.1359C10.6154 33.1667 11.2127 35.9815 11.9436 38.879L15.0686 38.0109V37.7504C14.8949 37.8025 14.1727 37.5213 12.6727 35.9796C11.1727 34.438 12.1866 30.5456 12.8811 28.7921L9.93949 29.313Z" fill="#9BBCEE"/>
<path d="M16.2693 11.8067C18.7173 10.2901 20.6428 10.4586 22.363 11.0254C20.2787 9.96847 15.1622 8.83377 11.3706 12.7504C8.00414 16.2278 9.01433 24.1229 9.93949 29.313L12.8811 28.7921C12.1866 30.5456 11.1727 34.438 12.6727 35.9796C14.1727 37.5213 14.8949 37.8025 15.0686 37.7504V38.0109L11.9436 38.879C13.1246 43.5612 14.6548 48.4594 16.006 50.615C17.8782 53.6015 18.506 54.1044 19.8081 54.4171C20.5996 54.6072 21.3706 54.3129 21.7351 54.1044C20.1726 54.1044 16.2143 38.2711 15.2768 33.5836C14.3914 29.1565 13.506 21.3961 13.4038 17.3857C13.2513 15.5692 13.8203 13.3238 16.2693 11.8067Z" fill="#E4F0FE"/>
<path fill-rule="evenodd" clip-rule="evenodd" d="M23.3297 52.4003C23.3574 52.309 23.3806 52.2323 23.4018 52.1773C23.9226 50.8232 24.7455 49.4065 25.5372 49.3648C25.9823 49.3414 26.2452 49.5199 26.4147 49.7023C26.6094 49.9116 26.7455 50.1755 26.8701 50.4327C27.5086 51.7506 28.5275 53.6974 29.131 54.1501C29.7271 54.5972 30.5089 54.4112 31.0772 54.2179C31.2056 54.1743 31.3283 54.1168 31.4381 54.0373C32.2383 53.4578 33.7122 51.8169 35.0685 49.1044C36.6399 45.9615 41.1593 33.6942 42.2039 27.2815C42.4838 25.5628 42.6234 22.6605 42.6234 21.7022C42.6234 21.6285 42.6241 21.5461 42.6249 21.4559C42.6371 20.0794 42.6654 16.8673 40.3809 14.5212C40.2724 14.4097 40.165 14.299 40.0585 14.1891L40.0518 14.1822L40.0504 14.1807C38.1192 12.1894 36.4721 10.4909 33.6622 10.1458C31.2872 9.85415 30.1205 10.7191 29.3393 11.7088L27.8839 13.9421L24.4435 12.1245L22.363 11.0254C20.6428 10.4586 18.7173 10.2901 16.2693 11.8067C13.8203 13.3238 13.2513 15.5692 13.4038 17.3857C13.506 21.3961 14.3914 29.1565 15.2768 33.5836C16.2143 38.2711 20.1726 54.1044 21.7351 54.1044C22.8122 54.1044 23.157 52.9689 23.3297 52.4003Z" fill="#D9D9D9"/>
<path d="M29.3393 11.7088C30.1205 10.7191 31.2872 9.85415 33.6622 10.1458C31.44 9.86761 26.4851 9.87385 24.4435 12.1245L27.8839 13.9421L29.3393 11.7088Z" fill="#E4F0FE"/>
<path d="M22.363 11.0254C20.6428 10.4586 18.7173 10.2901 16.2693 11.8067C13.8203 13.3238 13.2513 15.5692 13.4038 17.3857C13.506 21.3961 14.3914 29.1565 15.2768 33.5836C16.2143 38.2711 20.1726 54.1044 21.7351 54.1044M22.363 11.0254L24.4435 12.1245M22.363 11.0254C20.2787 9.96847 15.1622 8.83377 11.3706 12.7504C8.00414 16.2278 9.01433 24.1229 9.93949 29.313M21.7351 54.1044C21.3706 54.3129 20.5996 54.6072 19.8081 54.4171C18.506 54.1044 17.8782 53.6015 16.006 50.615C14.6548 48.4594 13.1246 43.5612 11.9436 38.879M21.7351 54.1044C22.8122 54.1044 23.157 52.9689 23.3297 52.4003C23.3574 52.309 23.3806 52.2323 23.4018 52.1773C23.9226 50.8232 24.7455 49.4065 25.5372 49.3648C25.9823 49.3414 26.2452 49.5199 26.4147 49.7023M33.6622 10.1458C31.2872 9.85415 30.1205 10.7191 29.3393 11.7088L27.8839 13.9421L24.4435 12.1245M33.6622 10.1458C31.44 9.86761 26.4851 9.87385 24.4435 12.1245M33.6622 10.1458C36.4721 10.4909 38.1192 12.1894 40.0504 14.1807M9.93949 29.313C10.0564 29.9685 10.1719 30.581 10.277 31.1359C10.6154 33.1667 11.2127 35.9815 11.9436 38.879M9.93949 29.313L12.8811 28.7921C12.1866 30.5456 11.1727 34.438 12.6727 35.9796C14.1727 37.5213 14.8949 37.8025 15.0686 37.7504V38.0109L11.9436 38.879M31.4381 54.0373C32.2383 53.4578 33.7122 51.8169 35.0685 49.1044C36.6399 45.9615 41.1593 33.6942 42.2039 27.2815C42.4838 25.5628 42.6234 22.6605 42.6234 21.7022C42.6234 21.6285 42.6241 21.5461 42.6249 21.4559C42.6371 20.0794 42.6654 16.8673 40.3809 14.5212C40.2724 14.4097 40.165 14.299 40.0585 14.1891M31.4381 54.0373C31.3283 54.1168 31.2056 54.1743 31.0772 54.2179M31.4381 54.0373C31.428 54.0446 31.418 54.0518 31.408 54.0588C31.3178 54.1225 31.2172 54.1696 31.1127 54.2057C31.101 54.2098 31.0892 54.2138 31.0772 54.2179M31.0772 54.2179C30.5089 54.4112 29.7271 54.5972 29.131 54.15C28.5275 53.6974 27.5086 51.7506 26.8701 50.4327M26.8701 50.4327C26.7455 50.1755 26.6094 49.9116 26.4147 49.7023M26.8701 50.4327C26.8584 50.4085 26.8468 50.3844 26.8353 50.3606C26.7341 50.1508 26.6164 49.9418 26.4676 49.7625C26.451 49.7426 26.4334 49.7224 26.4147 49.7023M40.0504 14.1807L40.0518 14.1822M40.0504 14.1807C40.0508 14.1812 40.0513 14.1817 40.0518 14.1822M40.0518 14.1822L40.0585 14.1891M40.0518 14.1822C40.054 14.1845 40.0562 14.1868 40.0585 14.1891" stroke="#E4F0FE" stroke-width="0.0849056"/>
<path d="M22.5004 11.0389L27.895 13.8888L29.3505 11.6556C30.1317 10.6658 31.2984 9.80092 33.6734 10.0926C36.6421 10.4572 38.3129 12.3325 40.3921 14.4679C42.8263 16.9679 42.6346 20.451 42.6346 21.6489C42.6346 22.6073 42.495 25.5095 42.215 27.2283C41.1705 33.6409 36.6511 45.9082 35.0796 49.0512C33.7059 51.7985 32.2116 53.4465 31.4188 54.0058C31.3285 54.0695 31.2285 54.1163 31.124 54.1524C30.553 54.3499 29.7508 54.5533 29.1421 54.0968C28.5672 53.6656 27.9754 57.673 27.4336 57.9607C27.2279 58.07 27.1116 57.6809 26.9628 57.5016C26.7962 57.3008 26.5266 57.0779 26.0325 57.1039C25.2408 57.1455 24.4179 58.5622 23.8971 59.9164C23.7441 60.3141 22.9963 54.0512 21.7463 54.0512C20.1838 54.0512 16.2255 38.2178 15.288 33.5304C14.4026 29.1033 13.5172 21.3429 13.415 17.3325C13.2624 15.516 13.8315 13.2706 16.2805 11.7534C18.6642 10.2767 20.5525 10.3977 22.2383 10.9284C22.329 10.9569 22.4164 10.9945 22.5004 11.0389Z" fill="white" stroke="white" stroke-width="0.0849056"/>
<path d="M8.87394 33.3673C9.21111 32.1106 10.5837 31.115 11.7351 30.5176C12.3737 30.1862 12.9256 29.6127 13.1568 28.9315C13.2698 28.5986 13.3142 28.1753 13.1171 27.8843C12.8231 27.4502 12.2597 26.9514 11.3219 26.8049C9.65519 26.5444 7.57193 29.6694 6.58235 31.4923C5.59277 33.3153 6.00944 35.5548 6.79068 37.3778C7.57193 39.2007 9.81151 39.9819 12.1032 40.2423C13.486 40.3995 14.62 39.9343 15.2949 39.4951C15.6435 39.2683 15.8453 38.8608 15.7601 38.4538C15.7215 38.2699 15.6539 38.1114 15.5407 38.0548C15.2282 37.8986 15.2282 37.8465 12.8323 38.0548C10.9155 38.2215 9.6378 37.1868 9.23852 36.6486C8.92602 36.2666 8.4156 35.0757 8.87394 33.3673Z" fill="#F8F9FC" stroke="#F8F9FC" stroke-width="0.0849056"/>
<circle cx="22.3516" cy="24.8892" r="2.92629" fill="white" stroke="#ECEBEA" stroke-width="0.0849056"/>
<circle cx="22.3483" cy="24.8666" r="2.40546" fill="#5EB8DD" stroke="#5EB8DD" stroke-width="0.0849056"/>
<circle cx="22.3464" cy="24.866" r="1.67629" fill="#221D1F" stroke="#221D1F" stroke-width="0.0849056"/>
<circle cx="23.1323" cy="24.2105" r="0.790879" fill="#FDFDFD" stroke="#FDFDFD" stroke-width="0.0849056"/>
<circle cx="29.8612" cy="24.8892" r="2.92629" fill="white" stroke="#ECEBEA" stroke-width="0.0849056"/>
<circle cx="29.8579" cy="24.8666" r="2.40546" fill="#5EB8DD" stroke="#5EB8DD" stroke-width="0.0849056"/>
<circle cx="29.8704" cy="24.866" r="1.67629" fill="#221D1F" stroke="#221D1F" stroke-width="0.0849056"/>
<circle cx="30.642" cy="24.2105" r="0.790879" fill="#FDFDFD" stroke="#FDFDFD" stroke-width="0.0849056"/>
<path d="M25.2988 30.6519L22.8915 29.8371C22.6696 29.762 22.4263 29.8621 22.3215 30.0717C22.2714 30.1718 22.2573 30.2868 22.2918 30.3933C22.5959 31.3339 23.6531 32.9352 25.8897 32.9352C28.0824 32.9352 29.1416 31.3962 29.4689 30.4495C29.5179 30.3077 29.4961 30.1537 29.425 30.0216C29.2802 29.7526 28.9568 29.6348 28.6729 29.7475L26.4696 30.6218C26.0952 30.7703 25.6803 30.781 25.2988 30.6519Z" fill="#656565" stroke="#656565" stroke-width="0.0849056"/>
<path fill-rule="evenodd" clip-rule="evenodd" d="M25.1651 30.6066L25.2988 30.6519C25.6803 30.781 26.0952 30.7703 26.4696 30.6218L26.6007 30.5698C26.1416 30.7518 25.6329 30.7649 25.1651 30.6066ZM22.322 30.0706C22.2716 30.1715 22.2575 30.2874 22.2922 30.3947C22.5823 31.2905 23.5548 32.7838 25.5772 32.9245C25.4383 32.8239 25.046 32.5915 24.5876 32.4665C24.1293 32.3415 22.8863 30.8172 22.322 30.0706ZM29.4115 30.6025C29.4327 30.5501 29.4518 30.499 29.4689 30.4495C29.4689 30.4493 29.469 30.4491 29.4691 30.4489C29.4519 30.4986 29.4327 30.5499 29.4115 30.6025Z" fill="#5D5D5D"/>
<path d="M22.322 30.0706C22.8863 30.8172 24.1293 32.3415 24.5876 32.4665C25.046 32.5915 25.4383 32.8239 25.5772 32.9245M22.322 30.0706C22.2716 30.1715 22.2575 30.2874 22.2922 30.3947M22.322 30.0706C22.4265 29.8617 22.6691 29.7618 22.8904 29.8367M22.322 30.0706C22.2716 30.1714 22.2575 30.2875 22.2922 30.3947M22.322 30.0706C22.4265 29.8617 22.6691 29.7618 22.8904 29.8367M25.5772 32.9245C25.6787 32.9316 25.7829 32.9352 25.8897 32.9352C27.9678 32.9352 29.0278 31.5528 29.4115 30.6025M25.5772 32.9245C23.5548 32.7838 22.5823 31.2905 22.2922 30.3947M22.8904 29.8367L25.1648 30.6065C25.1649 30.6066 25.165 30.6066 25.1651 30.6066M26.6011 30.5696L28.6729 29.7475M26.6011 30.5696L26.6007 30.5698M26.6011 30.5696C26.601 30.5696 26.6008 30.5697 26.6007 30.5698M28.6729 29.7475C28.9568 29.6348 29.2802 29.7526 29.425 30.0216M28.6729 29.7475C28.9568 29.6348 29.2802 29.7526 29.425 30.0216M29.425 30.0216C29.496 30.1535 29.5178 30.3073 29.4691 30.4489M29.425 30.0216C29.4957 30.153 29.5178 30.3079 29.4691 30.4489M29.4689 30.4495C29.4518 30.499 29.4327 30.5501 29.4115 30.6025M29.4689 30.4495C29.4689 30.4493 29.469 30.4491 29.4691 30.4489M29.4689 30.4495L29.4691 30.4489M25.1651 30.6066L25.2988 30.6519C25.6803 30.781 26.0952 30.7703 26.4696 30.6218L26.6007 30.5698M25.1651 30.6066C25.6329 30.7649 26.1416 30.7518 26.6007 30.5698M29.4115 30.6025C29.4327 30.5499 29.4519 30.4986 29.4691 30.4489" stroke="#5D5D5D" stroke-width="0.0849056"/>
<path d="M23.593 32.1709C24.1556 32.594 24.908 32.9001 25.8858 32.9001C26.5502 32.9001 27.1105 32.7588 27.5779 32.5355C27.4305 32.3619 26.8858 31.9521 25.8858 31.7021C24.8858 31.4521 23.9406 31.9105 23.593 32.1709Z" fill="#898E94" stroke="#898E94" stroke-width="0.0849056"/>
<path d="M24.3861 32.6627C24.8151 32.8388 25.3161 32.9466 25.8965 32.9466C26.7971 32.9466 27.5065 32.687 28.0524 32.3155C28.1361 32.1654 27.9799 32.0091 26.834 31.7487C25.4834 31.4418 24.6465 32.2018 24.3861 32.6627Z" fill="#A4AAB2" stroke="#A4AAB2" stroke-width="0.0849056"/>
<path d="M25.2988 30.6519L22.8915 29.8371C22.6696 29.762 22.4263 29.8621 22.3215 30.0717C22.2714 30.1718 22.2573 30.2868 22.2918 30.3933C22.5959 31.3339 23.6531 32.9352 25.8897 32.9352C28.0824 32.9352 29.1416 31.3962 29.4689 30.4495C29.5179 30.3077 29.4961 30.1537 29.425 30.0216C29.2802 29.7526 28.9568 29.6348 28.6729 29.7475L26.4696 30.6218C26.0952 30.7703 25.6803 30.781 25.2988 30.6519Z" stroke="#656565" stroke-width="0.0849056"/>
<path d="M34.6515 15.3547L34.6529 17.788C34.653 17.8457 34.7092 17.8865 34.764 17.8687L37.0787 17.1182L34.7649 17.8715C34.7101 17.8893 34.6886 17.9554 34.7225 18.0021L36.1516 19.9715L34.7202 18.0038C34.6863 17.9571 34.6168 17.9571 34.5828 18.0038L33.1514 19.9715L34.5805 18.0021C34.6144 17.9554 34.5929 17.8893 34.5381 17.8715L32.2243 17.1182L34.539 17.8687C34.5938 17.8865 34.65 17.8457 34.6501 17.788L34.6515 15.3547Z" fill="#E1EFFC"/>
<path d="M37.1718 19.6392L37.1723 20.4086L37.9042 20.1713L37.1726 20.4094L37.6245 21.0322L37.1718 20.41L36.7192 21.0322L37.1711 20.4094L36.4395 20.1713L37.1714 20.4086L37.1718 19.6392Z" fill="#E1EFFC"/>
<path d="M37.1718 14.7605L37.1723 15.5299L37.9042 15.2926L37.1726 15.5308L37.6245 16.1535L37.1718 15.5313L36.7192 16.1535L37.1711 15.5308L36.4395 15.2926L37.1714 15.5299L37.1718 14.7605Z" fill="#E1EFFC"/>
</g>
<defs>
<linearGradient id="paint0_linear_59_1857" x1="0" y1="26.5" x2="53" y2="26.5" gradientUnits="userSpaceOnUse">
<stop stop-color="#8FA892"/>
<stop offset="1" stop-color="#A5C3DB"/>
</linearGradient>
<clipPath id="clip0_59_1857">
<rect width="53" height="53" rx="26.5" fill="white"/>
</clipPath>
</defs>
</svg>
