<svg width="61" height="60" viewBox="0 0 61 60" fill="none" xmlns="http://www.w3.org/2000/svg">
<g clip-path="url(#clip0_59_885)">
<path d="M60.0675 52.5759C60.0675 56.6929 56.6929 60 52.6434 60H7.49156C3.37458 60 0.0674973 56.6254 0.0674973 52.5759V7.42407C0.0674973 3.30709 3.44207 0 7.49156 0H52.6434C56.7604 0 60.0675 3.37458 60.0675 7.42407V52.5759Z" fill="url(#paint0_linear_59_885)"/>
<path d="M52.5759 0.0675049H7.42407C3.30709 0.0675049 0 3.44208 0 7.49158V8.03151C0 3.91452 3.37458 0.607437 7.42407 0.607437H52.5759C56.6929 0.607437 60 3.98202 60 8.03151V7.49158C60.0675 3.44208 56.6929 0.0675049 52.5759 0.0675049Z" fill="#568EFF"/>
<path d="M54.8814 27.1424C47.9504 20.2114 36.6755 20.3352 29.8983 27.4167L27.1583 30.2797C26.2025 31.2785 25.4221 32.4314 24.85 33.6899L22.8221 38.1515C21.923 40.1295 22.3452 42.4577 23.8815 43.9941L25.6438 45.7563C25.9359 46.0485 26.0412 46.479 25.9167 46.8729C25.7923 47.2669 25.8976 47.6974 26.1897 47.9896L33.0963 54.8961C36.3211 58.1209 40.6948 59.9326 45.2553 59.9326H52.5759C56.6929 59.9326 60 56.558 60 52.5085V51.4286V39.4998C60 34.8649 58.1588 30.4198 54.8814 27.1424Z" fill="url(#paint1_linear_59_885)" fill-opacity="0.1"/>
<path d="M34.5557 42.5196C34.5557 46.0292 32.9359 48.7963 31.856 48.7963H28.5489C27.4016 48.7963 25.8493 45.9617 25.8493 42.5196C25.8493 39.0101 26.7267 36.1754 27.874 36.1754H32.5984C33.6783 36.1754 34.5557 39.0101 34.5557 42.5196Z" fill="url(#paint2_linear_59_885)"/>
<path d="M35.6355 39.0101C35.4331 38.3352 34.7581 37.9303 34.1507 38.1327L25.6468 40.4275C24.9719 40.6299 24.5669 41.3048 24.7694 41.9123C24.9719 42.5872 25.6468 42.9921 26.2542 42.7897L34.7581 40.4949C35.4331 40.2925 35.7705 39.6176 35.6355 39.0101Z" fill="url(#paint3_linear_59_885)"/>
<path d="M34.9606 42.1147C34.8256 41.5073 34.2182 41.1699 33.6108 41.3723L26.1192 43.3971C25.5118 43.5321 25.1743 44.1395 25.3768 44.7469C25.5118 45.3543 26.1192 45.6918 26.7266 45.4893L34.2182 43.4646C34.8256 43.2621 35.1631 42.6547 34.9606 42.1147Z" fill="url(#paint4_linear_59_885)"/>
<path d="M34.6907 44.9493C34.5557 44.4094 34.0157 44.0719 33.4758 44.2069L26.4567 46.0967C25.9168 46.2316 25.5793 46.7716 25.7143 47.3115C25.8493 47.8514 26.3892 48.1889 26.9291 48.0539L32.3604 46.5917C33.4174 46.3071 35.075 45.9743 34.6907 44.9493Z" fill="url(#paint5_linear_59_885)"/>
<path d="M32.5984 48.4589C32.7334 49.0664 32.4635 49.6738 31.9235 49.8088L29.5613 50.4162C29.0214 50.5512 28.4814 50.1462 28.279 49.5388C28.144 48.9314 28.414 48.324 28.9539 48.189L31.3161 47.5816C31.856 47.4466 32.4635 47.8515 32.5984 48.4589Z" fill="url(#paint6_linear_59_885)"/>
<path d="M34.7582 40.225L26.2542 42.5197C25.6469 42.7019 25.0396 42.3923 24.8257 41.8366C24.7773 41.711 24.7694 41.5745 24.7694 41.4399C24.7694 41.7084 24.792 41.9865 24.9404 42.2104C25.2357 42.6559 25.7667 42.8847 26.2542 42.7222L34.7582 40.4275C35.3656 40.2925 35.703 39.6851 35.6355 39.1451C35.6355 39.6851 35.2306 40.09 34.7582 40.225Z" fill="#D1D1D1"/>
<path d="M34.2182 43.1946L26.7267 45.2194C26.1939 45.3378 25.6612 45.0927 25.4472 44.6664C25.3868 44.5463 25.3768 44.409 25.3768 44.2745C25.3768 44.5437 25.3836 44.8275 25.5367 45.0489C25.7881 45.4125 26.2574 45.5783 26.7267 45.4219L34.2182 43.3971C34.2906 43.379 34.3593 43.3537 34.4239 43.3222C34.6187 43.2272 34.4238 43.1261 34.2182 43.1946Z" fill="#D1D1D1"/>
<path d="M34.0157 45.9616L26.9966 47.8514C26.5009 47.9753 26.0053 47.7011 25.8229 47.2375C25.7901 47.1541 25.7818 46.974 25.7818 46.974C25.7818 47.243 25.7932 47.5269 25.9535 47.7429C26.1877 48.0585 26.5922 48.2225 26.9966 48.1214L34.0157 46.2316C34.1004 46.2074 34.1807 46.1724 34.2551 46.1285C34.4481 46.0146 34.2368 45.9248 34.0157 45.9616Z" fill="#D1D1D1"/>
<path d="M31.9235 49.6063L29.5613 50.2137C29.0253 50.3477 28.4893 49.9496 28.2834 49.3495C28.2804 49.3408 28.279 49.3328 28.2789 49.3236C28.2786 49.2473 28.2113 49.2644 28.2194 49.3402C28.2277 49.4173 28.2445 49.503 28.279 49.6063C28.4139 50.2137 29.0214 50.6186 29.5613 50.4837L31.9235 49.8762C32.0092 49.8518 32.0882 49.8162 32.1602 49.7711C32.2643 49.7059 32.04 49.5674 31.9235 49.6063Z" fill="#D1D1D1"/>
<path d="M25.5793 40.6974L34.0833 38.4027C34.6906 38.2205 35.2979 38.5302 35.5118 39.0858C35.5602 39.2114 35.5681 39.3479 35.5681 39.4826C35.5681 39.1693 35.5443 38.8414 35.3584 38.5893C35.0569 38.1804 34.5502 37.9771 34.0833 38.1327L25.5793 40.4275C25.4826 40.4489 25.3928 40.4824 25.3103 40.5259C25.1276 40.6223 25.3807 40.7542 25.5793 40.6974Z" fill="#4D4D4D"/>
<path d="M26.1192 43.6669L33.6108 41.6422C34.1686 41.5182 34.7264 41.7927 34.9184 42.2565C34.9526 42.3393 34.9606 42.4299 34.9606 42.5196C34.9606 42.2055 34.9561 41.8692 34.7605 41.6235C34.5014 41.298 34.0561 41.1563 33.6108 41.3047L26.1192 43.3295C26.0058 43.3578 25.9013 43.4041 25.8076 43.4644C25.5532 43.6283 25.8208 43.7167 26.1192 43.6669Z" fill="#4D4D4D"/>
<path d="M26.4567 46.4342L33.4758 44.5445C33.9715 44.4206 34.4672 44.6948 34.6495 45.1584C34.6824 45.2418 34.6907 45.3322 34.6907 45.4219C34.6907 45.1529 34.6793 44.869 34.519 44.653C34.2847 44.3374 33.8803 44.1734 33.4758 44.2745L26.4567 46.1643C26.3747 46.1877 26.2968 46.2213 26.2243 46.2637C26.0578 46.361 26.2665 46.466 26.4567 46.4342Z" fill="#4D4D4D"/>
<path d="M29.0214 48.5264L31.3836 47.919C31.8658 47.7985 32.3479 48.1085 32.5898 48.6089C32.6481 48.7296 32.6659 48.8648 32.6659 48.9989C32.6659 48.6849 32.6569 48.3533 32.4734 48.0985C32.2186 47.7445 31.7827 47.5493 31.3836 47.6491L29.0214 48.2565C28.5489 48.3915 28.279 48.9314 28.3465 49.4713C28.3465 48.9989 28.6164 48.6614 29.0214 48.5264Z" fill="#4D4D4D"/>
<path d="M36.243 36.1754C36.243 37.5927 35.0281 38.7401 33.4758 38.7401H26.9966C25.4443 38.7401 24.2295 37.5927 24.2295 36.1754C24.2295 34.7581 25.4443 33.6107 26.9966 33.6107H33.4758C34.9606 33.6107 36.243 34.7581 36.243 36.1754Z" fill="url(#paint7_linear_59_885)"/>
<path d="M33.4083 38.3351H26.9291C25.4443 38.3351 24.297 37.3227 24.162 35.9729C24.162 36.0404 24.162 36.1079 24.162 36.1754C24.162 37.5927 25.3768 38.7401 26.9291 38.7401H33.4083C34.9606 38.7401 36.1755 37.5927 36.1755 36.1754C36.1755 36.1079 36.1755 36.0404 36.1755 35.9729C36.0405 37.2552 34.8931 38.3351 33.4083 38.3351Z" fill="#D1D1D1"/>
<path d="M22.2047 41.9797C23.892 41.9797 24.4994 41.2373 25.1069 38.6726C25.7143 36.1079 27.6715 34.2856 30.7087 34.3531C33.0034 34.4206 34.6232 35.568 35.6355 37.9977C36.7154 40.5624 36.5129 41.9797 38.6052 41.9122C41.2373 41.8447 46.0967 24.9043 45.4218 21.2598C44.7469 17.6152 42.9246 13.3633 39.4826 13.2283C36.0405 13.0933 33.8808 14.8481 30.7761 14.8481C27.6715 14.8481 23.6895 11.676 20.4499 13.2283C17.1429 14.7131 13.7008 19.3025 15.3881 26.1867C16.9404 33.1383 20.2475 41.9797 22.2047 41.9797Z" fill="url(#paint8_linear_59_885)"/>
<path d="M20.3825 14.4431C23.6895 12.9583 27.6041 16.0629 30.7087 16.0629C33.8133 16.0629 35.973 14.2407 39.4151 14.4431C42.8542 14.578 44.6763 18.8902 45.3526 22.4655C45.3538 22.4716 45.3543 22.474 45.3543 22.4802C45.3544 22.5797 45.4432 22.5743 45.4468 22.4749C45.4633 22.0247 45.4088 21.654 45.3543 21.3273C44.6794 17.6827 42.9246 13.4308 39.4151 13.2958C35.973 13.1608 33.8133 14.9156 30.7087 14.9156C27.6041 14.9156 23.6221 11.7435 20.3825 13.2958C17.5478 14.5781 14.6457 18.0877 14.9156 23.4195C15.1181 18.6951 17.8178 15.5905 20.3825 14.4431Z" fill="white"/>
<path d="M45.4218 21.6648C45.4218 21.7323 45.4218 21.7323 45.4218 21.6648C45.4218 22.0023 45.4218 22.3397 45.4218 22.7447C45.4218 22.6318 45.4218 22.5661 45.3823 22.4686C45.3657 22.4275 45.3543 22.3841 45.3543 22.3397C44.7469 28.0765 40.8324 40.8324 38.5377 40.8999C36.4454 40.9674 36.6479 39.5501 35.5681 36.9854C34.5557 34.4882 32.9359 33.3408 30.6412 33.3408C27.6715 33.2733 25.7143 35.0956 25.0394 37.6603C24.4319 40.225 23.8245 40.9674 22.1372 40.9674C20.18 40.9674 16.9404 32.126 15.2531 25.2418C15.0506 24.432 14.9156 23.6895 14.9156 22.9471C14.9156 23.0821 14.9156 23.2171 14.9156 23.2846C14.9831 24.2295 15.0506 25.1744 15.3206 26.1867C16.9404 33.0709 20.18 41.9123 22.2047 41.9123C23.892 41.9123 24.4994 41.1699 25.1069 38.6052C25.7143 36.0405 27.6715 34.2182 30.7087 34.2857C33.0034 34.3532 34.6232 35.5006 35.6356 37.9303C36.7154 40.4949 36.5129 41.9123 38.6052 41.8448C41.1024 41.9123 45.7593 25.9168 45.4218 21.6648Z" fill="#C0DDE4"/>
</g>
<defs>
<linearGradient id="paint0_linear_59_885" x1="29.7777" y1="0.350619" x2="30.3071" y2="59.6376" gradientUnits="userSpaceOnUse">
<stop stop-color="#6D9CEC"/>
<stop offset="0.3133" stop-color="#5286DC"/>
<stop offset="0.7481" stop-color="#78A0DC"/>
<stop offset="1" stop-color="#7EA6DF"/>
</linearGradient>
<linearGradient id="paint1_linear_59_885" x1="29.8611" y1="26.9108" x2="59.3046" y2="56.3543" gradientUnits="userSpaceOnUse">
<stop offset="0.00480769"/>
<stop offset="1" stop-opacity="0.6"/>
</linearGradient>
<linearGradient id="paint2_linear_59_885" x1="30.1753" y1="48.8206" x2="30.1753" y2="36.2012" gradientUnits="userSpaceOnUse">
<stop stop-color="#424242"/>
<stop offset="0.2415" stop-color="#464646"/>
<stop offset="0.46" stop-color="#515151"/>
<stop offset="0.6696" stop-color="#636363"/>
<stop offset="0.8724" stop-color="#7D7D7D"/>
<stop offset="1" stop-color="#919191"/>
</linearGradient>
<linearGradient id="paint3_linear_59_885" x1="30.4959" y1="41.6327" x2="29.8548" y2="39.24" gradientUnits="userSpaceOnUse">
<stop stop-color="#424242"/>
<stop offset="0.2415" stop-color="#464646"/>
<stop offset="0.46" stop-color="#515151"/>
<stop offset="0.6696" stop-color="#636363"/>
<stop offset="0.8724" stop-color="#7D7D7D"/>
<stop offset="1" stop-color="#919191"/>
</linearGradient>
<linearGradient id="paint4_linear_59_885" x1="30.458" y1="44.4289" x2="29.8925" y2="42.3184" gradientUnits="userSpaceOnUse">
<stop stop-color="#424242"/>
<stop offset="0.2415" stop-color="#464646"/>
<stop offset="0.46" stop-color="#515151"/>
<stop offset="0.6696" stop-color="#636363"/>
<stop offset="0.8724" stop-color="#7D7D7D"/>
<stop offset="1" stop-color="#919191"/>
</linearGradient>
<linearGradient id="paint5_linear_59_885" x1="30.5056" y1="47.1472" x2="29.9785" y2="45.1798" gradientUnits="userSpaceOnUse">
<stop stop-color="#424242"/>
<stop offset="0.2415" stop-color="#464646"/>
<stop offset="0.46" stop-color="#515151"/>
<stop offset="0.6696" stop-color="#636363"/>
<stop offset="0.8724" stop-color="#7D7D7D"/>
<stop offset="1" stop-color="#919191"/>
</linearGradient>
<linearGradient id="paint6_linear_59_885" x1="30.7631" y1="50.1315" x2="30.1649" y2="47.8988" gradientUnits="userSpaceOnUse">
<stop stop-color="#424242"/>
<stop offset="0.2415" stop-color="#464646"/>
<stop offset="0.46" stop-color="#515151"/>
<stop offset="0.6696" stop-color="#636363"/>
<stop offset="0.8724" stop-color="#7D7D7D"/>
<stop offset="1" stop-color="#919191"/>
</linearGradient>
<linearGradient id="paint7_linear_59_885" x1="30.1755" y1="38.764" x2="30.1755" y2="33.6383" gradientUnits="userSpaceOnUse">
<stop stop-color="#424242"/>
<stop offset="0.2415" stop-color="#464646"/>
<stop offset="0.46" stop-color="#515151"/>
<stop offset="0.6696" stop-color="#636363"/>
<stop offset="0.8724" stop-color="#7D7D7D"/>
<stop offset="1" stop-color="#919191"/>
</linearGradient>
<linearGradient id="paint8_linear_59_885" x1="30.1756" y1="41.9518" x2="30.1756" y2="12.8553" gradientUnits="userSpaceOnUse">
<stop stop-color="#B9EAFA"/>
<stop offset="1" stop-color="#F5F9FA"/>
</linearGradient>
<clipPath id="clip0_59_885">
<rect width="60.0675" height="60" rx="16" fill="white"/>
</clipPath>
</defs>
</svg>
